<?xml version="1.0" standalone="no"?>
<!DOCTYPE svg PUBLIC "-//W3C//DTD SVG 20010904//EN"
 "http://www.w3.org/TR/2001/REC-SVG-20010904/DTD/svg10.dtd">
<svg version="1.0" xmlns="http://www.w3.org/2000/svg"
 width="638.000000pt" height="1000.000000pt" viewBox="0 0 638.000000 1000.000000"
 preserveAspectRatio="xMidYMid meet">

<g transform="translate(0.000000,1000.000000) scale(0.100000,-0.100000)"
fill="#000000" stroke="none">
<path d="M0 7771 c0 -1958 2 -2232 15 -2257 19 -37 19 -105 0 -130 -12 -16
-14 -136 -15 -856 l0 -838 64 0 c36 0 95 -7 133 -16 193 -44 183 -29 183 -252
0 -134 -3 -173 -13 -169 -9 3 -11 44 -8 173 3 150 2 172 -13 187 -15 15 -40
17 -181 17 l-164 0 0 -820 c-1 -712 1 -819 13 -814 8 3 16 20 18 37 3 26 9 32
38 40 19 5 43 16 52 24 13 12 29 14 62 9 25 -4 48 -11 51 -15 8 -13 82 -22
107 -12 13 5 46 5 73 1 64 -11 100 -3 84 16 -9 11 -8 14 4 14 8 0 17 -6 20
-12 3 -9 12 -6 29 10 35 31 95 31 107 -2 5 -13 19 -26 30 -29 17 -4 21 -12 19
-39 l-3 -33 100 -3 c112 -3 148 -18 153 -67 5 -36 -27 -58 -98 -66 -80 -10
-135 26 -146 94 -5 28 -11 37 -21 33 -9 -4 -17 1 -20 13 -8 31 -168 44 -283
23 -148 -27 -205 -32 -263 -21 -44 8 -62 7 -73 -2 -13 -10 -12 -13 4 -23 11
-6 31 -19 44 -29 22 -15 32 -16 72 -7 59 13 456 11 474 -3 19 -15 14 -44 -13
-85 -25 -36 -25 -37 -4 -44 11 -4 41 -3 66 2 50 12 206 6 319 -12 64 -9 79 -8
135 10 71 23 185 28 231 9 22 -10 26 -16 21 -37 -11 -48 -21 -57 -63 -58 -23
-1 -46 -4 -51 -7 -13 -9 13 -45 33 -45 9 0 20 -4 23 -10 3 -5 15 -10 26 -10
11 0 22 -7 25 -15 17 -42 72 4 58 48 -4 12 -8 46 -8 75 l-1 53 40 11 c29 8 63
8 124 -1 61 -7 88 -8 98 0 17 15 0 47 -32 59 -16 6 -23 15 -19 24 3 8 -3 22
-14 32 -28 28 -62 89 -62 112 0 11 7 23 16 26 22 8 147 7 160 -2 18 -12 44
-70 38 -85 -3 -10 4 -18 21 -24 l27 -9 -26 -14 c-24 -12 -28 -11 -49 8 -13 12
-28 22 -33 22 -14 0 -59 -48 -52 -55 3 -3 37 -9 75 -13 60 -7 74 -12 101 -40
29 -30 36 -32 99 -32 57 0 75 -4 106 -25 20 -14 37 -29 37 -34 0 -4 -26 -9
-57 -10 -32 -1 -85 -7 -118 -13 -33 -5 -126 -11 -206 -12 -107 -1 -150 -5
-162 -15 -26 -21 -21 -27 28 -41 32 -9 52 -10 72 -2 16 6 62 13 103 15 41 3
76 10 78 16 2 7 13 6 33 -4 16 -9 50 -18 76 -22 27 -3 60 -12 75 -19 28 -14
78 -5 78 15 0 13 87 30 96 18 1 -1 4 -25 8 -53 l6 -51 -92 -11 c-168 -20 -271
-26 -386 -23 -85 2 -121 -1 -145 -12 -21 -10 -78 -18 -167 -21 -74 -3 -152
-10 -173 -15 -40 -10 -88 -1 -113 20 -8 6 -14 8 -14 3 0 -5 16 -20 35 -32 33
-23 40 -24 172 -19 76 2 183 10 238 16 234 27 279 31 465 37 l195 6 45 -37
c24 -20 55 -41 67 -46 13 -5 23 -15 23 -23 0 -33 -33 -41 -233 -55 -95 -7
-124 -6 -145 5 -36 19 -157 9 -192 -15 -27 -19 -130 -32 -405 -51 -82 -6 -238
-17 -345 -26 -171 -13 -576 -39 -927 -60 l-113 -7 0 -39 c0 -38 1 -39 28 -34
15 3 65 8 112 11 47 4 153 13 235 21 228 22 954 82 1030 85 11 1 79 7 152 15
73 8 168 14 213 14 44 0 113 6 153 14 59 12 332 36 400 36 21 0 22 -31 6 -113
-14 -66 -4 -62 -169 -76 -63 -6 -185 -17 -270 -25 -85 -8 -200 -17 -255 -20
-55 -3 -101 -5 -102 -5 -2 -1 -3 -12 -3 -25 0 -33 49 -49 122 -41 29 3 107 13
173 20 216 26 466 48 472 41 11 -10 -14 -178 -28 -186 -7 -5 -44 -11 -82 -15
l-69 -7 29 -30 c26 -25 33 -28 57 -18 48 18 66 13 66 -17 0 -42 -19 -100 -34
-106 -7 -3 -19 -1 -26 3 -7 5 -24 4 -37 -1 -23 -9 -24 -8 -18 21 5 24 3 30
-10 30 -14 0 -97 -59 -115 -81 -12 -14 -92 -50 -98 -43 -4 4 -1 9 6 11 14 5
16 33 2 33 -5 0 -10 -4 -10 -10 0 -5 -5 -10 -12 -10 -19 0 42 58 92 87 52 31
71 52 64 72 -2 8 4 23 13 34 18 20 17 20 -30 14 -63 -9 -68 -13 -55 -42 10
-22 8 -27 -16 -46 -14 -11 -33 -27 -41 -35 -8 -8 -27 -21 -42 -29 -19 -10 -22
-15 -10 -15 47 0 -4 -43 -105 -88 -70 -32 -80 -33 -646 -48 -192 -6 -245 -10
-249 -21 -4 -11 -8 -11 -20 -1 -11 9 -65 12 -207 9 -105 -1 -189 0 -186 3 5 5
103 20 305 46 44 6 127 17 185 26 58 8 139 19 180 24 41 5 102 14 135 19 151
24 208 32 320 46 141 19 266 36 281 40 6 2 8 19 6 40 l-4 38 -87 -9 c-47 -5
-123 -8 -167 -6 -60 2 -86 -1 -96 -11 -12 -13 -360 -65 -544 -82 -106 -9 -489
-55 -501 -60 -7 -2 -97 -13 -200 -25 -254 -28 -266 -29 -280 -29 -10 -1 -13
-28 -13 -99 l0 -98 30 -17 c28 -17 30 -17 30 -1 0 12 6 15 26 10 15 -4 40 -10
56 -13 17 -3 25 -9 18 -13 -7 -4 0 -12 19 -20 37 -15 40 -29 6 -25 -14 1 -25
-2 -25 -6 0 -5 -5 -9 -11 -9 -5 0 -8 4 -5 8 2 4 1 14 -5 22 -7 12 -9 12 -9 -3
0 -11 -5 -17 -13 -14 -6 2 -11 16 -9 31 3 25 1 26 -18 16 -14 -7 -31 -8 -55
-1 l-35 9 0 -209 0 -209 3190 0 3190 0 0 869 0 868 -147 51 c-343 118 -398
139 -433 166 -8 7 -44 18 -80 25 -36 7 -76 15 -89 18 -23 6 -23 4 -17 -43 8
-58 19 -197 46 -549 11 -143 24 -298 30 -345 5 -47 10 -91 10 -99 0 -20 -44
30 -60 68 l-13 32 -24 -23 c-20 -19 -25 -20 -33 -8 -5 8 -10 20 -10 25 0 6 -5
2 -11 -7 -20 -35 -26 -17 -28 74 -1 50 -7 101 -14 112 -11 19 -12 17 -17 -24
-3 -25 -8 -40 -13 -33 -4 6 -4 19 -1 30 5 15 4 15 -5 3 -6 -8 -11 -42 -12 -75
-1 -49 -3 -54 -9 -30 -4 17 -8 26 -9 20 -1 -5 -6 -3 -11 5 -8 12 -10 10 -10
-10 0 -25 -23 -77 -60 -139 -15 -24 -21 -53 -23 -108 -2 -59 -6 -78 -20 -88
-10 -7 -23 -30 -29 -51 -6 -22 -13 -33 -15 -26 -7 19 -51 14 -65 -7 -11 -18
-13 -17 -24 16 -11 30 -10 44 3 82 11 34 12 50 4 63 -6 10 -11 39 -11 66 0 32
-6 53 -17 64 -10 9 -34 33 -53 52 -23 25 -52 41 -91 52 -55 15 -57 18 -69 60
-11 39 -11 47 4 63 11 13 14 21 7 26 -6 3 -8 17 -5 31 5 19 1 29 -15 40 -11 8
-21 20 -21 26 0 17 -59 70 -70 63 -6 -3 -10 -16 -10 -29 0 -23 -17 -46 -33
-46 -5 0 -7 9 -4 19 5 21 -25 41 -31 22 -6 -17 -32 -13 -39 6 -6 15 -7 15 -13
-3 -5 -14 -10 -7 -23 31 -9 28 -19 68 -23 90 -4 22 -12 51 -19 65 -16 31 -34
124 -41 205 -5 66 -33 185 -44 185 -3 0 -7 19 -8 42 -2 24 -5 50 -7 58 -2 8
-11 100 -20 203 -8 104 -18 193 -21 199 -7 11 -22 104 -29 183 -3 28 -11 77
-19 110 -8 33 -20 120 -27 194 -14 153 -13 153 -80 15 -21 -44 -42 -102 -45
-130 -4 -27 -16 -62 -28 -79 -22 -30 -29 -45 -61 -123 -10 -23 -24 -47 -32
-53 -17 -15 -17 -44 2 -72 8 -13 24 -81 35 -153 11 -71 30 -192 42 -269 19
-115 23 -178 22 -350 0 -222 -12 -384 -25 -350 -6 18 -9 16 -21 -13 -8 -18
-16 -30 -19 -28 -2 2 -22 5 -44 7 -22 2 -53 11 -70 21 -16 10 -38 21 -47 24
-10 4 -18 10 -18 15 0 19 -28 8 -34 -14 -11 -40 -11 -39 44 -104 5 -7 10 -24
10 -38 0 -14 5 -25 10 -25 6 0 10 -6 10 -12 0 -7 20 -21 45 -31 30 -13 45 -25
45 -37 0 -31 -15 -31 -49 0 -18 17 -36 30 -42 30 -5 0 -9 7 -9 15 0 8 -4 15
-10 15 -16 0 -12 -30 5 -36 8 -4 15 -11 15 -16 0 -5 17 -26 38 -46 39 -38 59
-72 42 -72 -6 0 -10 -9 -10 -19 0 -17 4 -18 33 -11 64 18 207 50 217 50 5 0
10 -16 10 -35 0 -25 -7 -41 -25 -57 -14 -12 -25 -26 -25 -32 0 -6 -11 -23 -24
-37 l-25 -27 40 -17 c21 -10 39 -22 39 -26 0 -10 -104 -32 -165 -34 -27 -1
-79 -3 -115 -5 -90 -3 -102 3 -98 52 2 30 12 49 36 73 17 18 32 40 32 49 0 9
12 22 27 28 l28 12 -24 4 c-27 4 -131 70 -131 83 0 12 -75 89 -87 89 -6 0 -16
7 -23 15 -7 8 -20 15 -30 15 -11 0 -21 14 -30 40 -12 36 -30 54 -30 30 0 -17
-18 -11 -23 8 -4 14 -6 14 -12 -6 -9 -27 -14 -27 -31 -4 -12 16 -13 15 -14 -6
0 -13 -4 -20 -10 -17 -5 3 -10 15 -10 26 0 11 -7 19 -18 19 -9 0 -23 9 -30 20
-7 11 -17 20 -23 20 -7 0 -22 11 -35 25 l-24 26 40 54 c23 30 45 55 50 55 6 0
10 5 10 11 0 6 15 31 33 56 l32 45 11 -43 c5 -24 16 -57 22 -73 7 -16 17 -63
23 -105 12 -83 29 -117 29 -59 0 20 -6 38 -12 41 -7 2 -10 8 -6 12 5 5 24 -8
43 -28 20 -21 38 -37 40 -37 15 0 -11 165 -34 224 -8 20 -9 39 -2 60 16 52 22
106 13 106 -5 0 -15 -28 -22 -63 -7 -34 -15 -66 -19 -72 -8 -16 -19 35 -20 98
-1 50 6 73 44 154 25 52 45 97 45 101 0 3 -18 -13 -40 -37 -22 -23 -40 -48
-40 -54 0 -7 -4 -6 -10 3 -7 12 -11 10 -19 -10 -5 -14 -10 -19 -10 -12 -1 7 3
20 8 30 39 80 42 93 41 148 -5 144 -5 146 13 159 9 7 17 24 17 39 0 15 6 26
14 26 8 0 17 11 20 25 8 32 17 31 49 -1 25 -25 26 -25 36 -5 15 27 14 51 -2
46 -9 -4 -12 16 -10 90 2 78 0 95 -12 95 -9 0 -16 14 -20 38 -14 85 -29 148
-39 167 -15 28 -35 105 -36 136 0 14 -4 29 -9 35 -5 5 -11 54 -14 110 -5 97
-13 153 -37 274 -6 30 -13 84 -15 120 -2 36 -11 126 -21 200 -9 74 -20 178
-24 230 -4 52 -17 127 -28 165 -36 125 -54 180 -63 197 -5 10 -9 28 -9 40 0
34 -14 50 -35 42 -16 -6 -17 -17 -12 -113 3 -58 11 -164 17 -236 12 -132 10
-186 -9 -308 -23 -141 -17 -228 35 -502 29 -156 72 -313 73 -272 2 41 50 2 51
-41 0 -13 4 -20 10 -17 6 4 10 -7 10 -27 l0 -33 -21 30 -21 30 6 -41 c3 -23
13 -54 21 -70 8 -16 15 -35 15 -41 0 -7 4 -13 8 -13 10 0 34 -83 37 -125 1
-16 5 -39 8 -50 9 -28 -32 -52 -120 -70 -190 -38 -183 -35 -183 -75 0 -19 -3
-45 -6 -57 -5 -18 -2 -23 13 -23 18 0 21 -9 27 -72 7 -79 9 -131 7 -220 -1
-51 -3 -58 -21 -58 -12 0 -21 8 -24 23 -16 84 -40 260 -50 356 -8 81 -16 116
-27 125 -9 6 -19 21 -23 32 -3 12 -18 26 -32 33 -25 11 -26 13 -9 31 15 17 16
30 6 142 -6 68 -13 133 -17 146 -4 13 -2 22 5 22 6 0 11 -15 11 -34 0 -42 9
-68 21 -60 12 7 11 99 -1 149 -6 22 -13 100 -16 173 -3 73 -9 144 -14 157 -5
12 -7 25 -4 28 3 3 -1 62 -8 132 l-12 128 -13 -64 c-6 -35 -12 -79 -12 -96 -1
-18 -6 -33 -12 -33 -7 0 -8 34 -2 113 4 61 7 193 7 292 -1 246 -31 626 -46
585 -14 -37 -31 -110 -49 -218 -11 -64 -26 -151 -33 -192 -53 -300 -106 -631
-115 -715 -13 -125 -27 -417 -23 -467 4 -43 -14 -52 -24 -13 -9 36 -18 23 -24
-38 l-6 -52 -13 30 c-10 23 -10 43 -1 87 10 55 7 286 -6 466 -5 69 -7 72 -23
58 -16 -15 -19 -14 -39 11 -12 15 -23 32 -23 38 -3 25 4 51 17 66 18 20 18 40
-1 75 -8 16 -15 47 -15 70 0 22 -4 44 -10 50 -5 5 -16 48 -24 94 -13 70 -13
87 -2 100 9 10 13 36 11 75 -1 33 3 103 11 155 9 68 10 98 2 108 -8 9 -8 20 1
38 12 28 14 661 2 704 -8 25 -8 25 -23 -11 -9 -20 -19 -51 -23 -70 -11 -47 -8
-539 4 -620 9 -66 5 -156 -9 -174 -4 -5 -13 -40 -21 -77 -7 -38 -16 -68 -20
-68 -3 0 -10 15 -14 33 -7 31 -7 31 -14 7 -6 -22 -8 -23 -14 -7 -4 11 -4 24 0
30 9 15 4 77 -8 97 -6 12 -9 9 -9 -10 -1 -14 -8 -41 -15 -60 l-13 -35 -2 30
c-1 26 -3 27 -9 10 -5 -11 -7 -33 -6 -50 1 -16 0 -20 -2 -7 -2 12 -11 22 -19
22 -12 0 -14 7 -10 27 3 16 8 55 11 88 18 168 57 435 75 505 36 140 18 180
-20 47 -30 -100 -44 -141 -51 -147 -4 -3 -9 -14 -12 -25 -4 -11 -4 -4 -2 15
15 110 18 120 34 121 9 0 11 3 5 5 -10 4 9 90 49 214 8 25 24 79 36 120 13 41
30 91 38 110 16 36 43 119 43 133 0 4 -4 7 -8 7 -9 0 -16 -19 -61 -165 -17
-55 -36 -108 -41 -117 -6 -10 -10 -27 -10 -38 0 -11 -4 -20 -9 -20 -5 0 -9 -6
-8 -12 1 -19 -26 -78 -35 -78 -4 0 -8 -7 -8 -15 0 -7 -6 -18 -14 -22 -7 -4
-19 -25 -25 -45 -7 -20 -18 -42 -26 -48 -9 -8 -12 -22 -8 -41 3 -17 1 -29 -5
-29 -6 0 -16 -25 -23 -55 -7 -30 -15 -55 -19 -55 -4 0 -19 -57 -34 -127 -16
-71 -31 -135 -36 -143 -11 -23 -18 -59 -39 -207 -15 -99 -24 -137 -39 -153
-29 -31 -46 -150 -23 -164 16 -10 20 -76 7 -114 l-14 -37 -7 27 c-4 15 -4 32
0 37 3 6 3 27 -1 48 -6 34 -8 35 -15 14 -11 -28 -25 -20 -34 19 -13 57 -28 32
-22 -37 4 -59 1 -74 -20 -110 -13 -24 -27 -43 -30 -43 -10 0 5 155 18 184 10
22 9 29 -4 44 -20 22 -22 97 -3 131 11 20 14 21 19 7 10 -25 30 -8 24 21 -3
15 1 27 10 30 11 4 10 8 -4 18 -10 7 -21 11 -25 9 -12 -8 -10 11 19 153 15 73
24 136 20 139 -4 4 -20 3 -35 -2 -20 -7 -27 -16 -27 -36 1 -22 -7 -30 -38 -44
-38 -17 -40 -17 -53 1 -19 26 -12 41 16 37 22 -4 23 -2 17 43 -4 27 -2 55 4
67 8 15 8 22 -1 28 -7 4 -9 17 -4 33 6 26 5 27 -39 27 -49 0 -71 17 -61 46 8
21 34 81 69 159 34 76 53 137 61 196 4 30 17 70 30 89 12 19 31 67 42 105 28
95 82 289 98 349 l14 49 -41 44 c-36 39 -99 152 -111 201 -3 10 -21 30 -39 44
-41 30 -158 93 -163 87 -6 -7 -26 -232 -26 -298 0 -51 -14 -141 -45 -297 -3
-11 -32 -55 -65 -96 -99 -125 -189 -155 -425 -143 -298 14 -355 20 -485 46
-118 24 -185 56 -251 122 -66 67 -95 117 -114 200 -17 75 -16 105 16 477 53
601 67 739 82 771 9 19 21 54 28 78 8 27 28 59 50 80 73 71 121 111 135 111 8
0 25 6 37 14 32 20 196 38 320 34 59 -2 107 0 107 5 0 4 -4 7 -9 7 -5 0 0 19
12 43 11 23 22 60 23 82 2 22 5 51 8 65 12 60 26 190 27 253 1 37 6 70 11 73
4 3 8 22 8 43 0 21 4 61 9 88 6 27 12 79 15 114 3 35 10 98 16 139 6 41 13
102 15 135 6 95 14 176 20 185 2 4 5 40 6 80 1 40 8 96 16 124 8 28 16 80 18
116 2 36 8 101 14 145 6 44 15 113 20 154 5 40 14 78 20 84 14 14 14 6 0 -93
-5 -41 -11 -139 -13 -218 -3 -83 -9 -149 -15 -156 -6 -8 -9 -21 -5 -30 4 -9 1
-16 -6 -16 -8 0 -10 -11 -7 -32 3 -18 2 -42 -2 -52 -4 -11 -3 -40 3 -64 7 -32
7 -47 0 -49 -8 -3 -8 -18 -3 -46 4 -23 4 -43 -1 -45 -4 -2 -6 -11 -4 -20 3 -9
-8 -93 -24 -185 -16 -92 -25 -170 -20 -173 4 -3 5 -11 1 -17 -4 -6 -8 -39 -9
-72 -2 -33 -3 -69 -3 -80 -1 -17 -3 -17 -11 -5 -5 8 -10 13 -11 10 0 -3 -2
-14 -4 -25 -1 -11 -6 -29 -11 -40 -7 -18 -6 -18 9 -6 9 7 17 9 17 3 0 -5 -7
-13 -16 -16 -11 -4 -15 -19 -14 -53 1 -49 -4 -124 -15 -250 -4 -44 -2 -73 4
-77 7 -5 7 -15 0 -33 -5 -14 -7 -34 -4 -44 4 -11 2 -19 -4 -19 -6 0 -11 -7
-11 -15 0 -19 72 -55 97 -49 18 5 90 -8 194 -34 61 -16 188 -94 225 -139 19
-23 47 -68 62 -100 22 -49 26 -72 27 -148 0 -49 -3 -127 -8 -172 -7 -83 -7
-83 16 -83 13 0 64 -25 113 -56 49 -31 94 -58 99 -61 6 -3 -20 25 -57 63 -56
57 -68 75 -68 102 0 19 5 32 13 32 17 0 119 -79 187 -144 36 -34 70 -80 91
-122 33 -65 34 -66 40 -38 4 16 7 54 8 84 0 30 10 102 21 160 31 161 90 569
90 623 0 47 -2 51 -79 127 -123 121 -130 146 -49 186 48 23 43 25 -21 8 -37
-11 -23 28 19 49 33 16 34 18 13 23 -28 8 -28 10 -3 57 l20 38 -30 32 c-33 35
-32 57 1 92 20 20 20 20 39 -5 23 -30 25 -24 5 21 -8 19 -14 30 -15 26 0 -4
-8 -3 -19 2 -10 6 -63 92 -117 192 -55 100 -114 209 -132 243 -86 158 -122
231 -122 248 0 10 -7 18 -15 18 -15 0 -19 11 -16 39 2 7 -2 10 -8 6 -7 -3 -11
2 -11 14 0 12 -5 21 -11 21 -8 0 -7 5 1 15 7 9 10 18 6 22 -3 3 -6 1 -6 -5 0
-7 -5 -12 -10 -12 -7 0 -7 6 -1 19 8 14 5 23 -14 41 -17 16 -23 30 -19 44 4
17 3 18 -5 6 -9 -12 -11 -11 -11 8 0 15 -4 21 -11 16 -7 -4 -10 -1 -7 7 7 18
-10 51 -22 44 -6 -3 -8 0 -5 7 3 7 -5 24 -16 38 -11 14 -17 19 -13 11 4 -9 3
-12 -4 -7 -6 4 -9 13 -5 21 3 8 1 15 -5 15 -5 0 -14 19 -20 43 -6 23 -19 51
-29 62 -10 11 -33 50 -51 88 -18 37 -37 65 -42 62 -6 -3 -7 1 -4 9 3 8 -10 39
-30 69 -20 30 -36 59 -36 66 0 7 -3 10 -7 8 -5 -3 -9 9 -10 26 l-3 31 25 -26
c14 -15 25 -31 25 -37 0 -5 22 -47 49 -93 64 -111 525 -921 638 -1123 85 -151
146 -268 171 -325 l11 -25 7 23 c9 30 20 28 69 -15 23 -21 59 -52 81 -69 79
-64 109 -100 128 -157 22 -64 20 -103 -15 -322 -19 -120 -23 -178 -22 -415 0
-252 1 -279 20 -323 25 -60 102 -141 160 -167 25 -11 50 -31 61 -49 9 -17 22
-31 28 -31 7 0 14 -6 17 -13 3 -8 19 -14 37 -15 17 0 42 -8 56 -16 18 -12 33
-14 62 -8 48 11 104 -9 122 -44 12 -21 21 -24 64 -24 37 0 55 5 73 22 22 21
25 21 57 5 30 -14 36 -14 46 -1 14 16 77 19 116 4 18 -7 30 -7 39 0 10 8 31 6
80 -9 38 -12 95 -21 130 -21 l63 0 7 51 c6 46 9 50 29 45 11 -3 38 -6 60 -6
35 0 38 -2 31 -22 -3 -13 -11 -41 -16 -62 -5 -21 -19 -51 -29 -67 -11 -15 -20
-32 -20 -39 0 -7 -8 -9 -20 -5 -16 5 -23 -1 -37 -32 -10 -21 -24 -43 -32 -49
-8 -6 -11 -16 -7 -22 4 -7 2 -12 -4 -12 -7 0 -9 -7 -6 -16 3 -8 -4 -34 -16
-57 -12 -23 -21 -46 -20 -50 1 -5 -2 -6 -7 -2 -6 3 -28 -11 -51 -31 -49 -45
-53 -27 -5 24 19 20 35 42 35 48 0 6 9 23 20 37 11 14 20 33 20 43 0 16 -1 16
-19 -2 -10 -10 -17 -22 -15 -26 2 -3 1 -8 -4 -10 -10 -4 -97 -128 -105 -150
-3 -9 -15 -16 -26 -15 -27 2 -27 17 -1 24 11 3 17 10 14 15 -3 5 3 16 15 24
12 8 21 19 21 24 0 17 71 126 109 167 45 49 58 83 33 83 -24 0 -61 -50 -113
-150 -42 -82 -94 -152 -88 -120 2 8 -2 24 -8 35 -11 21 -28 173 -24 213 1 12
-2 22 -7 22 -5 0 -12 -30 -15 -67 -14 -161 -20 -193 -38 -212 -29 -31 -24 -51
14 -52 17 -1 24 -3 15 -6 -23 -6 -24 -57 -3 -97 14 -27 23 -65 24 -108 1 -25
31 -22 71 7 47 35 61 31 16 -4 -20 -16 -50 -32 -65 -36 -26 -5 -30 -12 -41
-68 -7 -34 -18 -68 -23 -75 -10 -12 -79 -52 -91 -52 -3 0 -8 17 -11 38 -31
195 -50 214 -50 49 l0 -106 -48 -31 c-47 -30 -48 -32 -42 -68 3 -20 6 -45 6
-55 0 -12 10 -20 29 -24 22 -4 35 -16 51 -49 22 -47 29 -55 23 -26 -2 9 -5 33
-8 52 -2 19 -7 43 -11 53 -5 11 -3 17 6 17 9 1 5 9 -10 21 l-24 19 23 20 c34
30 112 41 242 35 75 -4 119 -2 123 5 3 5 15 10 26 10 11 0 22 7 25 15 8 20 76
38 86 23 4 -7 10 -10 13 -6 9 9 -17 47 -35 51 -8 2 28 3 80 1 79 -3 91 -1 71
9 -27 14 -29 30 -5 33 25 4 30 15 12 28 -14 11 -13 13 12 25 18 7 27 18 24 26
-7 17 41 49 61 41 9 -3 13 -2 10 4 -7 12 18 25 85 41 30 7 64 19 74 26 18 12
18 13 2 19 -10 4 -21 2 -25 -3 -3 -6 -18 -12 -33 -15 -26 -5 -26 -4 -11 19 8
12 21 23 29 23 21 0 119 47 134 65 7 8 27 15 45 15 52 0 65 9 65 44 0 24 7 35
30 48 30 17 40 12 18 -10 -7 -7 -10 -12 -7 -12 3 0 35 37 70 83 68 85 167 252
207 347 66 155 72 180 71 295 -1 61 4 123 10 138 6 16 12 56 12 90 1 50 3 56
9 32 8 -33 8 -32 16 40 8 68 6 99 -6 103 -6 2 -10 13 -10 23 0 11 5 17 10 14
6 -3 10 -1 10 5 0 7 -8 9 -20 5 -16 -5 -20 -2 -20 18 0 14 -5 27 -12 29 -7 3
-9 12 -5 22 6 15 10 16 22 6 8 -7 13 -15 11 -19 -7 -10 12 -36 20 -29 4 4 8
23 11 42 3 31 1 35 -23 38 -32 4 -36 21 -18 74 17 48 17 64 3 64 -14 0 -38 30
-39 46 0 6 13 14 30 17 16 4 37 18 46 32 14 21 14 30 4 55 -13 32 -9 47 9 35
6 -3 11 -16 11 -29 0 -34 20 -86 33 -86 7 0 6 -4 -2 -9 -24 -15 -8 -121 18
-121 6 0 17 -13 26 -30 9 -16 12 -30 8 -30 -4 0 8 -13 27 -30 l35 -30 -24 -19
c-25 -19 -25 -19 -51 8 -31 31 -44 61 -27 61 12 1 -21 30 -34 30 -4 0 -5 -25
-3 -55 2 -38 -1 -54 -9 -52 -9 1 -12 -48 -12 -193 -1 -107 1 -222 4 -255 l5
-60 7 60 c4 33 5 94 3 135 -3 65 -2 69 6 30 5 -25 9 -70 11 -100 1 -30 4 -45
6 -32 4 20 23 32 23 15 0 -5 29 -6 66 -5 60 3 66 6 75 30 6 16 8 55 4 95 -8
73 -26 103 -23 38 1 -23 -2 -44 -5 -47 -4 -4 -5 67 -4 156 1 123 -1 164 -10
167 -7 3 -13 11 -13 19 0 8 -4 14 -10 14 -19 0 -10 19 12 26 14 4 25 1 33 -10
7 -8 15 -13 19 -9 4 4 4 0 1 -9 -10 -25 15 -33 31 -9 9 12 19 19 24 16 20 -13
11 148 -10 169 -5 5 -6 21 -3 36 4 22 -4 40 -36 82 -23 30 -41 58 -41 61 0 12
77 -78 104 -120 14 -24 30 -43 35 -43 15 0 42 -81 57 -170 17 -103 16 -100 4
-100 -5 0 -10 7 -10 15 0 8 -5 15 -11 15 -5 0 -7 5 -4 10 9 14 -5 100 -17 100
-5 0 -8 -12 -6 -27 2 -17 -2 -27 -9 -26 -8 2 -7 -13 3 -50 16 -62 16 -57 5
-57 -5 0 -14 14 -20 31 -6 17 -15 28 -20 25 -10 -6 -3 -46 8 -46 4 0 7 -8 8
-17 1 -23 13 -100 20 -133 9 -41 6 -130 -6 -144 -6 -7 -8 -15 -5 -18 6 -7 -40
-58 -53 -58 -5 0 -15 -21 -21 -47 -7 -26 -20 -63 -30 -82 -11 -24 -13 -36 -5
-38 7 -3 10 -10 8 -16 -3 -7 -7 -109 -10 -227 -4 -118 -7 -241 -9 -273 -1 -32
2 -63 6 -70 4 -7 8 -8 8 -3 0 5 7 3 15 -4 8 -7 15 -9 16 -4 1 13 17 -38 18
-58 1 -10 -6 -18 -14 -18 -8 0 -15 -6 -16 -12 0 -7 -5 -2 -11 12 -9 21 -12 22
-15 7 -3 -10 0 -32 6 -49 14 -40 14 -48 -3 -48 -18 0 -31 -104 -16 -128 9 -13
10 -8 6 23 l-5 40 14 -35 c17 -43 19 -90 4 -90 -7 0 -9 9 -6 21 3 12 3 18 0
15 -4 -3 -13 0 -21 7 -13 10 -14 7 -8 -28 5 -22 10 -52 12 -68 2 -15 6 -31 9
-36 3 -5 1 -20 -4 -34 -6 -16 -6 -28 2 -36 8 -8 7 -11 -6 -11 -19 0 -20 -6 -8
-69 5 -25 5 -54 1 -65 -8 -20 -9 -20 -11 4 -1 15 -3 19 -6 9 -2 -9 5 -33 17
-54 16 -29 21 -52 19 -99 -2 -48 4 -82 30 -156 19 -52 38 -100 43 -107 6 -7 3
-29 -7 -60 -17 -51 -14 -97 11 -144 7 -15 16 -49 18 -75 3 -27 11 -67 17 -89
6 -22 13 -53 15 -70 4 -26 3 -27 -6 -10 -9 17 -9 15 -4 -10 15 -75 8 -156 -9
-112 -3 6 -6 1 -6 -12 -1 -19 -4 -21 -16 -11 -18 15 -36 4 -28 -17 4 -11 2
-14 -5 -9 -6 4 -14 21 -17 39 -7 33 -41 84 -51 74 -3 -3 2 -19 10 -36 19 -35
20 -85 5 -145 -10 -42 -9 -46 25 -97 46 -70 73 -151 86 -258 6 -48 21 -110 35
-141 44 -101 78 -297 79 -462 l1 -148 65 0 c36 0 135 4 220 10 126 8 316 16
468 19 22 1 22 3 22 140 l0 138 -46 7 c-26 3 -104 6 -174 6 -99 0 -130 3 -139
14 -17 20 -2 46 46 84 32 24 51 30 118 37 124 11 148 13 173 14 l22 1 0 3630
0 3630 -3190 0 -3190 0 0 -2229z m217 821 c9 -6 4 -17 -17 -40 -25 -27 -33
-31 -49 -22 -36 19 -35 36 4 58 24 13 45 15 62 4z m1423 -102 c0 -5 -4 -10
-10 -10 -5 0 -10 5 -10 10 0 6 5 10 10 10 6 0 10 -4 10 -10z m3490 -1514 c0
-3 -4 -8 -10 -11 -5 -3 -10 -1 -10 4 0 6 5 11 10 11 6 0 10 -2 10 -4z m55 -29
c5 -1 18 -14 27 -29 12 -19 23 -26 39 -23 17 4 20 2 11 -7 -15 -15 -16 -52 -2
-43 6 3 10 -4 10 -18 0 -29 25 -55 33 -35 3 7 6 3 6 -10 1 -15 5 -21 13 -16 6
4 8 3 4 -4 -3 -6 -2 -13 4 -17 5 -3 10 -11 10 -16 0 -5 -10 -3 -22 5 -13 7
-34 16 -48 20 -18 4 -35 24 -58 66 -18 33 -46 76 -63 94 -29 34 -24 51 11 39
8 -2 19 -5 25 -6z m105 -77 c0 -5 -2 -10 -4 -10 -3 0 -8 5 -11 10 -3 6 -1 10
4 10 6 0 11 -4 11 -10z m-257 -37 c-3 -7 2 -13 12 -13 9 0 14 -4 11 -8 -3 -4
-22 -6 -43 -3 -21 3 -31 6 -22 8 11 3 15 11 11 29 -4 24 -3 25 16 13 11 -7 18
-19 15 -26z m177 -53 c0 -5 -2 -10 -4 -10 -3 0 -8 5 -11 10 -3 6 -1 10 4 10 6
0 11 -4 11 -10z m-4980 -116 c0 -34 -13 -44 -56 -44 -27 0 -28 1 -13 53 7 27
15 37 24 33 8 -3 17 0 21 6 10 16 24 -12 24 -48z m5075 -76 c34 -41 100 -167
92 -175 -3 -2 -19 13 -38 34 -18 21 -37 37 -42 35 -5 -1 -6 1 -3 6 2 4 -10 24
-28 44 -35 38 -53 98 -30 98 7 0 29 -19 49 -42z m-51 -67 c16 -17 16 -19 -2
-23 -16 -4 -19 -1 -18 18 1 29 -1 28 20 5z m-173 -232 c-5 -26 -9 -34 -10 -19
-1 27 9 73 15 67 2 -2 0 -23 -5 -48z m-881 -114 c19 2 38 4 42 4 3 1 9 9 11
19 3 9 5 4 6 -13 1 -24 3 -27 12 -15 9 13 10 13 6 -2 -3 -9 -1 -19 6 -21 9 -3
9 -8 0 -18 -11 -11 -13 -10 -13 4 0 20 -40 23 -71 6 -18 -9 -19 -17 -14 -52 8
-46 21 -59 49 -51 11 4 16 2 12 -4 -6 -10 108 -27 123 -18 4 3 23 -10 41 -29
59 -61 52 -185 -12 -185 -10 0 -18 -7 -18 -15 0 -8 5 -15 11 -15 22 0 -12 -29
-42 -35 -16 -4 -29 -11 -29 -16 0 -6 -9 -7 -20 -4 -15 5 -22 0 -29 -18 -5 -13
-16 -27 -25 -30 -9 -4 -13 -12 -11 -20 6 -15 -60 -51 -76 -42 -5 4 -9 1 -9 -4
0 -6 -20 -11 -44 -11 -26 0 -46 -5 -48 -12 -3 -9 -16 -8 -50 5 -58 23 -73 54
-62 129 5 29 7 63 6 76 -4 31 7 27 19 -7 11 -30 38 -46 100 -56 69 -12 63 43
-7 76 -24 12 -44 25 -44 29 0 4 -15 15 -34 24 -30 14 -36 23 -42 62 -3 25 -4
72 -1 103 6 65 45 164 60 154 6 -3 7 -1 3 5 -4 7 -1 18 6 26 11 12 15 12 30
-1 15 -14 19 -14 33 0 8 9 15 24 15 34 0 13 10 7 38 -24 33 -35 43 -41 72 -38z
m730 -327 c0 -49 -128 -161 -190 -169 -46 -5 -53 0 -46 33 9 46 20 53 60 41
43 -13 72 4 84 49 4 18 13 33 20 36 16 5 15 -17 -3 -52 -21 -40 -19 -43 10
-16 13 12 29 38 35 56 11 33 30 47 30 22z m-333 -120 c-3 -8 -6 -5 -6 6 -1 11
2 17 5 13 3 -3 4 -12 1 -19z m-188 -12 c10 -11 8 -16 -8 -21 -10 -3 -32 -3
-47 1 -26 7 -26 8 -9 20 24 18 49 18 64 0z m41 -17 c0 -6 -4 -7 -10 -4 -5 3
-10 11 -10 16 0 6 5 7 10 4 6 -3 10 -11 10 -16z m-177 -217 c9 -21 17 -44 17
-51 0 -8 7 -11 15 -7 9 3 23 -3 32 -14 19 -22 58 -27 67 -7 4 6 4 -4 1 -23 -3
-19 -12 -38 -20 -43 -8 -4 -15 -17 -15 -28 0 -11 -12 -36 -26 -55 -22 -28 -24
-37 -14 -49 10 -12 10 -15 -1 -15 -8 0 -22 -12 -33 -26 l-18 -25 23 13 c13 7
28 16 33 21 62 44 106 66 106 53 0 -8 -61 -95 -71 -101 -5 -4 -9 -16 -9 -28 0
-12 -9 -35 -19 -52 -37 -59 -200 -214 -254 -241 l-30 -16 7 47 c4 34 17 61 41
91 20 24 42 62 50 85 9 23 21 49 27 57 7 7 20 44 30 80 17 65 18 66 12 17 -2
-27 -7 -62 -10 -77 -4 -22 -2 -27 9 -22 20 7 41 59 30 76 -9 14 -12 378 -2
378 3 0 13 -17 22 -38z m-3796 -136 c-10 -8 -15 -20 -11 -29 3 -10 -2 -18 -16
-22 -24 -8 -25 -7 -34 20 -6 22 21 42 59 43 19 1 19 1 2 -12z m4920 -183 c-3
-10 -5 -4 -5 12 0 17 2 24 5 18 2 -7 2 -21 0 -30z m-1004 -58 c-3 -9 -8 -14
-10 -11 -3 3 -2 9 2 15 9 16 15 13 8 -4z m267 -66 c0 -6 -4 -7 -10 -4 -5 3
-10 11 -10 16 0 6 5 7 10 4 6 -3 10 -11 10 -16z m-676 -134 c-4 -8 -8 -15 -10
-15 -2 0 -4 7 -4 15 0 8 4 15 10 15 5 0 7 -7 4 -15z m1426 -309 c0 -18 -17 8
-24 34 l-7 25 15 -25 c9 -14 15 -29 16 -34z m-3200 -11 c0 -8 -9 -19 -20 -25
-18 -9 -18 -8 -9 20 11 29 29 32 29 5z m3170 -16 c0 -6 -4 -7 -10 -4 -5 3 -10
11 -10 16 0 6 5 7 10 4 6 -3 10 -11 10 -16z m-1776 -34 c-4 -8 -11 -15 -16
-15 -6 0 -5 6 2 15 7 8 14 15 16 15 2 0 1 -7 -2 -15z m-1498 -560 c1 -14 -2
-22 -7 -19 -11 6 -12 44 -1 44 4 0 8 -11 8 -25z m3384 15 c0 -5 -4 -10 -10
-10 -5 0 -10 5 -10 10 0 6 5 10 10 10 6 0 10 -4 10 -10z m-3340 -85 c0 -8 -2
-15 -4 -15 -2 0 -6 7 -10 15 -3 8 -1 15 4 15 6 0 10 -7 10 -15z m7 -147 c-3
-8 -6 -5 -6 6 -1 11 2 17 5 13 3 -3 4 -12 1 -19z m206 -600 c-5 -89 -14 -147
-20 -130 -3 6 -12 12 -20 12 -14 0 -14 2 0 24 9 12 18 41 22 62 3 21 8 54 11
72 8 54 12 36 7 -40z m947 2 c0 -11 -4 -20 -9 -20 -14 0 -23 18 -16 30 10 17
25 11 25 -10z m-373 -102 c-2 -13 -4 -5 -4 17 -1 22 1 32 4 23 2 -10 2 -28 0
-40z m750 -250 c-3 -7 -5 -2 -5 12 0 14 2 19 5 13 2 -7 2 -19 0 -25z m663 -52
c0 -5 -7 -1 -15 10 -8 10 -14 24 -14 29 0 6 6 1 14 -9 8 -11 15 -24 15 -30z
m-566 -105 c3 -5 -1 -11 -9 -14 -9 -4 -12 -1 -8 9 6 16 10 17 17 5z m523 -228
c-3 -10 -5 -2 -5 17 0 19 2 27 5 18 2 -10 2 -26 0 -35z m-1270 -55 c-2 -18 -4
-6 -4 27 0 33 2 48 4 33 2 -15 2 -42 0 -60z m1319 -48 c10 0 14 -13 14 -50 0
-27 6 -61 12 -76 l13 -27 6 24 c7 23 7 23 8 -3 1 -16 -3 -28 -9 -28 -5 0 -10
-8 -10 -18 0 -10 -7 -19 -15 -19 -17 0 -16 -2 -19 56 -1 27 -8 48 -19 56 -12
8 -17 26 -17 57 0 45 12 74 18 44 2 -9 10 -16 18 -16z m-718 -56 c-9 -9 -21
-13 -27 -10 -20 13 -11 26 16 26 25 0 26 -1 11 -16z m-29 -23 c7 -5 10 -14 7
-20 -11 -17 -24 -13 -36 9 -12 22 3 27 29 11z m-2770 -100 c7 -5 10 -14 7 -20
-10 -16 -56 -14 -56 2 0 26 23 35 49 18z m413 -22 c16 -6 28 -18 28 -25 0 -8
5 -14 10 -14 13 0 13 -23 -2 -55 -15 -34 -49 -31 -100 8 -31 23 -38 35 -38 62
0 18 6 36 13 38 16 7 55 0 89 -14z m-12 -156 c19 -9 46 -16 62 -16 15 0 28 -5
28 -11 0 -11 -13 -18 -86 -45 -35 -14 -67 -5 -102 29 -50 48 23 81 98 43z
m193 3 c23 -18 22 -23 -9 -30 -30 -8 -55 9 -47 30 6 17 32 18 56 0z m2173
-206 c16 0 17 -2 4 -10 -12 -7 -13 -13 -4 -27 14 -22 -4 -43 -36 -43 -16 0
-20 6 -20 33 0 17 3 43 7 56 5 21 7 22 18 7 7 -9 21 -16 31 -16z m104 -82 c0
-7 -7 -21 -14 -31 -14 -18 -14 -17 -21 2 -3 12 -3 25 0 31 9 14 35 12 35 -2z
m-47 -63 c4 -8 2 -17 -3 -20 -6 -4 -10 3 -10 14 0 25 6 27 13 6z m594 -277
c-3 -8 -6 -5 -6 6 -1 11 2 17 5 13 3 -3 4 -12 1 -19z m-723 -97 c-4 -3 -9 0
-11 7 -3 7 -12 20 -21 28 -15 15 -14 18 6 34 12 10 23 24 24 32 1 7 3 -11 5
-41 2 -29 1 -56 -3 -60z m1350 37 c3 -13 6 -33 6 -45 0 -12 8 -28 18 -35 9 -7
19 -29 20 -48 2 -19 7 -39 12 -45 11 -15 61 -197 55 -203 -6 -6 -89 171 -99
211 -4 19 -12 27 -20 24 -16 -6 -26 33 -26 99 0 39 -2 43 -21 41 -12 -1 -24 4
-26 11 -3 8 8 12 35 12 33 0 41 -4 46 -22z m-630 0 c-3 -4 -11 -5 -19 -1 -21
7 -19 12 4 10 11 0 18 -5 15 -9z m526 -2 c0 -3 -4 -8 -10 -11 -5 -3 -10 -1
-10 4 0 6 5 11 10 11 6 0 10 -2 10 -4z m-1350 -91 c7 -8 10 -22 6 -30 -3 -8
-1 -15 4 -15 6 0 10 6 10 14 0 8 5 18 10 21 7 4 9 -12 6 -49 -5 -54 7 -85 21
-50 5 14 8 13 19 -7 7 -13 10 -28 7 -33 -4 -5 -1 -6 5 -2 6 3 28 -11 49 -31
21 -21 55 -47 76 -57 20 -11 38 -26 38 -35 1 -9 2 -29 3 -46 1 -26 5 -31 31
-33 30 -4 30 -4 11 17 -18 20 -19 23 -3 38 11 11 17 13 17 5 0 -7 7 -12 16
-12 8 0 13 -4 10 -9 -3 -5 2 -12 11 -15 14 -6 9 -12 -23 -34 -42 -28 -51 -65
-13 -55 10 3 19 9 19 13 0 5 14 11 30 14 17 3 43 8 58 11 23 5 30 1 40 -20 7
-14 12 -35 12 -46 0 -15 -5 -18 -24 -13 -19 4 -26 1 -31 -15 -3 -12 -15 -21
-25 -21 -11 0 -23 -7 -27 -15 -5 -8 -20 -16 -33 -18 -28 -4 -28 -17 -1 -32 41
-22 98 -115 72 -115 -6 0 -11 3 -11 8 -1 14 -70 83 -79 78 -5 -3 -14 0 -20 7
-6 8 -29 20 -51 27 -47 15 -49 23 -15 46 19 12 25 24 24 48 -1 17 2 39 6 50 8
17 7 17 -24 1 -24 -12 -31 -21 -26 -33 19 -46 18 -54 -6 -50 -16 2 -24 9 -23
21 2 14 -6 17 -40 17 -22 0 -54 -7 -69 -15 -41 -21 -93 -17 -105 9 -6 12 -17
30 -26 41 -74 94 -118 182 -142 289 -7 32 -18 62 -24 66 -6 4 16 10 49 13 33
3 73 13 88 24 73 48 76 49 93 28z m418 -80 c-3 -3 -9 2 -12 12 -6 14 -5 15 5
6 7 -7 10 -15 7 -18z m960 -57 c6 -23 8 -46 6 -50 -7 -12 -34 11 -34 27 0 8
-4 15 -9 17 -11 4 5 48 17 48 5 0 14 -19 20 -42z m-1836 4 c3 -11 0 -19 -7
-19 -7 0 -10 8 -7 19 2 10 6 18 7 18 1 0 5 -8 7 -18z m-419 -27 c4 -8 2 -17
-3 -20 -6 -4 -10 3 -10 14 0 25 6 27 13 6z m463 -56 c-4 -20 1 -31 22 -48 15
-12 32 -36 38 -54 7 -20 18 -31 28 -31 10 1 16 -6 16 -17 0 -10 -5 -19 -10
-19 -11 0 6 -34 29 -59 10 -11 11 -16 2 -19 -7 -2 -19 5 -27 17 -8 12 -22 21
-30 21 -8 0 -14 9 -14 20 0 11 -4 20 -10 20 -5 0 -10 9 -10 20 0 11 -5 20 -11
20 -7 0 -8 11 -4 30 4 19 3 30 -4 30 -6 0 -11 -4 -11 -10 0 -24 -29 -7 -34 20
-19 95 -19 88 9 86 23 -1 26 -5 21 -27z m210 -157 c8 -5 6 -17 -7 -42 l-19
-35 0 43 c0 42 5 48 26 34z m1897 -134 c27 -47 33 -68 20 -68 -19 2 -113 169
-113 201 0 13 51 -61 93 -133z m-2983 93 c0 -12 -20 -25 -27 -18 -7 7 6 27 18
27 5 0 9 -4 9 -9z m1143 -72 c8 -32 -5 -60 -23 -49 -12 8 -12 10 3 16 23 8 22
24 -2 24 -21 0 -34 13 -24 24 14 13 41 5 46 -15z m727 10 c0 -7 -7 -17 -17
-24 -10 -7 -16 -25 -15 -46 1 -38 -12 -59 -38 -59 -22 0 -27 12 -22 56 3 25 9
34 23 34 10 0 19 6 19 13 0 17 20 37 37 37 7 0 13 -5 13 -11z m-660 -70 c0 -5
5 -7 10 -4 6 3 10 -4 10 -16 0 -18 2 -19 15 -9 13 11 15 8 15 -14 0 -16 5 -26
15 -26 8 0 15 -7 15 -15 0 -8 -4 -15 -10 -15 -5 0 -10 5 -10 10 0 6 -8 10 -19
10 -11 0 -21 9 -24 22 -5 17 -9 19 -20 9 -12 -9 -16 -7 -21 11 -5 14 -9 18
-13 11 -8 -22 -23 -14 -23 12 0 21 5 25 30 25 17 0 30 -5 30 -11z m120 -105
c0 -2 -7 -4 -15 -4 -8 0 -15 4 -15 10 0 5 7 7 15 4 8 -4 15 -8 15 -10z m-2793
-26 c-3 -8 -6 -5 -6 6 -1 11 2 17 5 13 3 -3 4 -12 1 -19z m821 -27 c6 0 12 -5
12 -10 0 -5 -20 -5 -47 0 -80 15 -61 21 35 10z m-138 -5 c0 -11 -19 -15 -25
-6 -3 5 1 10 9 10 9 0 16 -2 16 -4z m-40 -15 c0 -5 -5 -11 -11 -13 -7 -2 -4
-10 7 -18 11 -9 15 -10 10 -2 -5 9 3 12 29 12 22 0 34 -4 30 -10 -4 -6 -14 -9
-23 -8 -12 2 -16 -3 -15 -19 1 -11 -4 -26 -11 -32 -14 -12 -113 -18 -123 -7
-3 3 3 6 15 6 12 0 22 4 22 10 0 5 12 13 26 16 25 6 25 8 8 18 -11 5 -25 11
-32 12 -36 6 -27 25 12 28 14 0 26 4 26 9 0 4 7 7 15 7 8 0 15 -4 15 -9z
m-940 -11 c0 -5 -10 -10 -22 -11 -13 0 -31 -2 -40 -4 -10 -2 -18 1 -18 5 0 8
19 13 68 19 6 0 12 -3 12 -9z m96 -6 c58 -17 74 -30 23 -20 -17 3 -40 1 -52
-5 -17 -9 -23 -8 -34 7 -28 38 -17 41 63 18z m574 6 c19 -5 65 -11 102 -12 38
-1 68 -6 68 -11 0 -5 -7 -7 -15 -3 -8 3 -15 1 -15 -3 0 -5 -13 -14 -30 -20
-16 -5 -30 -15 -30 -20 0 -6 -12 -11 -26 -11 -14 0 -23 4 -19 10 9 15 -4 12
-21 -5 -19 -19 -10 -35 21 -35 13 0 27 -4 30 -10 4 -6 -15 -10 -49 -10 -31 0
-56 -4 -56 -10 0 -5 -13 -10 -30 -10 -16 0 -30 4 -30 10 0 5 8 7 18 3 9 -3 14
-3 10 1 -3 4 -28 13 -55 20 -62 16 -65 40 -5 44 29 2 42 0 37 -7 -3 -6 -4 -11
-1 -11 2 0 11 -3 20 -6 9 -3 16 -2 16 4 0 5 -20 19 -44 31 -35 16 -55 19 -97
14 -43 -5 -51 -4 -45 8 4 8 1 6 -7 -3 -16 -20 -27 -14 -27 16 0 17 2 18 10 6
5 -8 10 -10 10 -5 0 12 170 12 190 0 9 -6 11 -4 5 5 -4 7 -2 16 6 21 18 11 17
11 59 -1z m-753 -25 c8 -9 14 -17 12 -19 -8 -7 -49 14 -49 24 0 15 19 12 37
-5z m1241 3 c44 -13 41 -35 -5 -41 -31 -4 -42 0 -58 18 -11 12 -27 25 -35 28
-27 10 64 5 98 -5z m-962 -12 c10 -8 16 -18 12 -21 -4 -4 -3 -16 3 -26 8 -15
22 -19 72 -20 42 -1 53 -3 34 -8 l-28 -6 45 -25 c25 -13 46 -28 46 -33 0 -4
-3 -6 -7 -4 -62 32 -86 38 -94 26 -7 -11 -9 -10 -9 4 0 12 -8 17 -30 17 -18 0
-33 6 -36 15 -4 8 -10 15 -15 15 -6 0 -5 -8 0 -19 9 -16 6 -20 -16 -24 -35 -6
-73 8 -73 28 0 8 -6 15 -12 15 -10 0 -10 2 0 9 8 4 13 11 12 15 -1 4 1 12 3
19 3 6 6 0 6 -15 1 -16 3 -28 5 -28 2 0 13 -3 23 -6 16 -6 15 -5 -2 9 -11 8
-17 19 -12 23 4 4 7 2 7 -4 0 -7 5 -12 11 -12 6 0 9 7 5 15 -3 8 -1 15 4 15 6
0 10 9 10 20 0 24 9 25 36 6z m74 4 c0 -5 -11 -10 -25 -10 -14 0 -25 5 -25 10
0 6 11 10 25 10 14 0 25 -4 25 -10z m63 -7 c-7 -2 -19 -2 -25 0 -7 3 -2 5 12
5 14 0 19 -2 13 -5z m-316 -23 c14 -11 29 -17 33 -15 5 3 11 1 15 -5 4 -6 -5
-10 -19 -10 -14 0 -26 -4 -26 -10 0 -5 -7 -7 -16 -3 -13 5 -13 7 -2 14 7 5 9
9 5 9 -4 0 -18 -7 -30 -15 -19 -12 -41 -14 -89 -6 -13 2 -9 19 8 36 12 12 19
13 30 4 13 -10 18 -6 15 14 -2 15 52 6 76 -13z m353 5 c10 -12 10 -15 -4 -15
-9 0 -16 7 -16 15 0 8 2 15 4 15 2 0 9 -7 16 -15z m90 -21 c0 -2 -7 -4 -15 -4
-8 0 -15 4 -15 10 0 5 7 7 15 4 8 -4 15 -8 15 -10z m-790 -24 c0 -5 -2 -10 -4
-10 -3 0 -8 5 -11 10 -3 6 -1 10 4 10 6 0 11 -4 11 -10z m110 -15 l25 -14 -31
-1 c-17 0 -37 7 -44 15 -10 12 -9 15 6 15 11 -1 30 -7 44 -15z m665 -5 c46
-20 59 -47 26 -58 -10 -3 -12 0 -8 12 5 13 2 17 -11 15 -25 -4 -72 10 -72 21
0 6 -7 10 -15 10 -8 0 -15 5 -15 10 0 16 45 11 95 -10z m-780 -20 c3 -5 2 -10
-4 -10 -5 0 -13 5 -16 10 -3 6 -2 10 4 10 5 0 13 -4 16 -10z m310 -14 c28 -8
43 -15 36 -15 -12 -1 -12 -4 -3 -13 20 -20 14 -28 -23 -28 -32 0 -40 7 -36 33
0 4 -4 7 -10 7 -6 0 -17 7 -25 15 -8 8 -21 12 -29 9 -7 -3 -22 -1 -32 6 -24
15 52 6 122 -14z m572 17 c-13 -3 -16 -10 -11 -26 7 -22 7 -22 -15 -2 -21 18
-21 20 -4 26 10 4 25 7 33 7 10 0 9 -2 -3 -5z m-424 -42 c10 -10 -1 -16 -25
-12 -5 0 -8 -5 -8 -12 0 -8 -3 -8 -9 2 -8 12 -12 12 -25 2 -12 -10 -16 -9 -24
6 -16 31 -5 41 39 33 22 -4 46 -13 52 -19z m181 14 c3 -8 1 -15 -4 -15 -6 0
-10 7 -10 15 0 8 2 15 4 15 2 0 6 -7 10 -15z m-78 -27 c4 -6 -2 -7 -17 -3 -35
10 -45 23 -15 18 15 -3 29 -10 32 -15z m-478 -8 c23 -7 42 -19 42 -26 0 -7 13
-15 30 -19 28 -6 47 -21 38 -30 -2 -2 -16 2 -31 10 -15 8 -35 11 -44 8 -11 -4
-14 -3 -9 5 4 7 2 12 -3 12 -6 0 -10 6 -9 13 2 8 -12 12 -43 13 -48 1 -69 9
-69 25 0 11 41 7 98 -11z"/>
<path d="M4059 6105 c-1 -5 -1 -13 0 -17 0 -5 -3 -8 -9 -8 -5 0 -10 5 -10 10
0 18 -32 11 -51 -11 -18 -21 -18 -22 18 -60 21 -22 43 -39 51 -39 10 0 13 -9
10 -30 -5 -33 5 -40 17 -12 10 21 6 73 -6 88 -4 5 -6 20 -3 31 3 12 1 30 -5
40 -6 10 -11 14 -12 8z"/>
<path d="M3990 5965 c7 -9 15 -13 17 -11 7 7 -7 26 -19 26 -6 0 -6 -6 2 -15z"/>
<path d="M4330 5366 c0 -2 7 -6 15 -10 8 -3 15 -1 15 4 0 6 -7 10 -15 10 -8 0
-15 -2 -15 -4z"/>
<path d="M4302 5220 c0 -14 2 -19 5 -12 2 6 2 18 0 25 -3 6 -5 1 -5 -13z"/>
<path d="M1010 430 c0 -5 5 -10 11 -10 5 0 7 5 4 10 -3 6 -8 10 -11 10 -2 0
-4 -4 -4 -10z"/>
<path d="M1483 415 c0 -9 7 -15 16 -13 19 4 18 22 -2 26 -7 2 -14 -4 -14 -13z"/>
<path d="M2640 7080 c0 -20 39 -84 47 -76 3 3 21 -8 40 -25 20 -17 37 -28 40
-25 7 7 -12 25 -59 56 -21 14 -44 39 -53 55 -8 17 -15 23 -15 15z"/>
<path d="M2710 6880 c8 -5 20 -10 25 -10 6 0 3 5 -5 10 -8 5 -19 10 -25 10 -5
0 -3 -5 5 -10z"/>
<path d="M2770 6861 c0 -12 41 -63 47 -57 6 6 -29 66 -39 66 -4 0 -8 -4 -8 -9z"/>
<path d="M2701 6783 c17 -22 31 -33 43 -33 5 0 -1 11 -14 25 -27 28 -50 34
-29 8z"/>
<path d="M5234 6405 c11 -8 25 -15 30 -15 6 0 2 7 -8 15 -11 8 -25 15 -30 15
-6 0 -2 -7 8 -15z"/>
<path d="M5222 5810 c0 -19 2 -27 5 -17 2 9 2 25 0 35 -3 9 -5 1 -5 -18z"/>
<path d="M2071 5817 c0 -7 35 -29 77 -50 88 -44 78 -26 -15 27 -35 19 -63 30
-62 23z"/>
<path d="M5280 5706 c-6 -20 -8 -41 -3 -48 5 -8 10 4 14 32 8 56 4 62 -11 16z"/>
<path d="M2066 5698 c-3 -7 -7 -38 -10 -69 l-6 -56 38 -6 c33 -4 125 -40 175
-68 31 -17 31 17 -2 64 -36 53 -88 100 -141 127 -46 23 -49 24 -54 8z"/>
<path d="M5105 5511 c-16 -48 -14 -71 5 -71 9 0 26 108 17 116 -3 3 -12 -17
-22 -45z"/>
<path d="M3235 5429 c3 -20 14 -53 24 -75 21 -45 41 -130 41 -178 0 -29 13
-46 35 -46 11 0 14 81 4 124 -18 79 -31 108 -65 146 -17 19 -34 42 -38 50 -3
8 -4 -1 -1 -21z"/>
<path d="M3150 5379 c0 -47 4 -70 15 -79 13 -11 15 -6 15 38 0 27 -7 63 -15
78 -15 28 -15 28 -15 -37z"/>
<path d="M3596 5408 c-22 -73 -30 -125 -31 -190 0 -67 3 -79 24 -102 22 -24
25 -24 37 -8 14 18 20 264 8 296 -7 19 -33 21 -38 4z"/>
<path d="M3696 5374 c-4 -9 -4 -19 -1 -22 2 -3 7 3 11 12 4 9 4 19 1 22 -2 3
-7 -3 -11 -12z"/>
<path d="M5253 5234 c6 -90 12 -111 19 -72 4 21 4 46 -1 131 0 15 -6 27 -12
27 -8 0 -10 -25 -6 -86z"/>
<path d="M3176 5103 c2 -92 6 -169 9 -171 14 -15 20 21 19 126 0 126 -10 212
-24 212 -5 0 -7 -75 -4 -167z"/>
<path d="M4977 5235 c-19 -40 -22 -59 -7 -50 6 4 8 10 5 15 -3 4 1 10 9 13 10
4 21 57 12 57 -1 0 -10 -16 -19 -35z"/>
<path d="M5046 5235 c-15 -14 -26 -33 -24 -42 2 -12 11 -4 31 25 32 49 30 52
-7 17z"/>
<path d="M4972 5176 c-12 -16 -22 -34 -22 -40 0 -6 5 -4 10 4 5 8 10 11 10 7
0 -5 7 -1 16 7 8 9 14 24 12 33 -3 14 -7 12 -26 -11z"/>
<path d="M4937 5173 c-4 -3 -7 -11 -7 -17 0 -6 5 -5 12 2 6 6 9 14 7 17 -3 3
-9 2 -12 -2z"/>
<path d="M5060 5165 c0 -17 -2 -18 -11 -5 -8 12 -9 11 -5 -5 3 -11 7 -38 10
-60 5 -38 5 -38 -6 -12 -7 15 -15 27 -20 27 -17 0 -7 -62 13 -83 11 -12 20
-17 19 -12 -6 30 3 36 15 10 14 -28 15 -25 11 54 -2 46 -9 88 -15 94 -8 8 -11
6 -11 -8z m7 -47 c-3 -8 -6 -5 -6 6 -1 11 2 17 5 13 3 -3 4 -12 1 -19z"/>
<path d="M5105 5091 c-5 -58 -3 -96 4 -108 8 -14 10 8 11 90 0 59 -2 107 -4
107 -2 0 -7 -40 -11 -89z"/>
<path d="M4986 5127 c-17 -12 -17 -14 2 -37 l20 -25 0 38 c0 20 -1 37 -2 37
-1 0 -10 -6 -20 -13z"/>
<path d="M4895 5109 c-11 -17 1 -21 15 -4 8 9 8 15 2 15 -6 0 -14 -5 -17 -11z"/>
<path d="M2850 5005 c0 -8 5 -15 10 -15 6 0 10 7 10 15 0 8 -4 15 -10 15 -5 0
-10 -7 -10 -15z"/>
<path d="M2887 4973 c-4 -3 -7 -16 -6 -27 0 -19 1 -19 10 3 10 24 8 36 -4 24z"/>
<path d="M3610 4970 c-6 -38 -1 -110 9 -127 9 -15 10 -13 10 17 -1 43 -16 131
-19 110z"/>
<path d="M4636 4972 c-2 -4 4 -9 15 -9 11 -1 17 2 14 8 -7 11 -22 12 -29 1z"/>
<path d="M4610 4889 c0 -5 5 -7 10 -4 6 3 10 8 10 11 0 2 -4 4 -10 4 -5 0 -10
-5 -10 -11z"/>
<path d="M2780 4642 c0 -10 -4 -22 -9 -27 -4 -6 -11 -26 -14 -45 -6 -34 -6
-35 7 -10 16 29 32 100 22 100 -3 0 -6 -8 -6 -18z"/>
<path d="M4377 4583 c-10 -9 -8 -33 2 -33 5 0 11 9 14 20 5 20 -3 26 -16 13z"/>
<path d="M4064 4563 c4 -22 26 -29 37 -12 14 22 11 29 -15 29 -17 0 -23 -5
-22 -17z"/>
<path d="M3380 4553 c0 -4 5 -28 11 -53 10 -39 13 -63 18 -117 1 -7 9 -13 19
-13 14 0 17 9 17 48 0 26 -4 53 -8 60 -5 6 -6 12 -3 12 10 0 -30 64 -42 68 -7
2 -12 0 -12 -5z"/>
<path d="M3454 4509 c-7 -13 13 -29 36 -28 10 0 11 2 3 6 -7 2 -13 11 -13 19
0 17 -16 19 -26 3z"/>
<path d="M3820 4485 c0 -8 4 -15 9 -15 5 0 11 7 15 15 3 9 0 15 -9 15 -8 0
-15 -7 -15 -15z"/>
<path d="M3875 4470 c-4 -12 -3 -26 2 -31 10 -10 73 -1 73 10 -1 15 -17 30
-42 36 -21 5 -27 3 -33 -15z"/>
<path d="M4253 4423 c-4 -10 -17 -31 -30 -46 -13 -16 -23 -36 -22 -45 0 -11 2
-12 6 -4 2 6 12 12 21 12 17 0 72 48 72 63 0 10 -25 37 -35 37 -3 0 -9 -8 -12
-17z"/>
<path d="M2378 4394 c-5 -4 -8 -23 -8 -43 0 -35 -32 -222 -46 -268 -3 -13 -2
-23 3 -23 12 0 43 109 43 152 0 17 5 59 11 94 11 64 10 102 -3 88z"/>
<path d="M2196 4364 c-4 -9 -4 -19 -1 -22 2 -3 7 3 11 12 4 9 4 19 1 22 -2 3
-7 -3 -11 -12z"/>
<path d="M3675 4281 c0 -22 3 -37 6 -35 4 2 9 -3 12 -10 3 -8 1 -17 -6 -19 -9
-3 -9 -9 1 -23 7 -11 20 -31 30 -46 9 -16 31 -35 48 -43 18 -8 34 -24 37 -35
5 -18 33 -38 42 -29 2 3 -1 24 -6 49 -11 50 -44 94 -79 105 -15 5 -19 10 -11
15 25 15 -35 110 -69 110 -3 0 -5 -18 -5 -39z"/>
<path d="M2180 4256 c0 -22 3 -27 11 -19 8 8 8 16 0 30 -9 16 -10 14 -11 -11z"/>
<path d="M4345 4269 c-4 -6 -3 -15 3 -21 6 -6 11 -4 15 6 7 18 -9 31 -18 15z"/>
<path d="M5370 4218 c0 -9 5 -20 10 -23 13 -8 13 5 0 25 -8 13 -10 13 -10 -2z"/>
<path d="M4380 4200 c0 -5 5 -10 10 -10 6 0 10 5 10 10 0 6 -4 10 -10 10 -5 0
-10 -4 -10 -10z"/>
<path d="M3988 4183 c7 -3 16 -2 19 1 4 3 -2 6 -13 5 -11 0 -14 -3 -6 -6z"/>
<path d="M3477 4134 c3 -27 7 -51 9 -53 8 -9 3 75 -5 88 -5 8 -7 -5 -4 -35z"/>
<path d="M5334 3686 c-3 -7 -1 -29 5 -47 10 -33 10 -33 8 13 -2 51 -4 57 -13
34z"/>
<path d="M2316 3630 c-10 -27 -16 -55 -13 -62 3 -7 6 -3 6 10 1 17 7 22 27 22
24 0 26 3 20 31 -3 17 -6 35 -6 40 0 25 -18 3 -34 -41z"/>
<path d="M2277 3537 c-3 -8 -1 -20 4 -28 6 -10 9 -7 9 14 0 29 -5 35 -13 14z"/>
<path d="M2880 3463 c0 -13 5 -23 10 -23 13 0 13 11 0 30 -8 12 -10 11 -10 -7z"/>
<path d="M3010 3398 c0 -32 3 -39 10 -28 13 20 13 70 0 70 -5 0 -10 -19 -10
-42z"/>
<path d="M4850 3362 c-8 -4 -29 -18 -47 -31 -56 -42 -52 -135 8 -192 22 -20
29 -33 22 -40 -11 -11 -13 -9 -145 68 l-68 39 31 23 c34 26 28 44 -15 44 -14
0 -24 4 -23 11 1 6 -8 12 -20 14 -16 2 -23 -2 -23 -13 0 -8 -7 -18 -15 -21 -8
-4 -15 -18 -15 -34 0 -21 -10 -37 -36 -59 l-37 -30 18 -73 c10 -40 22 -77 27
-82 4 -6 8 -25 8 -44 0 -18 4 -31 10 -27 5 3 15 -22 22 -55 6 -33 16 -60 20
-60 4 0 8 -28 8 -62 0 -35 5 -81 12 -103 6 -22 11 -49 9 -60 -1 -11 10 -33 24
-50 63 -73 98 -120 108 -147 3 -10 11 -18 17 -18 5 0 20 -21 32 -47 12 -27 27
-55 33 -63 7 -8 18 -31 24 -51 6 -20 23 -51 36 -69 13 -18 30 -49 36 -69 14
-43 35 -65 50 -55 7 4 9 3 5 -4 -3 -6 7 -20 23 -31 17 -13 32 -34 36 -54 11
-48 15 -51 41 -26 20 19 22 28 17 65 -4 32 -2 44 7 44 7 0 10 7 6 16 -6 17 19
54 36 54 4 0 8 -9 8 -20 0 -11 -4 -20 -10 -20 -5 0 -10 -4 -10 -10 0 -16 33
-11 58 10 l23 19 -71 72 c-56 57 -71 77 -67 96 2 12 -2 28 -9 34 -8 6 -14 8
-14 4 0 -4 -22 16 -50 44 -27 28 -50 53 -50 56 0 2 -16 20 -35 40 -46 49 -81
111 -89 160 -4 22 -16 49 -26 60 -23 26 -90 157 -90 178 0 8 -13 48 -30 88
-48 118 -35 114 29 -8 33 -62 77 -135 100 -161 22 -27 45 -61 50 -76 6 -14 15
-26 21 -26 5 0 10 -6 10 -13 0 -7 9 -23 20 -35 11 -12 20 -25 20 -29 0 -5 11
-20 25 -35 14 -15 25 -33 25 -40 0 -7 16 -29 35 -48 19 -19 35 -38 35 -43 0
-4 4 -6 9 -2 5 3 22 -6 37 -20 15 -14 30 -25 33 -25 9 0 1 73 -8 80 -13 10
-43 62 -46 82 -3 11 -12 32 -22 45 -42 60 -53 79 -53 98 0 11 -11 37 -25 57
-14 20 -25 40 -25 43 0 4 -10 15 -22 25 -13 10 -20 21 -16 25 3 4 16 -3 28
-15 12 -12 24 -19 27 -16 8 8 -69 106 -79 100 -4 -3 -8 -1 -8 4 0 5 -10 20
-22 34 -24 26 -42 55 -65 100 -8 14 -26 39 -42 55 -38 38 -66 83 -52 83 6 0
11 -4 11 -10 0 -5 6 -10 13 -10 7 0 28 -11 47 -25 31 -23 53 -58 81 -132 8
-22 12 -24 19 -13 6 8 10 23 10 33 0 27 16 20 57 -24 21 -22 56 -59 78 -82
156 -164 327 -430 312 -486 -3 -11 -5 -9 -6 6 -1 30 -21 40 -21 11 0 -54 12
-96 26 -91 10 4 14 -4 14 -26 0 -17 5 -31 11 -31 6 0 8 -7 5 -16 -8 -20 3 -66
14 -59 5 3 6 -3 3 -14 -3 -10 0 -22 6 -25 7 -5 11 2 12 16 0 21 1 22 8 3 4
-11 6 18 3 65 -3 71 -12 103 -48 192 -24 59 -55 125 -69 147 -14 23 -25 43
-25 46 0 3 -16 28 -35 55 -19 27 -35 52 -35 55 0 4 -13 20 -30 38 -16 18 -30
42 -30 55 0 12 -6 25 -14 28 -8 3 -17 16 -20 29 -3 13 -15 27 -26 30 -11 3
-20 13 -20 20 0 8 -9 19 -20 25 -11 6 -20 15 -20 20 0 7 6 7 18 0 32 -18 94
-40 113 -40 40 0 16 16 -79 53 -161 64 -159 62 -165 96 -4 17 -16 41 -27 53
-12 13 -20 35 -20 56 0 29 3 34 19 29 17 -4 19 0 15 37 -2 22 -6 54 -10 69 -4
20 0 34 12 48 18 20 6 25 -26 11z m210 -1446 c0 -3 -4 -8 -10 -11 -5 -3 -10
-1 -10 4 0 6 5 11 10 11 6 0 10 -2 10 -4z"/>
<path d="M3008 3317 c-5 -10 -8 -35 -8 -55 1 -30 2 -34 11 -19 6 9 9 34 7 55
-2 28 -5 32 -10 19z"/>
<path d="M4440 3089 c0 -5 5 -7 10 -4 6 3 10 8 10 11 0 2 -4 4 -10 4 -5 0 -10
-5 -10 -11z"/>
<path d="M5160 2900 c0 -5 5 -10 11 -10 5 0 7 5 4 10 -3 6 -8 10 -11 10 -2 0
-4 -4 -4 -10z"/>
<path d="M3400 2569 c0 -11 4 -18 10 -14 5 3 7 12 3 20 -7 21 -13 19 -13 -6z"/>
<path d="M3967 2168 c-3 -29 -8 -62 -12 -73 -3 -11 3 -4 14 15 11 19 17 45 15
56 -3 12 -1 25 5 29 6 3 9 11 6 16 -13 21 -23 6 -28 -43z"/>
<path d="M3913 1985 c-3 -9 -3 -18 -1 -21 3 -3 8 4 11 16 6 23 -1 27 -10 5z"/>
<path d="M5120 1982 c0 -19 18 -42 32 -42 4 0 8 14 8 30 0 23 -4 30 -20 30
-13 0 -20 -7 -20 -18z"/>
<path d="M2 1853 l-2 -73 34 0 c47 0 66 9 66 31 0 15 -7 19 -32 19 -46 0 -56
9 -61 55 -2 25 -4 13 -5 -32z"/>
<path d="M4805 1848 c3 -13 9 -59 12 -103 5 -97 10 -116 23 -95 7 11 12 8 22
-16 10 -24 16 -29 24 -20 19 21 34 54 34 76 0 13 8 24 20 27 23 6 27 23 5 23
-8 0 -20 9 -27 20 -7 11 -16 20 -20 20 -14 0 -49 35 -64 63 -18 33 -39 37 -29
5z"/>
<path d="M505 1850 c-3 -5 1 -10 10 -10 9 0 13 5 10 10 -3 6 -8 10 -10 10 -2
0 -7 -4 -10 -10z"/>
<path d="M152 1832 c-21 -14 -2 -42 28 -42 34 0 46 15 30 35 -14 17 -38 19
-58 7z"/>
<path d="M415 1820 c-15 -6 -8 -9 27 -9 26 -1 50 4 53 9 8 12 -52 12 -80 0z"/>
<path d="M957 1706 c-3 -7 -34 -19 -69 -26 l-63 -14 75 -8 c82 -9 96 -3 86 36
-7 28 -21 34 -29 12z"/>
<path d="M1093 1692 c-16 -5 -20 -11 -14 -21 7 -10 27 -14 67 -13 53 1 86 14
72 27 -9 9 -102 15 -125 7z"/>
<path d="M780 1670 c-13 -8 -12 -10 3 -10 9 0 17 5 17 10 0 12 -1 12 -20 0z"/>
<path d="M203 1662 l-203 -2 0 -25 c0 -24 3 -25 63 -25 34 0 105 5 157 11 52
6 140 12 195 14 143 5 333 19 338 25 6 5 -236 7 -550 2z"/>
<path d="M1050 1531 c-30 -17 -118 -30 -230 -35 -362 -17 -436 -17 -511 -4
-105 19 -208 17 -239 -5 -13 -9 -35 -17 -47 -17 -20 0 -23 -5 -23 -37 l0 -36
103 7 c124 8 268 21 402 35 148 17 410 33 492 31 62 -1 73 1 82 19 23 42 8 63
-29 42z"/>
<path d="M1255 1084 c-126 -12 -286 -28 -354 -34 -169 -18 -304 -16 -371 3
-30 8 -72 18 -92 21 -32 6 -37 4 -44 -16 -4 -13 -7 -28 -6 -35 4 -16 -22 -21
-158 -28 -63 -3 -141 -8 -172 -12 l-58 -6 0 -44 0 -45 33 5 c54 9 233 26 407
37 91 7 215 18 275 26 143 19 433 52 560 64 233 23 230 22 233 51 2 15 -2 28
-10 31 -7 2 -116 -6 -243 -18z"/>
<path d="M4128 1023 c7 -3 16 -2 19 1 4 3 -2 6 -13 5 -11 0 -14 -3 -6 -6z"/>
<path d="M1923 874 c-7 -7 -13 -27 -13 -44 0 -29 1 -30 16 -16 8 9 20 14 25
11 14 -9 11 41 -3 53 -9 7 -17 6 -25 -4z"/>
<path d="M5201 734 c0 -11 3 -14 6 -6 3 7 2 16 -1 19 -3 4 -6 -2 -5 -13z"/>
<path d="M0 711 c0 -6 4 -13 10 -16 6 -3 7 1 4 9 -7 18 -14 21 -14 7z"/>
</g>
</svg>
