<?xml version="1.0" standalone="no"?>
<!DOCTYPE svg PUBLIC "-//W3C//DTD SVG 20010904//EN"
 "http://www.w3.org/TR/2001/REC-SVG-20010904/DTD/svg10.dtd">
<svg version="1.0" xmlns="http://www.w3.org/2000/svg"
 width="1080.000000pt" height="1693.000000pt" viewBox="0 0 1080.000000 1693.000000"
 preserveAspectRatio="xMidYMid meet">

<g transform="translate(0.000000,1693.000000) scale(0.100000,-0.100000)"
fill="#000000" stroke="none">
<path d="M0 13150 l0 -3781 21 -29 c16 -21 23 -48 27 -103 4 -66 1 -80 -22
-126 l-26 -53 0 -1408 0 -1409 118 0 c124 0 160 -6 333 -51 119 -31 134 -38
167 -73 23 -24 23 -25 22 -317 0 -161 -3 -297 -6 -302 -3 -5 -12 -4 -20 3 -11
9 -13 59 -7 299 l6 288 -26 26 -26 26 -281 0 -280 0 0 -361 c0 -264 3 -358 11
-353 8 5 10 -5 5 -32 -3 -22 -6 -45 -6 -51 0 -7 0 -19 -1 -25 0 -7 -3 -446 -6
-975 -4 -862 -3 -963 11 -963 17 0 39 34 29 44 -9 9 28 86 39 80 4 -3 33 0 63
6 47 10 56 15 62 38 8 36 24 44 42 23 22 -25 71 -36 71 -16 0 8 6 15 14 15 9
0 12 -7 9 -20 -4 -14 0 -20 11 -20 9 0 16 5 16 11 0 12 50 4 60 -9 8 -12 62
-33 55 -22 -3 5 -2 10 4 10 5 0 13 -4 16 -10 15 -25 125 -3 125 25 0 17 35 21
45 5 3 -5 -2 -10 -12 -10 -17 -1 -17 -1 0 -11 10 -6 31 -7 47 -4 20 4 30 3 30
-5 0 -6 4 -8 10 -5 5 3 10 2 10 -4 0 -5 8 -8 18 -6 9 2 25 4 34 4 10 1 19 13
23 30 6 29 26 41 71 41 11 0 34 7 51 15 40 20 69 21 126 6 36 -11 45 -17 37
-26 -13 -16 27 -51 70 -60 38 -8 44 -19 24 -40 -37 -36 -17 -98 23 -77 12 7
48 7 103 1 46 -5 97 -7 112 -3 16 3 52 -2 84 -12 59 -18 87 -47 97 -99 4 -25
-1 -36 -34 -67 -35 -34 -46 -38 -90 -38 -28 0 -70 -5 -94 -11 -40 -10 -48 -9
-82 12 -52 31 -103 72 -103 82 0 22 -45 103 -66 120 -13 10 -24 27 -24 38 0
11 -7 19 -17 20 -57 2 -132 11 -161 19 -19 5 -39 7 -47 4 -7 -3 -16 -1 -19 5
-4 6 -13 8 -21 4 -9 -3 -22 0 -31 7 -11 10 -18 10 -26 2 -14 -14 -32 -16 -23
-2 3 5 -7 3 -21 -5 -15 -8 -32 -11 -37 -8 -6 3 -7 1 -3 -5 6 -10 -13 -16 -44
-14 -24 2 -165 -19 -174 -26 -6 -4 -35 -9 -64 -10 -29 -1 -62 -7 -74 -13 -14
-8 -32 -8 -62 -1 -39 10 -160 24 -200 23 -11 0 -25 -6 -33 -13 -11 -11 -7 -17
20 -31 19 -10 41 -31 51 -48 16 -28 34 -34 81 -30 11 1 32 3 47 4 14 1 24 5
21 9 -6 11 -37 10 401 11 l389 2 14 -22 c20 -30 13 -70 -22 -123 -41 -65 -42
-88 -1 -96 18 -3 51 -1 72 5 60 17 403 13 504 -5 178 -31 187 -31 315 16 41
15 77 18 200 17 133 -2 153 -4 177 -22 29 -21 35 -39 18 -50 -6 -4 -8 -15 -5
-25 3 -11 -1 -32 -9 -48 -15 -28 -19 -30 -80 -30 -60 0 -106 -13 -106 -30 1
-16 40 -53 61 -57 11 -2 26 -8 33 -13 6 -5 24 -12 39 -16 16 -4 41 -18 55 -31
15 -14 39 -25 53 -25 22 0 30 7 43 40 14 36 15 44 1 77 -11 27 -13 44 -5 72 5
20 7 52 5 71 -6 46 2 70 24 70 10 0 32 7 50 16 33 17 60 16 201 -5 119 -18
151 -17 166 4 8 10 14 22 14 26 0 16 -48 59 -65 59 -25 0 -44 30 -38 60 4 20
-1 29 -22 40 -14 7 -31 24 -38 36 -44 80 -77 151 -77 166 0 32 56 45 181 44
100 -1 120 -4 138 -20 12 -11 21 -26 21 -34 0 -8 9 -30 21 -49 16 -26 18 -37
10 -47 -9 -10 -9 -16 -1 -21 6 -3 8 -10 5 -15 -3 -4 6 -7 20 -6 13 2 34 -3 45
-11 17 -12 18 -16 7 -28 -31 -30 -85 -22 -142 22 l-48 37 -43 -50 c-24 -27
-39 -53 -35 -57 9 -9 147 -24 201 -22 30 1 42 -6 87 -55 l53 -57 122 -5 c119
-5 125 -7 184 -42 34 -19 64 -45 67 -56 6 -24 -12 -38 -23 -19 -6 9 -13 10
-22 3 -14 -11 -39 -11 -81 0 -14 3 -29 2 -32 -4 -3 -5 -34 -10 -68 -10 -35 0
-87 -7 -117 -15 -30 -9 -95 -17 -145 -19 -49 -2 -101 -8 -115 -14 -16 -6 -43
-6 -75 -1 -154 28 -207 23 -270 -26 -30 -23 -3 -42 82 -57 56 -9 80 -9 110 0
21 7 83 14 138 16 56 2 121 11 147 20 44 15 48 15 93 -4 31 -13 69 -20 114
-20 57 0 74 -4 114 -30 26 -17 55 -30 65 -30 28 0 84 39 79 54 -4 10 7 16 41
20 26 3 58 7 72 9 47 6 57 -7 64 -86 7 -74 0 -120 -14 -97 -5 8 -11 8 -21 -2
-8 -7 -34 -14 -59 -16 -277 -16 -385 -24 -496 -36 -73 -8 -147 -11 -165 -8
-19 4 -84 7 -146 6 -87 0 -117 -4 -137 -18 -32 -20 -187 -36 -391 -40 -91 -2
-148 -7 -164 -15 -13 -8 -52 -14 -85 -15 -50 -1 -69 4 -108 27 -28 16 -49 23
-53 17 -10 -16 4 -30 31 -30 14 0 24 -6 24 -15 0 -8 13 -21 29 -29 23 -13 68
-14 252 -11 123 3 244 9 269 14 63 14 208 28 319 30 60 2 102 7 115 16 16 11
98 17 336 25 459 15 483 15 510 6 13 -5 47 -30 74 -57 50 -49 100 -79 130 -79
19 0 21 -28 5 -64 -14 -29 -26 -32 -199 -46 -74 -6 -193 -15 -264 -21 -76 -6
-132 -6 -135 -1 -3 5 -30 17 -59 26 -43 15 -62 16 -100 8 -26 -6 -77 -13 -115
-16 -50 -4 -73 -11 -90 -27 -31 -29 -51 -35 -137 -43 -41 -4 -115 -11 -165
-17 -49 -5 -137 -12 -195 -15 -58 -3 -121 -7 -140 -10 -19 -2 -142 -11 -275
-20 -132 -8 -278 -19 -325 -24 -47 -5 -209 -16 -360 -24 -151 -9 -295 -18
-320 -21 -25 -2 -126 -9 -225 -15 -180 -10 -203 -12 -435 -30 -69 -5 -192 -12
-274 -15 -82 -4 -155 -9 -163 -12 -9 -4 -13 -25 -13 -70 0 -63 1 -65 23 -59
38 10 175 24 342 36 167 12 406 33 560 50 50 6 117 12 150 14 33 3 103 7 155
11 52 3 149 13 215 21 66 7 201 18 300 24 167 10 209 13 290 26 17 3 84 6 150
8 66 1 127 6 134 11 8 4 66 9 130 11 64 1 163 9 220 18 59 9 166 16 246 16
134 0 299 18 375 40 19 6 71 13 115 16 44 2 130 9 190 14 200 17 362 23 368
14 5 -9 -25 -223 -37 -261 -8 -24 -21 -28 -136 -38 -148 -13 -270 -25 -355
-35 -155 -19 -422 -40 -624 -51 -106 -5 -201 -14 -211 -19 -16 -8 -17 -17 -11
-66 0 -6 22 -19 48 -29 43 -17 58 -17 183 -6 74 7 185 19 245 27 61 8 155 19
210 24 55 5 147 14 205 20 164 18 415 38 420 33 7 -7 -40 -307 -51 -318 -5 -5
-51 -15 -102 -22 -121 -16 -159 -22 -164 -26 -2 -3 9 -12 24 -22 15 -9 38 -29
50 -43 l22 -26 48 17 c26 9 63 17 81 17 l32 0 0 -54 c0 -29 -4 -66 -9 -82 -5
-16 -12 -41 -15 -56 -8 -34 -60 -49 -80 -23 -11 16 -14 15 -50 -1 -32 -16 -38
-16 -46 -4 -6 10 -4 23 5 37 23 34 18 43 -21 43 -36 0 -46 -6 -178 -123 -24
-20 -46 -37 -50 -37 -4 0 -35 -14 -68 -30 -67 -34 -83 -32 -49 4 20 21 21 27
10 47 l-12 23 -8 -22 c-8 -21 -29 -31 -29 -14 0 14 72 82 81 76 5 -3 9 -1 9 5
0 9 67 56 124 87 11 6 24 19 30 30 6 10 19 25 29 32 23 17 22 32 -3 32 -26 0
-17 20 20 45 17 11 30 23 30 28 0 14 -170 0 -186 -16 -4 -3 3 -25 14 -48 20
-41 21 -59 2 -59 -5 0 -22 -12 -37 -26 -80 -75 -133 -114 -154 -115 -20 -1
-20 -2 6 -8 44 -9 37 -31 -25 -72 -105 -71 -232 -127 -303 -134 -72 -8 -937
-35 -1100 -35 -72 0 -162 -3 -199 -7 -57 -5 -68 -9 -68 -24 0 -11 -7 -19 -15
-19 -8 0 -15 7 -15 15 0 8 -6 16 -12 17 -7 0 -156 0 -330 -2 -200 -1 -318 1
-318 7 0 5 60 17 133 26 72 8 157 20 187 26 84 15 270 42 320 46 64 5 189 22
305 40 55 9 122 18 150 20 47 4 203 28 395 61 84 14 232 34 400 55 47 6 163
22 259 35 95 13 189 24 208 24 l36 0 -7 62 c-4 35 -12 67 -17 72 -9 10 -177
-4 -316 -26 -53 -9 -78 -9 -96 -1 -16 7 -54 9 -100 6 -59 -5 -76 -9 -80 -23
-3 -13 -24 -19 -93 -28 -102 -14 -349 -46 -509 -68 -213 -29 -261 -34 -340
-39 -44 -3 -109 -9 -145 -15 -36 -5 -132 -17 -215 -25 -188 -20 -584 -72 -648
-85 -27 -6 -75 -10 -108 -10 -33 0 -68 -4 -78 -9 -19 -11 -271 -35 -340 -34
-24 1 -48 7 -53 15 -7 9 -8 7 -5 -9 4 -19 1 -21 -29 -18 l-34 2 0 -169 c0
-152 2 -169 17 -175 10 -3 26 -14 36 -25 10 -10 30 -18 44 -18 21 0 24 3 15
12 -22 22 -13 34 23 30 21 -3 35 -10 35 -18 0 -8 5 -14 11 -14 5 0 7 5 4 10
-3 6 3 10 14 10 11 0 23 -5 26 -11 4 -6 14 -8 22 -5 33 13 105 17 98 6 -4 -7
-18 -9 -31 -6 -14 4 -24 2 -24 -4 0 -5 -10 -10 -22 -10 -22 -1 -22 -2 7 -25
16 -13 41 -25 55 -27 28 -3 36 -34 8 -32 -10 1 -18 -3 -18 -8 0 -6 -6 -5 -15
2 -12 10 -18 9 -31 -5 -10 -9 -23 -13 -33 -9 -9 3 -26 9 -39 11 -32 7 -36 20
-17 50 13 20 14 27 5 33 -15 9 -24 8 -64 -9 -20 -8 -32 -9 -40 -1 -5 5 -19 10
-30 10 -11 0 -28 7 -38 17 -17 15 -18 14 -18 -35 0 -30 5 -53 13 -56 9 -5 9
-7 0 -12 -10 -4 -13 -75 -13 -305 l0 -299 5400 0 5400 0 0 1465 0 1465 -32 19
c-17 11 -66 29 -109 41 -43 11 -102 31 -131 44 -29 12 -73 28 -98 35 -25 7
-80 26 -122 42 -106 40 -229 83 -313 108 -38 12 -99 42 -135 66 -53 36 -81 47
-145 59 -44 8 -110 23 -147 34 l-68 21 0 -22 c0 -12 6 -94 14 -182 31 -331 51
-580 66 -800 10 -150 19 -258 45 -520 25 -247 27 -291 16 -275 -6 8 -11 25
-11 38 0 24 -15 30 -23 10 -3 -7 -22 24 -43 69 l-39 83 -30 -24 c-18 -15 -30
-34 -31 -52 -3 -41 -6 -43 -13 -9 -5 21 -12 29 -24 27 -12 -2 -17 4 -17 23 0
14 -4 25 -9 25 -8 0 -17 -20 -31 -70 -6 -21 -8 -19 -13 20 -3 25 -8 109 -11
188 -4 105 -10 149 -21 165 -8 12 -15 29 -15 39 0 9 -3 19 -7 21 -5 3 -7 -37
-6 -89 0 -52 -2 -94 -7 -94 -12 0 -20 27 -21 68 l-1 37 -10 -35 c-6 -19 -14
-80 -18 -135 -3 -55 -7 -81 -8 -59 -1 23 -5 57 -9 75 -7 33 -7 33 -14 9 l-7
-25 -1 28 c-2 43 -18 23 -26 -30 -15 -108 -56 -206 -82 -196 -8 3 -13 -3 -13
-18 0 -28 -19 -64 -20 -39 -1 8 -6 4 -11 -10 -6 -14 -12 -81 -14 -150 -4 -102
-7 -126 -20 -128 -9 -2 -15 -15 -16 -35 0 -18 -3 -26 -6 -19 -8 20 -22 14 -16
-8 3 -12 -1 -22 -10 -26 -9 -3 -13 -13 -10 -25 3 -10 0 -19 -6 -19 -6 0 -11
-7 -11 -15 0 -20 -10 -19 -39 4 -24 19 -25 19 -44 -5 -10 -13 -25 -24 -33 -24
-8 0 -14 -7 -14 -15 0 -32 -19 -13 -22 23 -2 23 -8 36 -15 35 -9 -2 -13 13
-13 49 0 39 6 59 25 84 27 35 27 60 0 114 -7 14 -15 60 -19 104 -3 43 -8 81
-11 84 -3 3 -5 0 -5 -6 0 -7 -4 -12 -10 -12 -5 0 -10 11 -10 25 0 16 -6 25
-16 25 -8 0 -12 5 -9 10 3 6 2 10 -4 10 -5 0 -12 9 -16 19 -4 12 -12 18 -21
14 -8 -3 -14 1 -14 10 0 23 -75 69 -153 91 -96 28 -102 33 -115 88 -16 63 -15
97 2 104 25 10 31 63 9 80 -13 11 -15 17 -5 20 6 3 9 10 6 16 -4 6 -8 20 -9
32 -1 11 -3 26 -4 33 0 7 -8 10 -16 7 -10 -4 -15 0 -15 13 0 11 -3 23 -7 27
-5 4 -8 13 -8 19 -1 7 -6 11 -13 10 -7 -2 -12 2 -12 7 0 6 -6 10 -13 10 -8 0
-20 11 -27 25 -7 14 -22 25 -32 25 -10 0 -22 8 -25 17 -6 15 -7 14 -13 -3 -4
-10 -3 -27 2 -38 7 -13 6 -21 -2 -26 -9 -5 -8 -9 2 -12 8 -4 14 -22 15 -44 1
-22 0 -33 -3 -26 -7 16 -60 16 -67 -1 -7 -20 15 -42 47 -45 23 -3 28 0 23 12
-4 10 -1 13 9 9 25 -10 66 -101 59 -133 -5 -22 -1 -31 17 -44 12 -9 17 -16 10
-16 -6 0 -12 -4 -12 -10 0 -5 6 -7 13 -4 8 3 17 -12 25 -43 7 -27 26 -91 42
-143 16 -52 31 -108 35 -125 17 -84 23 -104 38 -126 10 -13 17 -33 17 -44 -1
-20 -1 -20 -16 0 -9 11 -25 40 -36 65 -12 25 -29 56 -39 70 -9 14 -20 42 -24
63 -4 20 -11 34 -16 31 -5 -3 -6 1 -3 9 3 8 -2 19 -10 26 -8 7 -20 37 -26 67
-6 30 -18 60 -26 68 -8 8 -14 19 -14 25 0 6 -5 11 -10 11 -6 0 -8 -11 -4 -25
3 -14 2 -25 -4 -25 -12 0 -26 81 -31 187 -1 25 -28 56 -42 48 -5 -4 -9 1 -9 9
0 9 -9 16 -21 16 -11 0 -17 4 -14 10 3 5 -1 10 -9 10 -9 0 -16 5 -16 10 0 6
-7 10 -15 10 -18 0 -19 12 -3 28 9 9 8 12 -5 12 -10 0 -17 8 -17 20 0 11 5 20
10 20 6 0 10 -5 10 -11 0 -6 10 -9 23 -7 28 4 38 48 10 48 -15 0 -16 2 -3 10
10 6 11 10 3 10 -7 0 -13 7 -13 15 0 8 -4 15 -10 15 -5 0 -10 -11 -10 -25 0
-14 -4 -25 -10 -25 -5 0 -10 -7 -10 -15 0 -8 -4 -15 -9 -15 -5 0 -12 -8 -14
-17 -2 -10 -3 -3 -1 15 3 33 0 35 -48 32 -20 -1 -28 3 -28 14 0 10 9 16 23 17
21 1 21 1 -3 8 -19 5 -28 17 -35 46 -5 22 -14 46 -19 54 -8 12 -11 42 -16 134
0 4 -7 7 -15 7 -10 0 -15 10 -15 29 0 17 -4 33 -10 36 -6 3 -10 17 -10 30 0
13 -4 26 -8 29 -5 3 -7 19 -4 36 2 16 -1 37 -8 45 -7 9 -16 57 -21 108 -11
143 -29 261 -39 271 -6 6 -10 25 -10 44 0 18 -4 31 -9 28 -12 -7 -30 39 -36
89 -2 22 -11 82 -20 132 -8 51 -14 107 -14 125 2 44 -10 226 -18 263 -3 16 -7
63 -8 105 -5 107 -26 248 -42 273 -4 7 -8 14 -8 17 -1 3 -5 32 -10 65 -5 33
-8 63 -7 66 3 15 -28 216 -38 249 -10 32 -45 299 -48 360 -3 64 -14 205 -17
208 -3 3 -88 -148 -117 -208 -52 -109 -70 -162 -88 -255 -8 -40 -29 -87 -61
-140 -27 -44 -49 -88 -49 -98 0 -25 -53 -138 -79 -166 -24 -28 -28 -76 -6 -97
19 -20 34 -75 56 -219 10 -66 30 -192 44 -280 14 -88 30 -191 35 -230 5 -38
19 -130 30 -204 11 -76 20 -189 20 -260 1 -154 -19 -606 -29 -666 -1 -5 -5 -4
-10 4 -7 11 -11 9 -21 -8 -6 -12 -11 -32 -10 -44 1 -12 -1 -33 -5 -45 -7 -23
-11 -23 -75 -19 -43 4 -71 2 -79 -6 -8 -8 -17 -5 -34 11 -13 12 -31 22 -40 22
-20 0 -104 56 -110 73 -2 6 -20 12 -40 12 l-37 0 0 -63 c0 -55 3 -65 20 -69
11 -3 20 -14 20 -24 0 -11 7 -22 15 -25 8 -4 15 -12 15 -20 0 -8 6 -14 14 -14
21 0 30 -20 17 -33 -18 -18 -12 -40 23 -77 38 -40 57 -54 103 -75 43 -20 63
-42 63 -70 0 -23 -32 -45 -38 -26 -2 6 -8 11 -14 11 -5 0 -25 15 -43 32 -64
62 -90 83 -107 90 -26 11 -22 -4 12 -42 16 -18 30 -39 30 -46 0 -6 11 -19 24
-28 14 -8 27 -24 31 -35 3 -11 19 -26 35 -33 58 -25 67 -88 15 -99 l-30 -6 28
-7 c29 -9 37 -26 11 -26 -8 0 -13 -4 -10 -9 4 -5 0 -12 -6 -15 -20 -9 51 4
107 19 28 8 117 31 199 51 166 41 166 41 166 -34 0 -35 -6 -49 -31 -75 -17
-17 -43 -48 -57 -70 -14 -21 -37 -43 -51 -49 -21 -7 -23 -11 -11 -19 13 -8 13
-11 -3 -20 -23 -14 -21 -26 6 -34 42 -12 107 -45 107 -54 0 -13 -47 -27 -166
-51 -79 -16 -108 -18 -132 -9 -22 7 -36 7 -51 -1 -12 -6 -38 -10 -59 -9 -20 1
-49 -2 -64 -6 -19 -5 -28 -3 -28 4 0 7 -9 9 -22 6 -13 -3 -40 -7 -60 -8 -20
-1 -40 -6 -44 -10 -12 -12 -24 -8 -24 8 0 9 7 18 15 21 11 5 12 11 4 25 -5 11
-7 24 -4 30 4 5 2 16 -4 23 -9 11 -8 18 4 29 10 11 11 17 3 19 -6 2 13 29 43
60 37 38 58 71 68 102 7 25 17 46 23 46 5 0 6 5 3 10 -4 6 -12 7 -18 4 -7 -4
-9 -3 -4 1 10 11 -22 45 -43 45 -9 0 -31 16 -50 35 -19 19 -41 34 -49 32 -9
-1 -16 5 -16 13 0 8 -7 15 -15 15 -8 0 -14 8 -12 17 1 9 -6 22 -17 27 -11 6
-23 20 -26 32 -4 13 -12 18 -21 15 -8 -3 -13 -2 -10 2 11 19 -75 84 -130 98
-40 10 -63 34 -70 71 -7 37 -38 61 -57 44 -16 -13 -35 -1 -32 20 2 9 -1 23 -6
30 -10 17 -29 1 -31 -28 -1 -10 -10 -20 -20 -20 -10 -1 -17 1 -17 5 3 17 -2
32 -10 32 -4 0 -6 -11 -3 -25 3 -19 0 -25 -12 -25 -10 0 -14 -5 -11 -10 3 -6
2 -10 -4 -10 -10 0 -25 18 -27 35 0 6 -2 20 -2 33 -2 28 -18 28 -27 -1 l-8
-22 -4 23 c-3 14 -11 22 -21 20 -11 -2 -18 6 -22 27 -4 20 -11 30 -23 29 -9
-1 -17 2 -17 7 0 5 -6 9 -14 9 -8 0 -18 9 -21 20 -3 11 -13 20 -21 20 -8 0
-14 5 -14 10 0 17 -18 11 -23 -7 -3 -12 -5 -9 -6 8 0 14 6 34 14 45 8 11 15
14 15 7 0 -27 18 -11 24 21 4 19 14 40 22 47 9 7 20 24 25 37 5 14 16 22 26
20 11 -2 19 5 21 17 6 28 26 38 33 17 5 -11 7 -5 6 16 0 19 9 44 21 60 12 15
31 44 42 65 12 21 25 35 30 32 5 -3 17 -31 26 -63 9 -31 21 -65 26 -76 20 -38
50 -180 45 -212 -6 -37 8 -56 16 -23 3 12 10 18 16 14 15 -9 14 -32 -4 -59
-13 -19 -13 -28 -4 -50 18 -40 29 -31 29 23 0 28 5 53 10 56 10 6 90 -71 90
-87 0 -4 5 -8 11 -8 14 0 7 120 -11 195 -7 28 -12 63 -11 78 1 15 -5 42 -13
60 -38 88 -45 123 -29 152 13 23 37 145 30 152 -3 2 -1 20 3 39 4 19 5 36 1
38 -10 7 -37 -83 -56 -189 -21 -113 -31 -133 -40 -80 -3 22 -10 56 -15 76 -6
22 -7 70 -1 123 8 81 14 97 97 264 49 97 94 182 101 187 18 14 36 78 21 73 -7
-3 -16 -17 -21 -34 -5 -16 -18 -38 -28 -50 -11 -11 -19 -26 -19 -32 0 -7 -4
-12 -10 -12 -5 0 -10 -6 -10 -13 0 -8 -16 -27 -35 -43 -24 -19 -33 -34 -29
-46 3 -10 1 -18 -4 -18 -5 0 -12 9 -15 21 -7 24 -30 21 -35 -6 -2 -9 0 -15 5
-12 4 3 8 -8 9 -25 1 -17 -2 -24 -6 -18 -6 9 -11 7 -18 -6 -9 -17 -11 -16 -18
11 -9 34 -6 66 6 79 5 5 6 15 3 22 -3 8 1 14 10 14 11 0 15 11 15 36 0 20 4
39 10 43 12 8 16 158 3 165 -5 3 -9 42 -9 86 1 71 3 80 19 80 18 0 43 32 34
42 -12 12 18 67 38 70 12 2 22 10 23 18 3 67 36 104 52 61 8 -24 22 -27 33 -9
7 10 11 10 21 0 10 -10 10 -14 0 -21 -10 -6 -10 -10 3 -21 8 -7 15 -9 15 -5 0
4 14 -7 32 -24 24 -24 34 -28 40 -18 9 18 -2 63 -12 47 -9 -14 -50 -4 -50 12
0 5 9 12 20 15 27 7 25 19 -8 51 -28 27 -30 49 -8 64 6 5 7 8 1 8 -6 0 -9 46
-8 123 2 116 1 123 -19 132 -33 15 -52 60 -49 115 1 19 -7 63 -18 97 -11 34
-23 79 -27 100 -4 21 -13 43 -20 50 -7 7 -16 35 -19 61 -4 26 -13 57 -21 69
-8 12 -14 47 -14 78 0 32 -4 55 -11 55 -5 0 -8 -4 -5 -8 2 -4 1 -14 -5 -22 -6
-10 -9 4 -10 45 -1 33 -2 71 -4 85 -1 14 -5 90 -9 170 -4 80 -11 150 -16 155
-4 6 -10 33 -13 60 -18 149 -28 209 -43 254 -13 40 -14 60 -6 97 6 27 7 55 2
64 -4 8 -11 49 -14 90 -3 41 -10 102 -16 135 -5 33 -11 94 -15 135 -8 116 -15
160 -24 178 -4 10 -11 73 -15 142 -3 69 -13 154 -21 190 -23 107 -80 300 -108
371 -14 36 -28 81 -30 100 -3 19 -7 41 -10 49 -3 8 -8 27 -11 42 -5 21 -10 26
-24 21 -9 -4 -20 -11 -24 -17 -5 -7 -8 -4 -8 7 0 11 -4 15 -11 11 -14 -8 -7
-252 10 -389 6 -44 13 -116 15 -160 3 -44 10 -142 16 -218 8 -113 7 -150 -4
-200 -17 -73 -58 -466 -53 -499 3 -13 10 -63 16 -113 7 -49 18 -115 26 -145 7
-30 20 -100 29 -155 17 -119 42 -253 50 -277 3 -10 9 -26 13 -35 3 -10 5 -26
4 -35 -2 -20 56 -198 70 -212 6 -6 9 -6 9 1 0 7 -4 15 -10 18 -5 3 -10 20 -10
37 0 29 1 30 23 16 12 -9 23 -24 25 -36 2 -11 11 -22 21 -25 12 -3 18 -14 19
-35 1 -37 18 -73 33 -69 6 1 13 -6 14 -15 2 -10 0 -18 -5 -18 -4 0 -6 -14 -4
-31 5 -41 -17 -34 -32 12 -7 19 -15 32 -19 31 -4 -2 -12 2 -17 10 -13 18 1
-61 15 -87 6 -11 12 -26 13 -34 2 -8 9 -28 17 -45 45 -95 67 -148 67 -157 0
-5 9 -29 20 -51 11 -23 20 -57 20 -76 0 -19 5 -52 12 -74 10 -34 9 -44 -6 -73
-10 -19 -30 -38 -45 -44 -35 -14 -191 -51 -216 -51 -11 0 -33 -7 -50 -16 -16
-8 -48 -17 -70 -19 -22 -3 -49 -6 -60 -8 -11 -3 -30 -5 -43 -6 -22 -1 -23 -4
-21 -66 1 -36 -1 -68 -4 -72 -4 -3 -7 -17 -7 -30 0 -18 7 -25 31 -30 29 -5 31
-8 27 -44 -2 -20 0 -35 4 -33 5 3 8 -7 7 -23 0 -25 -1 -26 -9 -8 -7 16 -9 11
-9 -20 0 -22 4 -47 9 -55 7 -11 10 -6 10 20 l1 35 14 -40 c10 -29 12 -50 5
-75 -8 -31 -14 -102 -11 -137 1 -19 19 -16 24 4 2 10 3 5 1 -12 -3 -16 -8 -32
-14 -35 -5 -3 -5 -11 -1 -18 10 -17 1 -73 -11 -66 -6 4 -5 -3 2 -15 6 -12 8
-31 4 -43 -5 -17 -3 -20 10 -15 12 5 16 1 16 -15 0 -12 6 -29 14 -37 17 -21
26 -93 14 -115 -8 -14 -6 -16 16 -10 21 5 26 3 26 -12 0 -11 -4 -25 -9 -33 -7
-11 -10 -8 -16 10 -7 21 -9 21 -20 6 -6 -9 -15 -14 -18 -10 -4 3 -7 -2 -8 -13
0 -11 -3 -13 -6 -6 -2 6 -9 10 -14 6 -5 -3 -10 1 -11 8 0 7 -2 20 -3 28 -1 8
4 24 10 35 16 28 25 65 15 65 -4 0 -8 16 -7 35 1 43 -10 56 -29 31 -13 -18
-14 -18 -23 5 -5 13 -10 18 -10 10 -2 -36 -13 3 -18 60 -2 35 -9 71 -14 81 -5
9 -18 74 -28 145 -11 70 -27 169 -35 218 -9 50 -20 140 -24 202 -8 108 -10
113 -40 141 -18 17 -32 39 -32 49 0 21 -29 53 -47 53 -6 0 -16 7 -23 15 -11
13 -9 21 8 45 14 19 20 38 17 57 -2 15 -7 75 -10 133 -10 167 -13 194 -28 252
-9 35 -12 69 -7 94 4 21 9 31 10 22 4 -29 5 -32 11 -43 4 -5 10 -39 13 -75 14
-131 43 -119 39 15 -3 101 -11 162 -25 188 -5 10 -11 101 -12 201 -2 101 -5
187 -8 192 -2 5 -4 28 -3 51 1 23 -1 40 -4 38 -3 -2 -7 7 -8 18 -4 45 -11 167
-18 297 -6 127 -10 195 -14 230 -1 12 -3 12 -10 2 -5 -8 -7 -35 -5 -60 3 -32
2 -41 -4 -27 -8 17 -10 15 -15 -15 -9 -45 -17 -136 -22 -230 -2 -41 -6 -86 -9
-100 -3 -14 -8 -44 -12 -67 -4 -24 -11 -43 -16 -43 -5 0 -6 76 -2 183 4 100 7
191 7 202 -1 11 6 85 14 165 20 188 21 505 2 645 -10 75 -20 238 -24 375 -2
89 -9 165 -15 165 -4 0 -10 45 -11 88 -2 72 -25 78 -39 10 -5 -21 -17 -74 -28
-118 -11 -44 -23 -107 -27 -140 -4 -33 -16 -103 -26 -155 -11 -52 -26 -133
-34 -180 -8 -47 -23 -134 -35 -195 -29 -152 -70 -388 -80 -460 -7 -50 -43
-288 -80 -530 -10 -71 -18 -168 -26 -320 -8 -168 -12 -258 -20 -395 -4 -69 -8
-148 -9 -176 -1 -28 -7 -60 -13 -70 -10 -16 -12 -13 -13 21 -1 22 -1 49 0 60
3 29 -8 67 -18 61 -5 -3 -12 -36 -15 -73 -4 -38 -9 -86 -13 -108 -5 -35 -7
-37 -14 -17 -5 12 -15 22 -23 22 -11 0 -14 17 -14 80 0 44 4 78 8 75 10 -6 18
62 9 77 -5 7 -3 18 2 24 6 8 9 64 6 141 -2 70 -6 244 -8 385 -3 142 -9 261
-13 265 -12 12 -29 10 -44 -4 -11 -11 -20 -7 -48 22 -18 19 -39 35 -45 35 -8
0 -8 4 0 14 8 10 9 16 1 21 -6 3 -8 11 -5 16 4 5 1 9 -4 9 -6 0 -11 7 -11 15
0 8 5 15 10 15 6 0 10 14 10 30 0 17 3 29 8 28 16 -6 50 41 45 62 -4 16 -8 18
-14 8 -5 -8 -9 15 -10 57 l-1 70 -13 -40 c-13 -39 -13 -39 -15 -10 -2 30 -2
30 -10 5 -7 -21 -8 -19 -9 18 -1 40 0 42 29 42 21 0 30 5 32 18 2 29 -3 66
-11 77 -5 5 -11 27 -15 48 -9 49 -29 37 -24 -14 2 -22 0 -39 -4 -39 -5 0 -8
14 -8 30 0 17 -4 30 -10 30 -6 0 -10 27 -10 61 0 63 -26 141 -40 119 -8 -14
-20 38 -19 84 0 30 1 30 10 7 5 -13 12 -22 14 -19 11 11 23 183 13 189 -6 4
-7 16 -2 30 9 26 9 26 26 154 6 50 16 93 22 97 6 4 5 12 -3 22 -11 13 -11 22
-1 46 7 16 9 41 6 55 -4 16 -2 25 5 25 8 0 8 4 2 13 -6 7 -7 47 -3 97 3 47 6
315 5 597 0 396 -3 515 -12 524 -7 7 -13 21 -13 32 0 26 -16 13 -25 -20 -3
-16 -12 -41 -20 -58 -28 -65 -45 -178 -39 -260 3 -44 5 -91 5 -105 -6 -201 2
-651 12 -702 7 -35 10 -80 7 -100 -4 -22 -1 -53 7 -75 7 -21 10 -45 6 -53 -3
-8 -7 -39 -8 -67 0 -29 -5 -56 -10 -60 -4 -5 -4 -1 0 7 8 13 6 13 -8 1 -9 -7
-16 -23 -16 -35 1 -11 -3 -39 -7 -61 -4 -22 -7 -52 -8 -67 -1 -14 -4 -24 -8
-22 -3 2 -9 -20 -13 -48 l-8 -53 -12 48 c-14 53 -29 75 -39 58 -4 -6 -3 -11 1
-11 5 0 9 -9 9 -20 0 -11 -6 -20 -13 -20 -7 0 -10 7 -6 15 3 10 0 15 -8 13
-11 -2 -14 18 -14 101 0 75 -4 105 -13 108 -6 3 -9 10 -6 15 5 7 2 8 -5 4 -8
-5 -10 -19 -6 -38 5 -21 4 -28 -4 -24 -6 4 -12 -3 -15 -16 -9 -41 -17 -93 -17
-110 -1 -27 -29 -31 -29 -4 0 14 5 26 11 28 8 3 9 18 4 46 -4 23 -11 40 -16
36 -5 -3 -7 -10 -3 -15 7 -13 -25 -109 -37 -109 -21 0 -32 49 -20 90 10 35 22
165 21 243 0 16 4 45 9 65 10 38 31 177 51 342 12 108 28 184 76 386 19 78 34
150 34 160 0 11 12 64 26 119 34 132 38 151 30 144 -14 -13 -57 -153 -65 -215
-9 -59 -21 -98 -21 -65 0 9 -3 9 -13 -1 -18 -20 -37 -66 -37 -93 0 -13 -9 -40
-20 -60 -11 -20 -20 -48 -21 -63 0 -35 -53 -175 -62 -166 -4 4 -7 22 -7 41 0
49 13 99 81 311 6 18 12 45 15 60 3 15 18 68 34 117 16 50 43 135 59 190 37
126 56 179 98 282 18 45 33 91 33 103 0 12 5 31 12 43 13 23 14 28 16 65 1 12
9 22 17 22 9 0 15 9 15 25 0 35 -15 31 -31 -7 -7 -18 -16 -35 -19 -38 -14 -11
-115 -314 -143 -427 -6 -24 -14 -43 -19 -43 -4 0 -8 -7 -8 -15 0 -42 -89 -267
-102 -259 -4 3 -8 -2 -8 -11 0 -9 -4 -14 -9 -11 -5 3 -11 -4 -14 -15 -3 -12
-10 -18 -16 -14 -6 3 -11 -1 -11 -9 0 -9 -3 -16 -7 -16 -5 0 -9 -13 -10 -28
-1 -15 -11 -49 -22 -75 -15 -34 -26 -47 -41 -47 -20 0 -20 -1 -5 -30 19 -37
19 -57 -1 -68 -9 -5 -24 -33 -34 -63 -35 -108 -60 -195 -66 -231 -3 -21 -11
-38 -17 -38 -6 0 -7 -3 -4 -7 4 -3 2 -12 -4 -20 -7 -7 -12 -31 -12 -53 0 -22
-4 -40 -8 -40 -5 0 -9 8 -9 18 -1 43 -19 -18 -24 -83 -9 -108 -15 -148 -24
-170 -14 -31 -32 -112 -32 -145 0 -16 -4 -31 -9 -34 -5 -3 -12 -34 -17 -68 -6
-59 -9 -91 -17 -193 -1 -22 -6 -45 -10 -52 -4 -6 -9 -25 -11 -43 -4 -38 -12
-46 -30 -31 -11 10 -15 2 -22 -46 -4 -32 -9 -62 -10 -68 -1 -5 -2 -20 -3 -33
0 -13 -5 -21 -10 -18 -14 9 1 -48 17 -60 10 -8 14 -33 14 -100 0 -49 -3 -100
-5 -114 -2 -14 -5 -36 -7 -50 -1 -16 -4 -20 -7 -10 -3 8 -10 18 -16 21 -5 4
-9 32 -8 62 1 55 0 56 -25 51 -16 -3 -23 -1 -19 6 3 5 1 10 -4 10 -6 0 -11 -7
-11 -16 0 -8 -5 -12 -10 -9 -6 4 -8 11 -5 16 4 5 1 9 -6 9 -7 0 -9 10 -7 25 3
13 1 22 -3 19 -5 -3 -9 1 -9 8 0 10 -3 9 -11 -2 -9 -12 -10 -12 -5 4 4 11 1
23 -6 28 -10 6 -10 10 -2 16 9 5 8 10 -1 19 -9 8 -15 9 -17 2 -4 -13 8 -174
16 -219 6 -27 3 -40 -12 -55 -10 -11 -21 -29 -25 -40 -16 -54 -36 -100 -43
-102 -15 -5 -9 207 5 217 9 5 10 13 4 25 -6 11 -5 34 4 68 17 68 17 107 -3
121 -12 9 -16 31 -16 96 0 80 1 85 27 108 l28 24 22 -28 c21 -26 22 -26 27 -7
3 11 -1 38 -8 59 -7 21 -11 48 -8 60 5 18 2 21 -20 19 -13 -2 -26 2 -29 8 -2
7 7 62 20 122 12 61 28 139 34 175 6 36 16 83 24 105 13 40 28 125 22 125 -2
0 -30 -11 -62 -24 -58 -23 -58 -24 -59 -66 -1 -28 -6 -45 -16 -50 -8 -4 -36
-17 -62 -30 -44 -21 -78 -22 -78 -2 0 5 -11 7 -24 5 -20 -4 -25 -1 -23 16 1
13 8 21 19 21 26 0 32 20 6 21 -16 1 -13 3 12 9 19 5 42 4 51 -1 13 -6 18 -4
22 11 3 11 1 23 -5 26 -5 4 -3 13 7 24 15 16 14 18 -6 23 -12 3 -18 10 -14 17
4 7 -2 18 -14 26 -12 8 -21 20 -21 26 0 7 4 7 13 0 19 -16 40 2 32 27 -3 12
-3 21 2 20 20 -4 22 3 9 34 -9 22 -10 39 -4 50 19 35 -6 54 -76 59 -107 7
-124 37 -74 133 11 21 33 73 50 115 16 41 34 80 39 86 12 14 66 163 91 249 11
39 21 100 21 136 1 37 5 65 10 62 9 -5 28 15 44 47 38 78 97 259 107 330 7 47
82 303 98 333 5 9 17 55 27 102 l18 84 -35 33 c-64 61 -168 240 -206 356 -23
68 -79 116 -216 186 -153 78 -150 78 -150 19 0 -26 -4 -75 -10 -108 -5 -33
-14 -157 -20 -275 -6 -126 -19 -256 -30 -315 -11 -55 -24 -122 -30 -150 -5
-27 -12 -68 -15 -89 -10 -59 -170 -279 -237 -323 -59 -39 -167 -83 -244 -99
-103 -22 -557 -11 -674 15 -25 5 -42 5 -49 -2 -7 -7 -22 -7 -47 1 -21 6 -41 9
-44 7 -12 -7 -202 13 -282 30 -40 9 -109 22 -153 30 -127 23 -247 89 -351 195
-46 47 -99 110 -118 140 -33 51 -42 75 -77 200 -27 97 -16 336 41 905 10 105
22 233 25 285 3 52 12 158 20 235 7 77 16 174 20 215 24 305 39 416 65 475 9
22 28 74 41 115 25 79 91 172 147 207 15 10 50 37 77 61 28 25 66 51 85 60 19
8 53 24 75 35 70 37 355 62 629 57 27 -1 57 -5 67 -10 20 -11 32 9 18 31 -7
12 -9 12 -9 -1 0 -11 -2 -12 -13 -1 -10 10 -9 14 6 22 9 6 17 19 17 29 0 10 5
22 11 26 6 3 8 15 6 26 -4 14 -1 18 8 14 16 -6 28 52 27 123 -1 25 2 50 7 55
5 6 11 38 15 71 4 33 12 98 17 145 6 47 12 137 15 200 2 63 6 124 8 135 3 11
5 23 5 27 1 5 7 7 14 5 8 -1 11 9 10 33 -5 74 -2 124 6 134 8 9 21 116 25 201
1 11 4 25 8 31 11 16 13 68 4 82 -4 7 -3 18 3 25 5 7 14 64 20 127 6 63 17
136 25 163 15 48 13 65 -4 25 -8 -21 -9 -20 -9 9 -1 17 6 64 14 104 9 40 15
91 15 113 -1 50 8 114 20 141 17 39 22 77 9 69 -9 -5 -10 -2 -5 12 9 21 9 24
0 73 -4 22 -3 32 4 27 10 -6 26 23 17 32 -3 3 -5 -1 -5 -8 0 -10 -3 -11 -10
-4 -8 8 -7 20 1 40 14 36 40 161 39 194 0 20 2 22 11 10 7 -11 8 -3 4 29 -5
29 -3 52 6 68 12 22 11 27 -5 39 -18 13 -18 15 6 76 30 74 44 153 27 142 -15
-9 -4 99 18 175 8 30 13 73 10 97 -2 24 -2 46 2 49 3 4 6 12 6 18 1 28 17 77
25 77 19 0 20 -21 6 -92 -8 -40 -20 -163 -27 -273 -14 -227 -14 -218 -1 -267
9 -36 1 -81 -21 -115 -5 -8 -4 -13 2 -13 18 0 13 -21 -14 -55 -13 -18 -22 -34
-20 -37 2 -2 0 -30 -4 -61 -6 -47 -5 -57 6 -53 15 6 18 -15 4 -29 -16 -17 -30
-84 -20 -91 6 -3 7 -19 4 -34 -3 -15 -2 -31 3 -34 6 -3 10 -22 10 -41 0 -25
-5 -36 -19 -40 -16 -5 -17 -9 -6 -28 7 -12 13 -37 12 -54 0 -18 3 -33 7 -33 4
0 8 -12 8 -26 0 -22 -2 -25 -15 -14 -8 7 -12 17 -8 23 3 6 1 7 -5 3 -14 -8
-16 -36 -3 -36 10 0 21 -36 13 -44 -5 -6 -15 -87 -16 -138 -1 -16 -4 -28 -7
-28 -14 0 -16 -52 -3 -57 8 -3 14 -9 14 -14 0 -4 -7 -6 -15 -3 -8 4 -15 5 -16
3 0 -2 -2 -24 -5 -49 -3 -25 -10 -70 -15 -100 -20 -107 -21 -130 -9 -145 11
-13 10 -14 -4 -9 -22 8 -21 -23 2 -49 13 -16 14 -19 2 -15 -10 4 -15 -1 -16
-16 -1 -11 -5 -56 -8 -98 -4 -49 -2 -79 5 -83 7 -5 6 -12 -3 -22 -7 -9 -11
-29 -9 -45 2 -20 -1 -28 -8 -24 -6 4 -11 15 -11 24 0 15 -1 15 -17 0 -14 -15
-14 -19 -2 -34 11 -13 11 -18 1 -21 -6 -3 -10 -9 -6 -14 3 -5 1 -9 -4 -9 -11
0 -26 -149 -17 -172 4 -9 13 -14 21 -11 10 4 12 0 8 -11 -3 -9 -12 -16 -20
-16 -16 0 -16 0 -20 -105 -2 -56 2 -87 12 -102 12 -20 12 -22 -6 -28 -15 -5
-20 -15 -20 -45 0 -21 -5 -42 -12 -46 -8 -5 -6 -11 7 -20 16 -12 16 -14 1 -29
-19 -20 -21 -42 -4 -48 10 -4 10 -7 1 -18 -10 -10 -8 -18 10 -37 14 -16 18
-26 11 -29 -7 -2 -10 -12 -7 -22 3 -10 -2 -32 -11 -49 -20 -38 -20 -42 -1 -42
8 0 15 -4 15 -10 0 -5 -9 -10 -21 -10 -15 0 -19 -4 -15 -16 3 -9 6 -27 6 -40
0 -15 4 -23 11 -19 5 4 28 -5 49 -20 34 -24 45 -26 92 -20 29 3 76 1 103 -5
28 -6 73 -15 101 -20 28 -4 60 -12 70 -18 11 -5 47 -17 82 -26 35 -9 83 -29
107 -46 24 -17 63 -39 87 -49 90 -38 198 -152 257 -270 43 -85 61 -169 61
-291 0 -100 -23 -363 -36 -402 -5 -15 1 -18 37 -18 48 0 135 -47 299 -159 111
-76 104 -63 -37 75 l-103 101 0 52 c0 71 16 74 98 18 101 -69 304 -250 332
-296 14 -23 28 -41 32 -41 5 0 8 -5 8 -10 0 -18 72 -170 80 -170 5 0 11 44 14
98 10 158 24 274 51 404 28 132 119 739 136 903 18 168 15 179 -80 282 -45 48
-97 99 -115 113 -40 30 -106 121 -106 147 0 48 12 60 88 93 83 37 84 50 1 26
-69 -21 -69 -21 -69 12 0 23 24 51 50 57 5 2 36 15 90 39 l35 15 -62 -6 c-53
-5 -63 -3 -63 10 0 18 55 125 78 151 16 18 16 18 -3 12 -16 -4 -30 6 -64 45
-38 44 -43 54 -33 70 7 10 12 30 12 43 0 28 33 56 66 56 17 0 25 -9 34 -35 6
-19 16 -33 21 -30 14 9 11 41 -8 79 -13 26 -26 37 -50 42 -45 9 -23 -25 -237
369 -65 121 -126 231 -135 245 -9 14 -29 51 -45 83 -16 31 -33 60 -37 63 -5 3
-9 13 -9 23 0 10 -9 26 -20 36 -11 10 -20 23 -20 30 0 17 -39 96 -66 131 -13
17 -21 34 -17 37 3 3 -3 18 -14 34 -25 38 -44 75 -47 96 -1 9 -11 27 -23 39
-29 33 -57 108 -44 121 6 6 11 15 11 21 0 5 -7 1 -15 -10 -13 -18 -14 -18 -15
-1 0 10 -5 15 -10 12 -6 -3 -15 6 -20 20 -16 41 -11 52 10 26 27 -31 25 -15
-3 34 -13 22 -30 39 -39 39 -17 -2 -15 18 4 42 5 7 2 16 -7 24 -8 7 -15 18
-15 26 0 7 -4 16 -10 19 -13 8 -1 -25 17 -47 9 -9 10 -18 5 -22 -6 -3 -13 1
-16 10 -3 8 -11 12 -17 8 -8 -4 -9 -3 -5 5 10 16 -3 51 -19 51 -7 0 -15 7 -19
15 -3 9 0 15 9 15 21 0 18 16 -7 41 -13 12 -17 19 -11 15 9 -5 11 -2 7 8 -3 9
-9 15 -12 14 -21 -2 -31 4 -26 17 4 9 -5 26 -20 42 -14 14 -26 30 -26 34 0 5
-13 28 -30 51 -31 42 -45 93 -15 54 23 -30 18 -14 -11 38 -14 25 -30 44 -35
41 -5 -4 -6 2 -2 11 4 12 3 15 -5 10 -8 -5 -10 -2 -6 8 4 10 -1 18 -11 22 -9
4 -32 39 -51 78 -32 66 -55 109 -76 146 -4 8 -14 26 -20 40 -7 14 -27 49 -45
78 -18 29 -33 56 -33 61 0 4 -11 21 -24 36 -14 16 -24 31 -23 34 3 15 -15 51
-24 46 -5 -4 -9 12 -9 34 0 23 3 41 8 41 4 0 17 -16 30 -35 12 -19 27 -35 32
-35 6 0 10 -9 10 -21 0 -11 77 -156 172 -322 94 -166 218 -385 276 -487 57
-102 193 -340 302 -530 459 -803 674 -1196 700 -1278 13 -40 15 -42 27 -26 7
10 13 26 13 36 0 10 6 21 14 24 22 9 52 -12 86 -60 17 -24 42 -48 55 -54 13
-6 75 -55 137 -108 92 -79 118 -107 139 -153 67 -141 73 -209 40 -406 -67
-395 -86 -656 -77 -1044 6 -296 9 -320 48 -434 20 -58 34 -78 110 -155 65 -65
97 -90 130 -100 70 -22 105 -49 130 -102 18 -38 28 -49 46 -50 16 0 26 -7 29
-21 5 -16 12 -20 30 -16 37 7 126 -19 145 -43 16 -20 18 -20 68 -4 85 28 170
0 225 -72 l30 -40 85 1 c83 0 86 1 114 33 33 38 45 39 103 11 l43 -21 34 21
c41 26 113 28 184 5 48 -16 53 -16 77 0 25 17 30 17 88 -3 116 -38 182 -50
277 -52 l95 -2 7 54 c4 30 10 68 13 84 l5 31 87 -8 c108 -9 110 -10 118 -48 4
-17 9 -29 13 -26 10 10 32 -16 32 -39 0 -12 11 -34 25 -49 13 -14 21 -26 18
-26 -3 0 1 -8 10 -18 10 -10 27 -18 40 -17 30 3 40 -4 27 -20 -8 -9 -6 -14 5
-19 11 -4 14 -2 9 7 -6 9 -4 9 8 -1 13 -10 19 -10 32 3 14 14 16 14 16 2 0 -9
12 -20 28 -25 15 -6 20 -11 12 -11 -13 -1 -13 -3 -1 -10 11 -7 10 -15 -8 -45
-13 -20 -26 -34 -31 -31 -9 6 -35 -53 -27 -62 9 -8 -33 -86 -55 -101 -13 -10
-17 -20 -12 -35 6 -20 6 -20 -10 -4 -24 23 -27 21 -16 -9 9 -22 8 -25 -6 -20
-12 5 -15 2 -10 -10 3 -8 6 -18 6 -20 0 -3 5 -2 10 1 6 3 13 0 16 -9 3 -8 12
-12 20 -9 8 3 11 9 8 14 -3 5 4 9 15 9 12 0 21 5 21 10 0 6 6 10 13 10 6 0 32
16 56 35 24 19 47 35 51 35 19 0 17 -16 -5 -45 -14 -17 -25 -35 -25 -39 0 -5
-14 -28 -30 -53 -17 -24 -30 -48 -30 -54 0 -5 -4 -9 -10 -9 -5 0 -10 -7 -10
-15 0 -8 -4 -23 -10 -33 -5 -9 -17 -34 -26 -55 -24 -53 -132 -175 -249 -281
-94 -84 -206 -166 -228 -166 -15 0 2 110 24 155 10 22 41 65 67 96 32 38 53
73 61 105 14 54 42 114 52 114 10 0 35 80 55 178 10 45 21 78 24 72 7 -11 -21
-214 -35 -259 l-7 -23 31 23 c17 12 33 30 36 40 3 9 13 20 21 23 8 3 12 10 9
16 -3 5 -2 10 3 10 6 0 12 7 15 14 8 21 -20 9 -29 -12 -16 -37 -22 72 -17 327
5 260 1 331 -17 331 -5 0 -14 -19 -20 -42 -17 -67 -31 -100 -58 -137 -14 -19
-31 -50 -38 -70 -12 -33 -14 -34 -20 -13 -8 28 -15 28 -40 0 -23 -27 -39 -58
-56 -112 -7 -22 -20 -42 -28 -44 -13 -5 -13 -3 -1 12 15 18 9 32 -9 21 -7 -4
-9 -18 -5 -32 3 -15 0 -31 -7 -41 -10 -12 -10 -16 -1 -19 15 -5 -4 -57 -42
-115 -13 -20 -27 -48 -31 -63 -4 -17 -9 -22 -14 -15 -10 16 -58 -14 -101 -63
-37 -42 -49 -46 -49 -17 0 11 4 20 9 20 8 0 111 135 111 145 0 3 16 28 35 56
33 48 45 89 27 89 -4 0 -39 -45 -77 -101 -88 -126 -153 -209 -166 -209 -5 0
-9 -5 -9 -12 0 -9 3 -9 12 0 24 24 31 11 8 -13 -13 -14 -30 -23 -38 -20 -7 3
-22 0 -33 -5 -37 -20 -20 10 41 71 33 33 67 76 75 96 32 75 107 190 166 253
67 72 94 120 85 156 -6 24 -6 24 -26 4 -11 -11 -24 -20 -29 -20 -12 0 -110
-149 -131 -199 -6 -13 -24 -44 -40 -67 -16 -24 -33 -59 -39 -79 -5 -19 -16
-41 -24 -50 -8 -8 -17 -20 -19 -27 -4 -10 -8 -10 -21 1 -14 11 -17 11 -17 0 0
-8 -9 1 -21 20 -25 41 -54 275 -45 364 6 57 -4 74 -22 40 -5 -10 -13 -72 -17
-138 -4 -66 -13 -131 -20 -145 -7 -14 -16 -56 -20 -93 -4 -46 -12 -70 -21 -74
-9 -3 -13 -12 -10 -20 4 -9 -1 -17 -14 -20 -13 -3 -19 -13 -17 -27 3 -29 15
-36 65 -36 23 0 42 -4 42 -10 0 -5 -9 -10 -19 -10 -39 0 -47 -9 -43 -50 2 -22
8 -43 13 -46 5 -3 9 -22 9 -42 0 -25 3 -32 9 -23 5 7 11 9 13 5 14 -26 33
-119 37 -186 2 -33 92 -18 114 18 4 8 14 14 21 14 8 0 19 6 25 14 15 18 51 17
44 -1 -3 -8 -10 -12 -16 -10 -6 2 -22 -8 -36 -23 -31 -30 -59 -44 -126 -63
l-50 -14 -2 -49 c-1 -27 -9 -67 -19 -89 -22 -50 -25 -65 -13 -65 5 0 9 -4 9
-8 0 -11 -46 -32 -70 -32 -10 0 -21 -4 -24 -9 -3 -4 7 -6 22 -4 l27 5 -30 -19
c-29 -19 -89 -43 -106 -43 -4 0 -8 8 -8 18 0 9 -4 35 -10 57 -5 22 -17 87 -26
145 -8 57 -19 108 -23 112 -4 4 -17 1 -29 -7 -19 -13 -20 -22 -16 -102 2 -48
7 -99 12 -113 4 -14 7 -52 7 -84 l-1 -60 -52 -31 c-88 -53 -127 -90 -118 -111
5 -11 10 -32 12 -49 13 -94 16 -99 65 -113 51 -14 50 -12 129 -194 43 -98 57
-103 17 -5 -16 39 -31 98 -34 130 -2 32 -11 72 -19 87 -8 16 -15 38 -15 50 0
25 25 27 39 3 5 -10 13 -15 17 -11 9 9 -14 38 -30 38 -7 0 -22 11 -35 24 -18
19 -20 27 -11 47 25 55 163 84 345 73 137 -8 162 -8 235 -1 61 6 60 5 58 19
-2 8 10 13 32 14 57 1 60 3 60 30 0 25 2 26 53 22 50 -3 52 -2 55 25 2 15 9
27 18 27 28 0 13 18 -21 24 -20 4 -33 11 -29 17 3 5 15 7 27 2 12 -4 60 -8
107 -8 47 -1 104 -5 128 -10 57 -10 55 8 -4 35 -51 24 -51 30 3 39 32 5 38 10
38 31 0 20 -6 26 -30 31 l-30 6 30 8 c47 12 95 44 89 60 -9 23 61 81 128 105
35 12 70 25 78 28 8 3 20 6 25 7 35 5 167 46 179 56 5 4 6 15 2 24 -5 14 -9
15 -21 5 -9 -7 -18 -10 -21 -7 -4 3 -28 -3 -55 -13 -29 -12 -51 -16 -54 -10
-3 6 1 10 9 10 19 0 22 30 4 30 -29 1 63 39 135 56 68 16 75 19 55 28 -20 8
-16 10 32 17 30 5 61 6 68 4 6 -2 12 0 12 5 0 6 -11 10 -25 10 l-24 0 24 25
c19 18 25 35 25 69 0 50 14 67 30 36 13 -24 3 -50 -11 -29 -6 9 -9 1 -9 -24
l0 -38 63 7 c68 7 90 23 81 61 -9 34 4 76 21 69 8 -3 28 8 46 25 39 37 49 31
18 -12 -12 -17 -17 -30 -11 -28 14 5 192 227 228 284 36 56 172 294 189 330
52 108 144 342 159 400 12 52 16 105 14 207 -2 76 -6 138 -10 138 -5 0 -8 7
-8 16 0 8 5 12 10 9 6 -4 10 8 10 29 0 19 6 36 12 38 9 3 14 40 16 117 3 62 7
109 10 106 3 -3 6 -18 7 -32 0 -47 21 -36 24 13 2 39 -1 46 -13 41 -12 -5 -16
0 -15 21 0 22 2 23 8 9 13 -35 30 5 37 87 5 65 4 77 -7 71 -11 -6 -11 -5 -2 5
15 16 6 40 -13 33 -8 -3 -14 1 -14 11 0 9 -4 16 -10 16 -5 0 -7 7 -4 15 4 8 2
15 -4 15 -6 0 -12 -6 -15 -12 -2 -7 -3 13 -1 45 3 45 1 57 -10 57 -23 0 -30
20 -16 45 11 20 15 22 26 10 8 -7 14 -18 14 -24 0 -20 24 -61 36 -61 24 0 42
86 24 119 -8 16 -15 18 -39 11 -26 -7 -29 -5 -39 27 -8 25 -8 43 0 61 6 15 14
36 19 47 13 34 18 89 9 110 -5 11 -9 14 -9 8 -1 -16 -31 -17 -31 -2 0 5 -4 8
-9 5 -5 -3 -14 8 -21 25 -7 16 -22 36 -34 44 l-20 15 21 0 c12 0 24 -6 26 -12
4 -8 6 -7 6 4 1 11 7 15 21 11 23 -6 99 27 100 44 0 6 7 19 16 28 15 14 15 20
2 53 -8 20 -20 36 -27 34 -15 -3 -4 39 13 50 18 12 46 -31 46 -71 0 -54 18
-109 40 -121 11 -6 17 -16 15 -23 -3 -6 11 -28 30 -49 25 -27 31 -37 20 -41
-7 -3 -16 -1 -19 6 -3 8 -8 6 -16 -6 -16 -25 -31 -11 -20 19 8 19 6 33 -7 57
l-18 32 -5 -40 c-3 -22 -1 -43 4 -46 5 -4 7 -16 4 -26 -3 -11 1 -28 8 -38 18
-24 18 -49 2 -39 -7 4 -4 -2 6 -14 11 -12 25 -22 31 -22 7 0 24 -12 38 -26 21
-21 26 -34 22 -60 -2 -19 0 -34 5 -34 13 0 90 -70 90 -81 0 -10 -79 -64 -83
-58 -2 2 -13 18 -25 36 -13 17 -32 33 -44 35 -16 2 -22 10 -22 30 0 14 6 33
12 41 11 12 7 18 -21 36 -19 12 -37 21 -41 21 -3 0 -4 -46 -1 -102 4 -92 3
-101 -10 -84 -8 11 -18 16 -22 12 -10 -10 -9 -582 1 -750 5 -73 12 -123 16
-115 10 18 15 253 7 345 -3 38 -2 76 2 83 11 18 30 -228 26 -336 -4 -95 2
-116 23 -82 7 10 8 19 3 19 -6 0 -9 37 -8 85 1 47 5 85 9 85 4 0 14 -10 22
-22 9 -12 16 -17 16 -10 0 9 7 11 22 6 32 -10 165 -6 187 6 11 5 21 18 21 28
6 57 6 202 1 202 -3 0 -6 20 -5 44 1 29 -3 47 -12 50 -17 7 -27 -27 -20 -67 3
-18 2 -45 -3 -62 l-8 -30 -6 25 c-10 42 -14 130 -7 130 4 0 8 30 9 68 1 37 6
68 12 70 13 5 11 89 -2 98 -6 4 -9 19 -5 37 9 42 -14 149 -31 143 -8 -3 -15 7
-19 29 -3 18 -13 36 -21 39 -8 3 -11 11 -8 16 5 8 11 7 21 -1 8 -6 14 -8 14
-3 0 5 4 15 9 23 7 11 13 10 35 -4 29 -20 35 -37 9 -29 -14 5 -15 4 -4 -4 7
-5 11 -14 7 -20 -3 -6 -2 -13 3 -16 5 -3 12 5 15 19 4 14 11 25 17 25 8 0 8
-4 0 -14 -9 -11 -8 -21 7 -46 l20 -31 13 30 c7 16 17 27 21 25 7 -5 12 13 11
44 -1 20 14 13 22 -10 6 -22 7 -22 17 5 7 20 7 57 -1 125 -7 53 -13 107 -14
119 -1 12 -8 28 -14 35 -15 14 -17 42 -3 33 6 -3 10 1 10 9 0 8 -5 18 -11 21
-6 4 -8 13 -5 21 3 8 0 14 -7 14 -8 0 -6 4 3 10 10 6 11 10 3 10 -7 0 -13 5
-13 11 0 12 -26 47 -76 102 -19 20 -32 37 -28 37 3 0 1 7 -6 15 -25 30 -1 14
39 -27 62 -61 115 -129 134 -168 9 -19 34 -52 56 -72 31 -29 44 -53 60 -105
22 -75 63 -332 54 -345 -10 -18 -33 15 -33 48 0 18 -4 35 -9 38 -5 3 -7 15 -4
26 3 11 2 28 -2 37 -5 10 -7 27 -6 38 1 11 -5 29 -13 40 -14 19 -15 19 -21 -8
-4 -15 -5 -41 -1 -58 4 -22 2 -29 -7 -26 -6 2 -11 10 -9 17 3 11 0 11 -12 1
-14 -11 -14 -15 -1 -28 18 -17 20 -37 3 -27 -8 5 -8 3 -2 -7 11 -17 33 -97 34
-121 0 -25 -21 -23 -27 2 -3 11 -10 20 -15 20 -5 0 -6 9 -3 21 6 19 -17 59
-35 59 -10 0 -20 -39 -11 -44 4 -3 18 -38 30 -78 13 -40 28 -81 33 -92 7 -13
6 -21 -3 -27 -10 -6 -10 -11 2 -25 11 -13 11 -18 2 -21 -7 -3 -13 -9 -13 -14
0 -6 4 -8 9 -4 5 3 13 0 17 -6 3 -6 2 -14 -4 -18 -8 -5 -6 -20 5 -51 19 -54
11 -205 -11 -197 -9 4 -13 -6 -14 -30 -1 -20 -9 -41 -17 -47 -9 -6 -21 -23
-28 -36 -7 -14 -21 -25 -32 -25 -22 1 -46 -25 -38 -38 3 -5 1 -19 -5 -30 -6
-12 -17 -50 -26 -85 -8 -34 -22 -69 -30 -78 -20 -20 -20 -43 -1 -50 8 -4 15
-13 15 -21 0 -13 -3 -13 -15 -3 -13 11 -15 10 -10 -1 9 -25 11 -549 2 -549 -4
0 -6 -28 -4 -61 2 -34 -1 -89 -7 -123 -6 -34 -8 -86 -5 -116 3 -30 2 -61 -4
-67 -6 -9 -5 -23 3 -43 19 -46 33 -25 26 39 -6 52 -5 55 9 36 10 -12 13 -30
10 -46 -4 -17 1 -40 14 -64 15 -28 20 -32 23 -18 2 10 10 -5 16 -34 17 -75 3
-102 -34 -65 -19 19 -20 21 2 -33 3 -8 2 -15 -3 -15 -11 0 -33 44 -33 65 0 18
-17 20 -22 3 -3 -7 2 -42 10 -78 15 -72 16 -76 13 -105 -2 -19 -2 -19 -12 -2
-10 17 -12 17 -25 -8 -15 -30 -13 -44 22 -152 25 -74 32 -157 14 -168 -5 -3
-15 6 -22 20 -9 21 -9 28 1 35 11 6 11 20 -3 77 -9 38 -22 75 -27 83 -18 26
-1 -90 16 -117 24 -36 7 -43 -22 -9 l-25 30 7 -35 c5 -18 9 -43 11 -54 2 -11
6 -31 9 -45 3 -14 7 -43 9 -65 1 -22 17 -71 34 -108 38 -82 48 -117 33 -117
-6 0 -17 24 -26 53 -9 30 -22 62 -29 73 -13 17 -14 15 -12 -24 1 -23 7 -47 14
-54 20 -20 14 -29 -15 -26 -31 3 -31 7 -12 -102 6 -36 10 -74 10 -85 0 -11 -1
-36 -2 -55 -1 -29 -2 -31 -11 -16 -6 10 -12 33 -13 49 -1 17 -8 33 -15 35 -22
8 -4 -65 29 -114 34 -52 46 -119 37 -207 -6 -56 -3 -73 34 -172 22 -60 40
-120 40 -132 0 -12 3 -23 8 -25 7 -3 52 -107 52 -121 0 -5 -4 -5 -10 -2 -6 4
-10 -5 -10 -19 0 -14 -5 -26 -11 -26 -7 0 -9 -11 -6 -27 3 -15 0 -37 -6 -50
-11 -25 4 -88 39 -172 8 -18 17 -54 20 -79 2 -25 10 -50 17 -54 9 -6 9 -10 -3
-18 -13 -8 -13 -14 -1 -42 7 -18 17 -53 21 -78 5 -25 16 -65 24 -89 9 -24 16
-55 15 -70 0 -26 0 -26 -11 -3 -16 33 -28 27 -18 -9 5 -18 7 -36 4 -40 -3 -5
2 -6 11 -3 17 7 17 2 -5 -83 -5 -18 -5 -35 0 -38 11 -7 19 -54 10 -60 -4 -2
-13 7 -20 20 -18 34 -33 31 -25 -5 7 -33 -1 -37 -31 -15 -32 24 -47 19 -42
-15 3 -17 1 -33 -4 -36 -10 -7 -24 31 -33 90 -7 46 -25 71 -33 46 -7 -21 -33
63 -27 88 4 14 2 21 -4 18 -21 -13 -22 -64 -2 -104 32 -63 36 -126 12 -219
-27 -105 -27 -116 8 -155 96 -109 160 -297 189 -553 6 -56 20 -104 46 -162 37
-83 68 -203 107 -418 18 -99 23 -162 24 -363 l2 -243 215 1 c118 0 225 3 239
5 53 9 368 25 607 31 l252 7 0 237 0 238 -92 6 c-51 3 -183 7 -293 8 -214 2
-235 6 -235 52 0 38 36 79 123 139 35 23 50 27 114 27 41 0 84 5 95 11 12 7
80 15 152 20 72 4 132 8 134 8 1 1 2 2766 2 6146 l0 6145 -5400 0 -5400 0 0
-3780z m339 1401 c10 -6 29 -11 44 -13 14 -2 30 -7 34 -12 4 -4 4 -7 -2 -5
-25 6 -67 -15 -76 -38 -5 -14 -18 -27 -29 -30 -11 -3 -20 -9 -20 -14 0 -19
-39 -8 -54 16 -22 33 -20 62 4 75 11 6 20 8 20 5 0 -3 12 1 28 9 33 18 30 18
51 7z m2550 -33 c1 -5 -3 -8 -9 -8 -5 0 -10 12 -9 28 0 24 1 25 9 7 5 -11 9
-23 9 -27z m61 -42 c0 -2 -7 -6 -15 -10 -8 -3 -15 -1 -15 4 0 6 7 10 15 10 8
0 15 -2 15 -4z m-177 -111 c-3 -13 -9 -22 -14 -19 -10 6 -12 38 -3 47 13 12
21 -3 17 -28z m127 -59 c0 -15 -18 -31 -26 -23 -7 7 7 37 17 37 5 0 9 -6 9
-14z m-124 -713 c-11 -11 -17 4 -9 23 7 18 8 18 11 1 2 -10 1 -21 -2 -24z
m-86 -1314 c0 -6 -4 -7 -10 -4 -5 3 -10 11 -10 16 0 6 5 7 10 4 6 -3 10 -11
10 -16z m-60 -198 c0 -12 -31 -43 -37 -37 -7 7 16 46 27 46 6 0 10 -4 10 -9z
m5480 -261 c0 -5 -4 -10 -10 -10 -5 0 -10 5 -10 10 0 6 5 10 10 10 6 0 10 -4
10 -10z m570 -20 c0 -5 7 -10 15 -10 8 0 29 -9 47 -20 35 -21 53 -26 44 -11
-3 5 7 8 22 8 15 0 21 -2 15 -4 -19 -7 -16 -42 7 -70 11 -14 20 -32 20 -39 0
-25 15 -15 16 11 1 14 -1 23 -5 21 -3 -2 -11 7 -18 20 -20 43 8 23 42 -30 14
-20 16 -31 8 -33 -7 -3 -10 -10 -8 -16 2 -7 6 -24 9 -39 4 -16 13 -28 21 -28
8 0 15 -5 15 -11 0 -5 -5 -7 -12 -3 -6 4 0 -8 15 -28 15 -19 27 -41 27 -49 0
-8 5 -21 11 -29 10 -15 8 9 -8 95 -3 21 -2 27 6 20 5 -6 12 -26 15 -45 11 -82
18 -101 32 -89 11 9 14 8 14 -4 0 -8 3 -24 7 -34 6 -16 5 -17 -13 -3 -31 25
-77 47 -112 55 -27 5 -36 15 -57 60 -13 29 -29 56 -35 60 -5 3 -17 21 -24 40
-20 47 -84 131 -112 146 -13 7 -24 16 -24 21 0 12 12 9 34 -7 23 -17 36 -19
36 -5 0 6 -18 18 -40 27 -41 18 -52 33 -25 33 8 0 15 -4 15 -10z m-755 -20 c3
-5 1 -10 -4 -10 -6 0 -11 5 -11 10 0 6 2 10 4 10 3 0 8 -4 11 -10z m330 0 c8
-13 -15 -13 -35 0 -12 8 -11 10 7 10 12 0 25 -4 28 -10z m-375 -10 c0 -5 -2
-10 -4 -10 -3 0 -8 5 -11 10 -3 6 -1 10 4 10 6 0 11 -4 11 -10z m425 -18 c-3
-3 -11 0 -18 7 -9 10 -8 11 6 5 10 -3 15 -9 12 -12z m60 8 c3 -5 1 -10 -4 -10
-6 0 -11 5 -11 10 0 6 2 10 4 10 3 0 8 -4 11 -10z m525 -11 c0 -11 -4 -17 -10
-14 -5 3 -10 13 -10 21 0 8 5 14 10 14 6 0 10 -9 10 -21z m30 -73 c0 -3 -4 -8
-10 -11 -5 -3 -10 -1 -10 4 0 6 5 11 10 11 6 0 10 -2 10 -4z m-475 -26 c3 -5
2 -10 -4 -10 -5 0 -13 5 -16 10 -3 6 -2 10 4 10 5 0 13 -4 16 -10z m505 -28
c0 -7 -4 -10 -10 -7 -5 3 -10 16 -10 28 0 18 2 19 10 7 5 -8 10 -21 10 -28z
m-415 -50 c-2 -3 -12 1 -21 9 -16 13 -16 12 -5 -8 6 -13 16 -24 21 -24 6 -1
14 -2 19 -3 5 0 13 -5 18 -10 5 -5 3 -6 -4 -2 -7 4 -13 2 -13 -3 0 -9 -37 -10
-112 -2 -5 1 -8 5 -8 9 0 5 14 8 30 7 17 -1 30 2 30 7 0 4 -6 8 -13 8 -8 0
-13 13 -12 38 l0 39 37 -30 c21 -17 36 -32 33 -35z m385 12 c0 -8 -4 -12 -10
-9 -5 3 -10 10 -10 16 0 5 5 9 10 9 6 0 10 -7 10 -16z m40 0 c0 -8 -5 -12 -10
-9 -6 4 -8 11 -5 16 9 14 15 11 15 -7z m-340 -64 c0 -5 -4 -10 -10 -10 -5 0
-10 5 -10 10 0 6 5 10 10 10 6 0 10 -4 10 -10z m120 -25 c0 -8 -4 -17 -10 -20
-6 -4 -10 5 -10 20 0 15 4 24 10 20 6 -3 10 -12 10 -20z m83 -15 c-4 -17 -23
-29 -23 -16 0 2 -3 11 -6 20 -4 11 0 16 14 16 15 0 19 -5 15 -20z m-158 -17
l18 -28 -21 19 c-12 11 -22 23 -22 28 0 14 7 9 25 -19z m-8341 -100 c3 -4 14
-8 22 -9 33 -5 41 -13 47 -48 9 -53 -11 -85 -56 -93 -21 -3 -45 -12 -53 -21
-17 -16 -16 -18 -31 26 -9 25 -9 35 2 45 7 7 16 29 21 48 8 35 11 45 13 54 2
7 27 6 35 -2z m8563 -122 c3 -11 11 -17 18 -15 17 7 127 -125 156 -186 12 -25
22 -55 23 -68 0 -13 6 -20 14 -17 6 2 12 -2 12 -9 0 -8 7 -27 15 -42 28 -53
15 -59 -27 -13 -105 114 -168 189 -168 201 0 7 -5 20 -11 28 -9 12 -10 12 -5
-3 4 -12 2 -17 -6 -14 -8 2 -12 20 -11 46 1 24 -2 39 -8 36 -5 -4 -9 7 -9 22
0 16 -5 34 -12 41 -9 9 -9 12 1 12 7 0 15 -9 18 -19z m-205 -333 c-9 -26 -11
-28 -7 -5 4 20 1 27 -10 27 -18 0 -20 16 -2 23 22 8 31 -11 19 -45z m-30 -100
c-29 -64 -44 -117 -46 -160 0 -16 -4 -28 -7 -28 -3 0 -4 -12 -2 -27 4 -25 3
-26 -7 -9 -9 14 -9 33 0 80 12 63 72 215 78 197 2 -5 -6 -29 -16 -53z m565 10
c-3 -8 -6 -5 -6 6 -1 11 2 17 5 13 3 -3 4 -12 1 -19z m-457 -128 c0 -5 -5 -10
-11 -10 -5 0 -7 5 -4 10 3 6 8 10 11 10 2 0 4 -4 4 -10z m615 -20 c3 -5 1 -10
-4 -10 -6 0 -11 5 -11 10 0 6 2 10 4 10 3 0 8 -4 11 -10z m-2435 -96 c6 -14
14 -23 19 -20 5 3 21 -14 35 -39 15 -25 31 -45 37 -45 5 0 21 -12 34 -26 21
-22 23 -23 18 -5 -6 24 22 40 40 22 17 -17 37 -13 37 8 0 11 4 23 10 26 6 3 7
-1 4 -9 -4 -11 0 -16 14 -16 13 0 23 -9 28 -22 9 -29 35 -70 41 -64 3 2 -3 18
-11 35 -9 16 -16 38 -15 48 0 10 9 -2 20 -27 11 -24 18 -54 15 -66 -4 -13 -1
-24 7 -27 6 -3 7 -6 2 -6 -12 -1 -65 46 -65 57 0 9 -68 9 -95 -1 -25 -9 -51
-47 -37 -56 6 -3 10 -24 10 -45 0 -52 46 -96 101 -96 20 0 63 -7 96 -14 33 -8
76 -12 95 -10 30 3 42 -2 76 -33 54 -50 71 -84 83 -163 9 -59 7 -69 -13 -110
-12 -25 -26 -43 -30 -42 -5 2 -12 -2 -17 -9 -6 -10 -11 -10 -22 0 -20 16 -30
0 -29 -42 0 -17 -6 -36 -15 -42 -18 -13 -10 -35 12 -35 20 0 35 -32 28 -59 -4
-17 -8 -19 -19 -10 -8 6 -20 9 -28 6 -8 -3 -25 3 -38 14 -20 17 -21 18 -3 12
11 -3 17 -2 13 2 -10 10 -118 13 -118 3 0 -5 -9 -8 -20 -8 -13 0 -20 -7 -20
-20 0 -23 -48 -73 -61 -64 -5 3 -9 -2 -9 -10 0 -9 5 -16 12 -16 6 0 3 -8 -8
-19 -10 -10 -22 -17 -26 -15 -3 2 -8 0 -10 -6 -1 -5 -19 -11 -40 -14 -20 -2
-45 -9 -55 -15 -11 -5 -64 -19 -119 -30 l-99 -20 -42 20 c-86 41 -111 113 -83
234 10 42 16 97 13 123 -3 37 -2 43 7 29 6 -9 8 -22 5 -27 -6 -10 10 -47 30
-67 20 -19 150 -55 190 -51 53 4 63 26 34 70 -15 24 -38 41 -71 54 -26 10 -67
37 -90 61 -24 23 -49 42 -55 43 -8 0 -13 13 -13 30 0 17 -5 30 -10 30 -6 0 -8
-11 -4 -25 3 -14 3 -33 -1 -42 -5 -15 -9 -11 -22 17 -10 23 -17 79 -20 160 -5
120 -4 129 27 225 50 157 118 243 148 188 11 -19 42 -27 42 -11 0 6 -8 17 -17
25 -17 14 -17 14 2 8 37 -12 40 -10 43 33 4 48 9 52 22 16z m2390 -67 c0 -18
-2 -19 -10 -7 -13 20 -13 43 0 35 6 -3 10 -16 10 -28z m-2125 4 c3 -5 1 -12
-5 -16 -5 -3 -10 1 -10 9 0 18 6 21 15 7z m1811 -58 c-11 -11 -17 4 -9 23 7
18 8 18 11 1 2 -10 1 -21 -2 -24z m-1836 -233 c0 -5 -5 -10 -11 -10 -5 0 -7 5
-4 10 3 6 8 10 11 10 2 0 4 -4 4 -10z m1784 -106 c10 -25 -1 -29 -14 -5 -6 12
-7 21 -1 21 5 0 12 -7 15 -16z m-1324 -40 c0 -8 -4 -12 -10 -9 -5 3 -10 10
-10 16 0 5 5 9 10 9 6 0 10 -7 10 -16z m703 -169 c9 -48 -105 -189 -193 -240
-69 -40 -111 -55 -149 -53 -22 1 -41 5 -41 10 0 4 -7 8 -15 8 -12 0 -13 4 -5
19 5 11 10 29 10 41 0 12 4 19 9 15 5 -3 11 5 13 17 3 25 29 28 116 13 37 -7
46 -5 67 15 27 25 50 83 42 104 -6 16 11 36 30 36 29 0 9 -90 -33 -147 -30
-41 -3 -24 47 29 51 54 53 59 64 121 7 42 30 50 38 12z m-350 -32 c-13 -33
-33 -68 -33 -57 0 21 22 74 31 74 4 0 5 -8 2 -17z m-206 -175 c-3 -8 -6 -5 -6
6 -1 11 2 17 5 13 3 -3 4 -12 1 -19z m-262 -27 c3 -5 1 -12 -5 -16 -5 -3 -10
1 -10 9 0 18 6 21 15 7z m-6685 -600 c0 -5 -11 -16 -25 -25 -18 -12 -24 -23
-20 -39 4 -17 -1 -26 -25 -39 -17 -10 -30 -13 -30 -6 0 7 -5 6 -15 -2 -12 -10
-14 -8 -10 9 2 12 0 21 -6 21 -5 0 -9 11 -9 24 0 19 7 26 30 31 17 4 30 11 30
16 0 6 4 8 8 5 4 -2 14 -1 22 5 19 11 50 12 50 0z m6598 -431 c-7 -11 -15 -15
-17 -9 -2 6 3 15 10 20 20 12 21 11 7 -11z m-798 -140 c0 -5 -5 -10 -11 -10
-5 0 -7 5 -4 10 3 6 8 10 11 10 2 0 4 -4 4 -10z m100 -210 c-4 -3 -9 -12 -12
-19 -4 -13 -5 -13 -10 0 -3 7 -1 25 4 39 10 24 11 24 18 5 4 -11 4 -22 0 -25z
m-3005 -512 c-14 -66 -46 -79 -42 -18 1 27 6 39 14 35 7 -2 15 0 18 5 12 20
16 9 10 -22z m5372 -61 c12 -40 10 -69 -2 -31 -4 10 -11 27 -16 36 -11 21 -12
55 -2 44 4 -4 13 -26 20 -49z m-3007 -47 c-27 -21 -40 -25 -40 -12 0 10 53 42
60 36 2 -3 -6 -14 -20 -24z m-2580 -881 c0 -6 -4 -7 -10 -4 -5 3 -10 11 -10
16 0 6 5 7 10 4 6 -3 10 -11 10 -16z m37 -60 c0 -16 -4 -29 -9 -29 -4 0 -8 12
-8 28 0 20 -3 23 -10 12 -11 -18 -23 -9 -15 12 11 27 42 10 42 -23z m5733 15
c0 -8 -4 -14 -10 -14 -5 0 -10 9 -10 21 0 11 5 17 10 14 6 -3 10 -13 10 -21z
m-5637 -45 l32 -1 -34 -10 c-36 -10 -61 -5 -61 13 0 6 7 8 16 5 9 -3 30 -6 47
-7z m5647 -106 c0 -7 -4 -13 -10 -13 -5 0 -10 12 -10 28 0 21 2 24 10 12 5 -8
10 -21 10 -27z m0 -58 c0 -8 -4 -15 -10 -15 -5 0 -10 7 -10 15 0 8 5 15 10 15
6 0 10 -7 10 -15z m-5653 -147 c-3 -8 -6 -5 -6 6 -1 11 2 17 5 13 3 -3 4 -12
1 -19z m874 -145 c-10 -17 -10 -16 -11 3 0 23 13 41 18 25 2 -6 -1 -18 -7 -28z
m4859 -171 c0 -15 -2 -15 -10 -2 -13 20 -13 33 0 25 6 -3 10 -14 10 -23z
m-4563 -104 c-2 -13 -4 -3 -4 22 0 25 2 35 4 23 2 -13 2 -33 0 -45z m-814
-570 c6 -17 -18 -287 -27 -295 -3 -3 -6 -1 -6 5 0 7 -9 21 -20 32 -14 14 -18
27 -14 50 4 16 10 27 15 24 5 -3 9 4 9 15 0 11 5 23 10 26 6 3 10 40 10 81 0
67 10 95 23 62z m3327 -683 c0 -14 -4 -25 -10 -25 -5 0 -10 11 -10 25 0 14 5
25 10 25 6 0 10 -11 10 -25z m27 -17 c-3 -7 -5 -2 -5 12 0 14 2 19 5 13 2 -7
2 -19 0 -25z m-949 -245 c-2 -26 -5 -30 -15 -21 -8 6 -12 17 -9 25 3 7 1 13
-4 13 -6 0 -5 9 2 20 16 25 29 7 26 -37z m32 -73 c0 -5 -2 -10 -4 -10 -3 0 -8
5 -11 10 -3 6 -1 10 4 10 6 0 11 -4 11 -10z m-1410 -136 c0 -8 -4 -12 -10 -9
-5 3 -10 10 -10 16 0 5 5 9 10 9 6 0 10 -7 10 -16z m0 -79 c0 -8 -4 -15 -10
-15 -5 0 -10 7 -10 15 0 8 5 15 10 15 6 0 10 -7 10 -15z m118 -160 l0 -120
-13 85 c-7 47 -13 112 -14 145 0 57 0 59 14 35 10 -18 14 -58 13 -145z m2161
93 c0 -28 -2 -30 -9 -13 -12 28 -12 45 0 45 6 0 10 -15 9 -32z m-824 -78 c3
-5 1 -10 -4 -10 -6 0 -11 5 -11 10 0 6 2 10 4 10 3 0 8 -4 11 -10z m855 -40
c0 -5 10 -11 23 -11 17 -1 18 -2 4 -6 -12 -3 -16 -11 -12 -24 3 -10 7 -28 10
-38 4 -12 -1 -24 -12 -31 -16 -10 -15 -10 5 -5 18 5 22 2 22 -14 0 -14 -6 -21
-20 -21 -13 0 -22 -9 -27 -27 l-7 -28 -7 33 c-4 19 -7 67 -8 108 -1 60 2 74
14 74 8 0 15 -4 15 -10z m57 -65 c-1 -22 -5 -31 -10 -26 -9 9 -2 61 7 61 2 0
4 -16 3 -35z m-1197 -50 c-7 -9 -19 -14 -26 -11 -8 3 -11 0 -7 -10 3 -8 -1
-14 -11 -14 -9 0 -16 -6 -16 -12 0 -9 -4 -8 -10 2 -8 11 -9 9 -5 -10 4 -18 0
-32 -15 -48 -26 -28 -40 -28 -40 -1 0 28 19 61 30 54 6 -4 9 4 7 16 -2 18 6
24 43 34 62 17 64 17 50 0z m-162 -70 c-3 -3 -9 2 -12 12 -6 14 -5 15 5 6 7
-7 10 -15 7 -18z m1353 15 c5 0 9 -7 9 -15 0 -8 3 -15 8 -15 4 0 8 -29 10 -65
2 -41 -1 -65 -8 -65 -6 0 -15 -10 -20 -22 -9 -20 -10 -18 -7 14 2 21 -1 34 -7
31 -5 -4 -7 11 -3 35 3 23 2 42 -3 42 -4 0 -10 16 -12 35 -3 27 -1 34 10 30 7
-3 18 -5 23 -5z m-5982 -180 c13 -6 17 -17 13 -35 -4 -23 -9 -26 -41 -23 -28
2 -36 7 -36 23 -1 19 21 44 38 45 5 0 16 -4 26 -10z m698 -32 c18 -7 33 -16
33 -21 0 -4 4 -6 9 -3 5 3 14 -8 20 -24 5 -17 14 -30 19 -30 18 0 22 -33 7
-56 -8 -13 -15 -32 -15 -42 0 -10 -9 -27 -19 -36 -18 -16 -21 -16 -67 5 -27
13 -50 27 -52 31 -2 4 -10 8 -17 8 -24 0 -74 63 -80 101 -11 61 6 79 72 79 31
0 72 -5 90 -12z m5290 -70 c-2 -13 -4 -5 -4 17 -1 22 1 32 4 23 2 -10 2 -28 0
-40z m-5337 -173 c0 -9 11 -20 25 -25 14 -5 25 -15 26 -22 0 -10 2 -10 6 0 5
13 33 17 33 4 0 -4 8 -12 19 -19 14 -9 24 -8 46 3 22 11 30 12 36 3 12 -20 -2
-39 -28 -39 -13 0 -21 -4 -18 -10 3 -5 -7 -12 -22 -16 -15 -4 -46 -16 -67 -26
-56 -28 -85 -29 -126 -3 -50 32 -74 61 -76 96 -2 33 24 54 57 46 10 -3 22 -1
25 4 3 5 9 7 13 5 4 -3 13 -1 21 5 21 13 30 11 30 -6z m336 -12 c9 -10 28 -16
41 -15 21 3 24 0 21 -19 -5 -34 -93 -54 -124 -28 -19 15 -18 49 1 49 9 0 18 7
21 15 8 20 19 19 40 -2z m804 -43 c0 -5 -5 -10 -11 -10 -5 0 -7 5 -4 10 3 6 8
10 11 10 2 0 4 -4 4 -10z m4560 -170 c0 -11 -2 -20 -4 -20 -2 0 -6 9 -9 20 -3
11 -1 20 4 20 5 0 9 -9 9 -20z m-1630 -65 c0 -8 -4 -15 -10 -15 -5 0 -10 7
-10 15 0 8 5 15 10 15 6 0 10 -7 10 -15z m152 -228 c3 -29 1 -33 -14 -29 -13
3 -18 -1 -18 -17 0 -14 -5 -19 -15 -15 -22 9 -18 60 7 83 26 25 35 20 40 -22z
m-75 -121 c-11 -27 -27 -18 -25 14 2 26 4 28 16 16 8 -8 12 -22 9 -30z m-114
-70 c4 -10 1 -13 -8 -9 -8 3 -12 9 -9 14 7 12 11 11 17 -5z m1144 -338 c-2
-13 -4 -3 -4 22 0 25 2 35 4 23 2 -13 2 -33 0 -45z m-1241 -160 l-11 -59 -26
28 c-15 15 -30 42 -34 60 -6 29 -4 33 19 39 14 3 23 10 20 16 -3 5 2 21 12 36
l19 27 6 -44 c3 -24 1 -70 -5 -103z m1134 92 c0 -5 -5 -10 -11 -10 -5 0 -7 5
-4 10 3 6 8 10 11 10 2 0 4 -4 4 -10z m-1229 -77 c-9 -16 -10 -16 -11 -1 0 9
3 25 7 35 7 16 8 17 11 1 2 -10 -1 -25 -7 -35z m1305 9 c0 -16 -4 -17 -33 -7
-49 17 -51 25 -7 25 32 0 40 -4 40 -18z m-1189 -59 c-3 -10 -5 -4 -5 12 0 17
2 24 5 18 2 -7 2 -21 0 -30z m303 -49 c0 -14 -4 -23 -9 -19 -11 6 -10 45 1 45
4 0 8 -12 8 -26z m2997 -16 c-3 -8 -6 -5 -6 6 -1 11 2 17 5 13 3 -3 4 -12 1
-19z m-3519 -42 c16 -17 22 -35 21 -63 -2 -54 0 -65 10 -59 5 4 12 28 16 54 3
26 10 54 14 61 14 23 22 -65 10 -120 -10 -47 -9 -53 11 -73 12 -11 20 -16 19
-11 -4 17 12 45 22 39 5 -3 9 -14 9 -25 0 -11 7 -22 15 -25 8 -4 15 -13 15
-21 0 -9 6 -12 18 -9 14 5 21 -2 31 -30 8 -22 18 -34 26 -30 8 3 16 -5 19 -20
4 -14 14 -24 25 -24 10 0 30 -9 43 -20 14 -10 28 -17 31 -14 3 3 12 2 19 -2 7
-5 16 -9 20 -9 5 0 20 -22 34 -49 21 -40 24 -52 14 -70 -21 -41 25 -103 60
-81 14 8 13 32 -1 37 -14 5 -4 78 10 78 5 0 25 -16 45 -35 21 -19 42 -35 47
-35 24 0 5 -30 -29 -47 -50 -24 -74 -55 -66 -87 l6 -25 56 30 c69 36 179 57
197 37 27 -28 49 -148 26 -134 -5 4 -11 1 -13 -6 -4 -10 -9 -9 -21 3 -9 9 -13
19 -10 23 4 3 -1 6 -11 6 -9 0 -16 -6 -15 -12 1 -7 -1 -25 -5 -39 -6 -21 -16
-28 -47 -33 -29 -5 -42 -13 -48 -30 -5 -12 -15 -23 -23 -24 -7 0 -28 -2 -45
-3 -18 -1 -33 -7 -33 -13 1 -12 57 -51 89 -61 12 -3 21 -14 21 -24 0 -9 14
-30 30 -46 17 -16 30 -35 30 -42 0 -8 5 -11 11 -7 8 4 9 0 4 -15 -7 -22 10
-30 18 -8 2 6 8 8 13 4 5 -4 2 -12 -6 -17 -11 -7 -11 -11 -1 -24 9 -11 10 -16
2 -16 -6 0 -11 4 -11 9 0 5 -9 7 -20 4 -11 -3 -20 -1 -20 3 0 5 -15 26 -33 46
-17 21 -45 53 -61 72 -17 19 -41 37 -54 41 -13 3 -33 14 -44 24 -11 11 -35 22
-54 25 -19 3 -50 9 -69 12 -20 4 -35 12 -35 20 0 8 4 14 9 14 6 0 10 8 10 18
-1 9 3 28 7 42 7 22 6 24 -9 12 -9 -8 -21 -11 -27 -7 -6 4 -10 -4 -10 -19 0
-14 -4 -26 -9 -26 -5 0 -9 20 -8 45 2 57 -8 66 -58 55 -25 -6 -44 -5 -51 1 -8
7 -14 6 -19 -1 -13 -21 -78 -40 -136 -40 -54 0 -60 2 -83 33 -15 19 -26 38
-26 44 0 5 -9 18 -20 28 -11 10 -32 39 -47 64 -14 25 -30 49 -36 52 -8 6 -28
37 -43 69 -4 8 -18 32 -31 52 -13 21 -23 43 -23 51 0 7 -9 30 -19 50 -10 21
-24 68 -31 104 -6 37 -16 73 -22 80 -6 7 -8 26 -6 42 2 17 2 28 -1 26 -4 -2
-15 3 -26 11 -17 13 -12 14 44 14 84 0 132 15 214 68 38 24 75 41 83 38 9 -3
12 -1 9 4 -12 19 10 9 33 -14z m569 -8 c-3 -7 -5 -2 -5 12 0 14 2 19 5 13 2
-7 2 -19 0 -25z m147 -124 c-4 -38 -14 -42 -14 -6 0 18 4 32 9 32 4 0 7 -12 5
-26z m-1462 -16 c-5 -7 -10 -26 -10 -41 1 -30 -17 -56 -29 -44 -4 4 -1 13 5
19 7 7 12 21 12 33 0 12 5 26 12 33 16 16 23 15 10 0z m3073 -35 c7 -18 21
-71 32 -125 6 -31 -7 -37 -27 -13 -7 8 -19 15 -26 15 -16 0 -19 26 -4 35 17
10 -1 36 -21 30 -25 -8 -24 10 2 46 23 33 34 36 44 12z m-1008 -45 c-3 -8 -6
-5 -6 6 -1 11 2 17 5 13 3 -3 4 -12 1 -19z m-2117 -24 c0 -8 -4 -12 -10 -9 -5
3 -10 13 -10 21 0 8 5 12 10 9 6 -3 10 -13 10 -21z m4247 -16 c-3 -7 -5 -2 -5
12 0 14 2 19 5 13 2 -7 2 -19 0 -25z m-4907 -3 c0 -15 -15 -35 -26 -35 -9 0
-14 11 -14 30 0 28 2 30 20 20 11 -6 20 -12 20 -15z m700 15 c8 12 10 11 10
-7 0 -16 -6 -23 -20 -23 -14 0 -20 7 -20 23 0 18 2 19 10 7 9 -13 11 -13 20 0z
m137 -52 c-3 -8 -6 -5 -6 6 -1 11 2 17 5 13 3 -3 4 -12 1 -19z m-86 -28 c12 0
19 -12 23 -45 4 -25 13 -45 19 -45 7 0 23 -16 36 -36 19 -27 25 -50 26 -92 0
-34 5 -57 13 -60 7 -2 12 3 12 12 0 10 6 13 15 10 8 -4 15 -15 15 -26 0 -10 5
-16 10 -13 6 3 10 17 10 31 0 13 4 24 9 24 18 0 8 -60 -12 -77 -15 -13 -18
-14 -12 -3 6 11 5 12 -4 4 -9 -8 -9 -17 0 -38 15 -33 32 -29 40 10 l7 29 1
-32 c0 -17 6 -35 11 -38 6 -3 10 -16 10 -28 0 -24 -16 -13 -23 18 -4 15 -5 14
-6 -7 -1 -18 6 -31 19 -38 11 -6 17 -16 14 -22 -5 -7 -11 -6 -19 5 -7 10 -17
17 -23 17 -13 0 -24 29 -15 43 4 7 0 8 -12 4 -23 -9 -45 9 -45 37 0 12 -5 27
-12 34 -12 12 -18 32 -21 64 -1 9 -6 16 -11 15 -5 -1 -15 17 -22 41 -7 24 -9
42 -3 42 5 0 9 4 9 9 0 5 -11 8 -25 7 -20 -1 -25 -6 -25 -29 0 -39 -18 -25
-26 21 -4 20 -13 42 -20 47 -16 12 -21 69 -10 104 6 17 11 20 19 12 6 -6 19
-11 28 -11z m308 -173 c1 -5 -3 -5 -9 -2 -5 3 -10 16 -9 28 0 21 1 21 9 2 5
-11 9 -24 9 -28z m27 -84 c-3 -7 0 -13 7 -13 8 0 8 -3 -2 -9 -9 -6 -11 -16 -5
-32 4 -13 7 -28 6 -32 -1 -5 2 -6 8 -2 6 4 10 -12 10 -43 0 -49 -1 -50 -23
-39 -21 10 -23 15 -16 47 5 20 5 48 1 63 -4 15 -5 48 -3 75 3 41 5 44 13 23 5
-14 6 -31 4 -38z m-1486 33 c0 -3 -4 -8 -10 -11 -5 -3 -10 -1 -10 4 0 6 5 11
10 11 6 0 10 -2 10 -4z m1537 -133 l1 -68 -8 50 c-5 28 -11 63 -14 79 -5 22
-3 26 7 18 7 -6 13 -38 14 -79z m3063 59 c0 -10 23 -52 51 -92 46 -67 126
-210 142 -251 4 -12 1 -16 -12 -12 -10 2 -33 30 -52 61 -19 31 -43 65 -54 74
-11 10 -16 17 -12 18 4 0 -5 19 -21 43 -33 48 -75 154 -67 168 10 15 25 10 25
-9z m-3020 -77 c0 -25 -4 -45 -10 -45 -11 0 -13 33 -4 68 10 34 14 27 14 -23z
m-134 -32 c-11 -27 -25 -11 -24 27 l0 41 15 -27 c7 -15 11 -34 9 -41z m-1771
47 c7 -12 -12 -40 -26 -40 -10 0 -12 34 -2 43 9 10 21 9 28 -3z m3169 -31
c-10 -16 -24 -9 -24 12 0 18 2 19 15 9 8 -7 12 -16 9 -21z m-1434 -19 c0 -5
-5 -10 -11 -10 -5 0 -7 5 -4 10 3 6 8 10 11 10 2 0 4 -4 4 -10z m192 -54 c24
-29 22 -36 -7 -36 -37 0 -66 33 -56 64 3 11 48 -9 63 -28z m1249 2 c12 -23 4
-34 -47 -64 -16 -9 -18 -21 -16 -76 4 -74 -4 -85 -58 -84 l-35 1 3 70 c4 73
14 97 37 89 9 -4 19 7 29 30 10 25 21 36 35 36 12 0 21 5 21 10 0 18 19 11 31
-12z m-1411 5 c0 -5 -9 -19 -19 -32 -18 -23 -18 -23 -23 -3 -4 14 -2 19 7 16
7 -3 15 2 18 10 7 17 17 22 17 9z m1467 -35 c-3 -8 -6 -5 -6 6 -1 11 2 17 5
13 3 -3 4 -12 1 -19z m-1266 -55 c32 4 41 0 71 -29 18 -18 39 -34 46 -34 11 0
14 -6 16 -40 1 -8 8 -15 16 -15 8 0 15 7 16 15 4 56 4 56 15 37 6 -10 8 -25 5
-34 -10 -26 4 -52 37 -70 18 -8 35 -21 39 -27 12 -17 10 -68 -2 -61 -5 3 -10
17 -10 31 0 26 -23 33 -37 12 -5 -9 -9 -3 -13 16 -6 36 -25 44 -33 14 l-6 -22
-23 24 c-16 16 -23 35 -21 53 2 18 -2 27 -12 27 -8 0 -15 -4 -15 -10 0 -5 -7
-10 -15 -10 -8 0 -15 9 -15 19 0 28 -17 35 -30 12 -6 -12 -16 -18 -25 -15 -18
7 -19 28 -3 54 17 27 -3 48 -25 26 -29 -29 -57 -14 -57 30 0 12 4 13 21 3 12
-6 39 -9 60 -6z m286 -230 c-3 -10 -5 -4 -5 12 0 17 2 24 5 18 2 -7 2 -21 0
-30z m2503 2 c11 -13 10 -14 -4 -9 -9 3 -16 10 -16 15 0 13 6 11 20 -6z
m-7212 -27 c2 -9 -4 -18 -13 -21 -11 -5 -15 0 -15 19 0 28 23 29 28 2z m4752
2 c0 -11 -4 -20 -10 -20 -5 0 -10 9 -10 20 0 11 5 20 10 20 6 0 10 -9 10 -20z
m-3398 -49 c18 -1 48 -27 48 -42 0 -6 -10 -4 -22 2 -13 7 -36 14 -53 16 -16 2
-41 5 -55 7 -45 6 -31 22 17 19 27 -1 56 -2 65 -2z m-211 -16 c0 -13 -41 -19
-41 -7 0 11 20 22 33 18 5 -1 8 -6 8 -11z m59 4 c0 -5 -9 -9 -20 -9 -11 0 -20
4 -20 8 0 4 9 8 20 9 11 1 20 -2 20 -8z m-128 -31 c-2 -10 -11 -18 -19 -18
-12 0 -13 -3 -4 -13 6 -8 8 -17 4 -20 -3 -4 -1 -7 5 -7 22 0 27 2 25 11 -2 4
27 8 63 8 62 -1 65 -2 40 -14 -15 -8 -33 -12 -41 -8 -9 3 -15 -1 -16 -8 0 -8
-4 -5 -9 6 -7 19 -8 19 -15 2 -5 -12 -2 -24 8 -34 14 -14 14 -18 0 -39 -17
-26 -83 -49 -113 -39 -10 3 -21 2 -24 -3 -6 -10 -82 0 -93 12 -4 3 12 6 35 6
35 0 42 3 42 20 0 22 10 26 27 9 9 -9 11 -7 6 9 -4 18 -1 21 20 19 14 -1 26 3
26 8 0 6 -7 9 -15 7 -8 -2 -14 4 -14 13 0 11 -10 15 -35 15 -23 0 -38 6 -42
15 -7 21 4 32 19 17 7 -7 19 -12 28 -11 10 0 11 2 3 6 -12 4 -19 33 -9 33 2 0
11 3 20 6 11 4 16 1 16 -10 0 -9 5 -16 11 -16 6 0 9 9 6 20 -4 17 -1 20 22 18
22 -2 27 -6 23 -20z m-1422 -28 c51 -17 110 -31 131 -32 38 -1 46 -7 32 -21
-3 -4 -13 -1 -21 6 -13 10 -14 9 -10 -3 3 -9 16 -14 31 -13 17 1 27 -4 30 -18
3 -10 1 -17 -4 -13 -14 8 -10 -19 5 -39 11 -15 34 -19 127 -23 163 -7 217 -11
231 -21 29 -18 143 -50 149 -41 7 11 39 -35 39 -57 0 -9 10 -20 23 -25 12 -5
17 -9 10 -9 -18 -1 -43 10 -43 20 0 12 -33 44 -53 52 -18 7 -33 -8 -17 -18 6
-4 2 -15 -10 -27 -20 -21 -20 -21 -34 -3 -15 21 -12 40 5 30 5 -4 9 -1 9 5 0
7 -8 9 -22 4 -31 -10 -71 -11 -83 -2 -5 4 -25 20 -43 34 -28 23 -36 25 -44 13
-7 -11 -9 -9 -5 7 4 18 0 20 -32 18 -20 -1 -46 -2 -58 -3 -29 -1 -30 -21 -2
-21 11 0 33 -8 47 -18 15 -10 44 -26 65 -36 39 -18 43 -41 4 -27 -12 4 -28 6
-35 4 -8 -3 -16 4 -19 17 -5 18 -11 21 -34 16 -20 -4 -31 -1 -37 10 -6 11 -29
18 -75 21 -61 5 -67 8 -78 34 -6 16 -18 29 -25 29 -17 0 -17 -1 1 -36 8 -16
11 -31 7 -35 -13 -11 -81 -18 -88 -8 -3 5 -10 7 -15 4 -5 -4 -23 2 -39 12 -25
15 -32 15 -39 4 -6 -9 -11 -10 -15 -2 -4 6 -1 11 6 11 10 0 9 3 -2 11 -12 9
-11 10 8 6 12 -3 22 -2 22 3 0 13 -83 43 -130 46 -43 3 -44 3 -20 -11 14 -8
35 -19 48 -24 12 -6 22 -12 22 -14 0 -8 -90 19 -101 30 -9 9 -15 8 -26 -3 -18
-17 -64 -18 -82 -1 -11 10 -13 10 -7 0 9 -16 -13 -17 -48 -3 -17 6 -24 14 -20
25 3 8 11 12 17 8 6 -4 8 0 4 10 -9 24 27 41 53 25 27 -17 50 3 30 27 -11 13
-7 15 32 15 36 0 50 -6 73 -30 16 -17 44 -33 64 -36 20 -4 39 -11 42 -16 3 -5
18 -11 33 -14 24 -4 26 -3 17 15 -11 20 -5 51 9 51 4 0 11 -10 15 -22 6 -20 8
-21 12 -5 3 10 10 16 17 14 15 -6 40 13 49 36 5 14 2 18 -11 16 -9 -2 -40 1
-69 5 -40 6 -60 4 -84 -8 -18 -9 -33 -15 -33 -14 -1 2 -9 18 -20 37 -15 28
-16 35 -5 42 19 12 16 13 119 -21z m947 15 c22 -8 85 -17 138 -19 53 -3 101
-8 106 -11 5 -4 14 -3 21 1 7 4 22 8 34 9 19 0 21 -2 11 -15 -6 -8 -13 -17
-14 -19 -1 -2 -9 2 -18 9 -12 10 -15 10 -15 -1 0 -16 -40 -45 -54 -40 -15 4
-56 -21 -56 -33 0 -16 -38 -38 -45 -26 -14 23 -105 6 -105 -19 0 -12 2 -13 9
-3 7 11 9 11 14 -1 3 -9 25 -17 54 -21 71 -8 73 -9 73 -17 0 -17 -156 -33
-166 -17 -10 15 -35 -5 -31 -24 4 -14 1 -18 -8 -14 -8 3 -17 1 -20 -5 -4 -5
-12 -6 -18 -2 -32 20 -76 30 -88 19 -8 -7 -8 -4 1 7 13 18 23 18 65 1 17 -7
18 -6 7 8 -13 17 -58 33 -79 29 -7 -1 -13 2 -13 7 0 5 -14 9 -30 9 -17 0 -38
7 -46 15 -22 22 2 61 31 54 11 -3 41 -6 68 -6 26 0 47 -4 47 -10 0 -5 -8 -10
-17 -10 -12 0 -9 -5 11 -15 15 -8 35 -15 42 -15 21 0 17 21 -6 27 -11 3 -20
12 -20 19 0 8 -5 14 -11 14 -5 0 -34 11 -63 25 -43 21 -59 23 -80 15 -15 -5
-37 -9 -49 -8 -12 0 -34 -3 -49 -7 -28 -7 -41 8 -15 18 9 4 8 8 -3 16 -12 8
-17 5 -23 -14 -12 -35 -34 -31 -40 8 -6 40 -1 46 18 21 13 -17 14 -17 15 -1 0
17 25 24 34 9 6 -10 98 -7 154 6 24 5 45 6 48 1 3 -5 20 -9 39 -9 21 0 35 -6
39 -17 5 -13 9 -14 19 -3 9 10 9 13 0 17 -7 3 -13 14 -13 26 0 16 3 18 9 9 6
-10 10 -10 21 3 15 18 15 18 67 0z m-1120 -11 c-16 -8 -34 -13 -40 -11 -7 2
-20 -3 -30 -11 -12 -11 -20 -13 -25 -5 -7 11 -47 11 -58 0 -3 -3 5 -9 20 -13
35 -8 34 -33 -1 -31 -28 2 -71 42 -59 54 10 10 127 31 176 32 l45 0 -28 -15z
m1813 -14 c0 -5 -7 -10 -16 -10 -8 0 -12 5 -9 10 3 6 10 10 16 10 5 0 9 -4 9
-10z m47 4 c-3 -4 4 -15 16 -24 12 -11 18 -22 13 -27 -5 -4 -11 -2 -13 5 -3 6
-9 9 -15 6 -9 -6 -37 23 -38 39 0 4 10 7 22 7 12 0 19 -3 15 -6z m133 -27 c24
-12 46 -29 48 -37 2 -10 1 -11 -5 -4 -4 6 -19 14 -33 18 l-25 7 23 -20 c12
-10 22 -21 22 -23 0 -2 -30 -4 -67 -4 -48 1 -68 5 -71 15 -3 9 0 12 10 8 17
-6 38 10 38 30 0 7 -11 15 -25 19 -14 3 -25 11 -25 16 0 14 56 1 110 -25z
m-2217 16 c-7 -2 -19 -2 -25 0 -7 3 -2 5 12 5 14 0 19 -2 13 -5z m687 -13 c20
-12 12 -17 -42 -22 -36 -4 -51 -2 -60 10 -11 13 -10 15 4 9 10 -3 20 -2 23 3
8 13 55 13 75 0z m110 -21 c0 -12 -5 -17 -15 -14 -8 3 -22 7 -31 10 -22 7 -10
20 20 21 19 2 26 -3 26 -17z m1530 -8 c0 -5 -9 -7 -20 -4 -11 3 -20 7 -20 9 0
2 9 4 20 4 11 0 20 -4 20 -9z m-1466 -16 c19 -14 14 -35 -8 -35 -17 0 -48 35
-39 43 10 11 26 8 47 -8z m1236 11 c0 -3 -4 -8 -10 -11 -5 -3 -10 -1 -10 4 0
6 5 11 10 11 6 0 10 -2 10 -4z m-2070 -46 c0 -5 -4 -10 -10 -10 -5 0 -10 5
-10 10 0 6 5 10 10 10 6 0 10 -4 10 -10z m987 -5 c-6 -17 -44 -17 -50 0 -5 12
0 15 23 13 17 -1 29 -7 27 -13z m-1027 -15 c0 -5 -2 -10 -4 -10 -3 0 -8 5 -11
10 -3 6 -1 10 4 10 6 0 11 -4 11 -10z m1980 -16 c18 -9 20 -13 8 -14 -9 0 -20
5 -23 10 -3 6 -22 10 -41 10 -19 0 -34 4 -34 10 0 12 56 2 90 -16z m-2292 -11
c5 -18 -23 -16 -39 3 -11 14 -10 15 11 12 13 -1 25 -9 28 -15z m180 -26 c44
-15 40 -25 -10 -29 -32 -2 -48 2 -65 18 -13 12 -23 25 -23 28 0 9 49 0 98 -17z
m247 -43 c40 -13 163 -44 178 -44 5 0 5 5 1 12 -5 8 2 9 27 4 19 -5 45 -9 59
-10 27 -3 90 -33 90 -43 0 -3 -3 -3 -7 0 -3 4 -12 2 -20 -4 -10 -9 -17 -8 -28
1 -12 10 -15 10 -15 0 0 -8 -9 -10 -27 -5 -23 5 -25 4 -14 -9 10 -12 9 -14
-10 -9 -15 4 -20 3 -15 -5 17 -28 -14 -9 -38 23 -15 19 -34 35 -43 35 -14 0
-13 -4 5 -23 40 -43 26 -55 -55 -48 -23 1 -43 8 -43 14 0 6 -7 19 -17 29 -19
21 -4 24 30 7 l22 -11 -20 21 c-13 13 -37 23 -64 25 -23 2 -46 8 -49 12 -4 4
9 4 28 0 24 -4 31 -3 24 4 -15 15 -57 21 -64 10 -3 -5 -22 -3 -45 5 -22 8 -35
14 -30 15 6 0 3 5 -5 11 -20 14 92 1 145 -17z m-437 -2 c3 -9 -2 -13 -14 -10
-9 1 -19 9 -22 16 -3 9 2 13 14 10 9 -1 19 -9 22 -16z m1489 12 c-3 -3 -12 -4
-19 -1 -8 3 -5 6 6 6 11 1 17 -2 13 -5z m-1462 -14 c3 -5 1 -10 -4 -10 -6 0
-11 5 -11 10 0 6 2 10 4 10 3 0 8 -4 11 -10z m1032 -23 c10 -12 29 -27 43 -34
22 -10 22 -12 5 -12 -25 -1 -40 9 -48 32 -3 9 -13 17 -22 17 -8 0 -15 5 -15
10 0 17 18 11 37 -13z m513 -27 c0 -5 -2 -10 -4 -10 -3 0 -8 5 -11 10 -3 6 -1
10 4 10 6 0 11 -4 11 -10z m-656 -16 c51 -9 59 -28 10 -21 -58 8 -85 18 -78
29 3 5 12 7 19 4 8 -3 30 -8 49 -12z m-898 -5 c3 -6 17 -8 30 -5 20 5 67 -10
138 -46 12 -7 16 -6 11 1 -4 7 3 11 17 11 13 0 18 -3 12 -8 -14 -9 -14 -42 0
-42 6 0 4 -5 -4 -11 -12 -9 -12 -10 3 -5 27 9 116 -32 97 -44 -8 -5 -19 -6
-25 -2 -5 4 -12 7 -15 8 -34 5 -90 27 -90 34 0 6 -5 10 -11 10 -5 0 -7 -6 -3
-12 5 -9 4 -10 -3 -3 -6 6 -14 21 -18 35 -7 22 -6 23 9 11 9 -8 16 -9 16 -3 0
17 -11 20 -83 27 -43 4 -67 2 -67 -5 0 -30 -49 3 -63 43 -5 13 -1 17 18 17 13
0 27 -5 31 -11z m1274 1 c0 -5 -7 -7 -15 -4 -8 4 -15 8 -15 10 0 2 7 4 15 4 8
0 15 -4 15 -10z m-530 -50 c0 -5 -4 -10 -9 -10 -6 0 -13 5 -16 10 -3 6 1 10 9
10 9 0 16 -4 16 -10z m-483 -6 c-3 -3 -12 -4 -19 -1 -8 3 -5 6 6 6 11 1 17 -2
13 -5z m68 -4 c8 -13 -5 -13 -25 0 -13 8 -13 10 2 10 9 0 20 -4 23 -10z m-280
-40 c18 -8 17 -9 -7 -9 -16 -1 -28 4 -28 9 0 12 8 12 35 0z"/>
<path d="M8745 11730 c3 -5 8 -10 11 -10 2 0 4 5 4 10 0 6 -5 10 -11 10 -5 0
-7 -4 -4 -10z"/>
<path d="M8910 11160 c0 -5 5 -10 10 -10 6 0 10 5 10 10 0 6 -4 10 -10 10 -5
0 -10 -4 -10 -10z"/>
<path d="M6855 10420 c-3 -5 -1 -10 4 -10 6 0 11 5 11 10 0 6 -2 10 -4 10 -3
0 -8 -4 -11 -10z"/>
<path d="M6880 10366 c0 -2 7 -7 16 -10 8 -3 12 -2 9 4 -6 10 -25 14 -25 6z"/>
<path d="M6771 10329 c-13 -11 -21 -23 -17 -27 4 -4 12 1 17 11 6 9 15 17 22
17 7 0 0 -12 -16 -25 -15 -13 -34 -22 -42 -19 -62 24 74 -141 138 -167 30 -13
30 -14 11 -89 l-7 -25 26 25 c14 14 27 34 28 45 4 28 -11 108 -23 122 -5 7 -8
31 -6 55 2 38 0 43 -20 46 -16 2 -22 -2 -22 -15 -1 -17 -2 -17 -15 2 -9 10
-14 24 -12 30 3 9 -21 34 -33 34 -3 0 -16 -9 -29 -20z"/>
<path d="M6860 10343 c8 -3 18 -11 22 -17 4 -6 10 -7 15 -3 9 10 -16 27 -37
26 -13 -1 -13 -1 0 -6z"/>
<path d="M6741 10120 c-10 -6 -3 -15 28 -35 23 -16 44 -25 48 -22 3 4 -2 9
-11 13 -9 3 -16 12 -16 20 0 18 -33 35 -49 24z"/>
<path d="M7392 9786 c1 -14 6 -22 10 -20 5 3 6 10 3 15 -4 5 -1 9 5 9 6 0 8 5
5 10 -11 19 -25 10 -23 -14z"/>
<path d="M7365 9701 c-3 -5 -1 -12 4 -15 5 -3 11 1 15 9 6 16 -9 21 -19 6z"/>
<path d="M8123 9707 c-24 -5 -43 -13 -43 -17 0 -11 70 6 83 19 6 6 9 10 7 10
-3 -1 -24 -6 -47 -12z"/>
<path d="M6324 1439 c-3 -6 -1 -16 5 -22 8 -8 11 -5 11 11 0 24 -5 28 -16 11z"/>
<path d="M6185 1308 c-51 -26 -51 -26 -37 -40 6 -6 8 -23 6 -38 -5 -23 -3 -27
18 -26 16 1 22 -4 19 -14 -16 -64 -18 -80 -11 -80 5 0 10 10 12 23 2 12 10 22
18 22 12 0 15 14 15 63 0 34 3 62 7 62 5 0 8 11 8 25 0 30 -3 30 -55 3z"/>
<path d="M6106 1221 c-4 -7 -5 -15 -2 -18 9 -9 19 4 14 18 -4 11 -6 11 -12 0z"/>
<path d="M5101 1554 c0 -11 3 -14 6 -6 3 7 2 16 -1 19 -3 4 -6 -2 -5 -13z"/>
<path d="M882 641 c-8 -4 -14 -12 -14 -17 -1 -5 -11 -8 -22 -6 -18 3 -17 0 8
-22 34 -31 57 -35 31 -6 -16 18 -16 20 -2 20 10 0 17 8 17 20 0 23 0 23 -18
11z"/>
<path d="M490 626 c0 -2 7 -7 16 -10 8 -3 12 -2 9 4 -6 10 -25 14 -25 6z"/>
<path d="M1100 549 c0 -5 5 -7 10 -4 6 3 10 8 10 11 0 2 -4 4 -10 4 -5 0 -10
-5 -10 -11z"/>
<path d="M1710 735 c0 -20 28 -31 43 -16 8 8 7 11 -6 11 -9 0 -17 5 -17 10 0
6 -4 10 -10 10 -5 0 -10 -7 -10 -15z"/>
<path d="M1830 715 c0 -8 5 -15 10 -15 6 0 10 7 10 15 0 8 -4 15 -10 15 -5 0
-10 -7 -10 -15z"/>
<path d="M1798 713 c7 -3 16 -2 19 1 4 3 -2 6 -13 5 -11 0 -14 -3 -6 -6z"/>
<path d="M1860 710 c0 -5 7 -10 15 -10 8 0 15 5 15 10 0 6 -7 10 -15 10 -8 0
-15 -4 -15 -10z"/>
<path d="M1810 650 c0 -5 7 -7 15 -4 8 4 15 8 15 10 0 2 -7 4 -15 4 -8 0 -15
-4 -15 -10z"/>
<path d="M2590 704 c0 -8 5 -12 10 -9 6 4 8 11 5 16 -9 14 -15 11 -15 -7z"/>
<path d="M3610 13440 c6 -11 13 -20 16 -20 2 0 0 9 -6 20 -6 11 -13 20 -16 20
-2 0 0 -9 6 -20z"/>
<path d="M4470 11986 c0 -19 43 -100 64 -122 6 -6 16 -9 23 -7 6 2 17 -5 25
-16 14 -20 118 -96 118 -86 0 17 -55 85 -73 91 -47 15 -100 60 -128 108 -18
31 -29 44 -29 32z"/>
<path d="M4390 11915 c0 -5 75 -45 85 -45 16 0 -10 22 -42 35 -39 16 -43 17
-43 10z"/>
<path d="M4570 11662 c0 -10 62 -44 68 -37 7 6 -27 32 -50 38 -10 3 -18 2 -18
-1z"/>
<path d="M4191 11644 c0 -11 3 -14 6 -6 3 7 2 16 -1 19 -3 4 -6 -2 -5 -13z"/>
<path d="M4676 11624 c-3 -8 -2 -12 3 -9 5 3 12 -3 16 -14 6 -21 67 -91 78
-91 15 0 5 24 -30 75 -39 56 -57 66 -67 39z"/>
<path d="M4560 11510 c0 -25 51 -78 80 -82 16 -2 27 -1 24 3 -11 19 -104 89
-104 79z"/>
<path d="M2524 11379 c-1 -16 3 -29 7 -29 11 0 12 47 2 53 -5 3 -8 -8 -9 -24z"/>
<path d="M9330 10908 c0 -9 5 -20 10 -23 13 -8 13 5 0 25 -8 13 -10 13 -10 -2z"/>
<path d="M8720 10889 c0 -5 5 -7 10 -4 6 3 10 8 10 11 0 2 -4 4 -10 4 -5 0
-10 -5 -10 -11z"/>
<path d="M8715 10859 c-4 -6 -5 -13 -2 -16 3 -3 2 -16 -4 -30 -6 -18 -6 -22 3
-17 8 5 9 2 5 -10 -5 -12 -3 -16 5 -13 7 2 11 11 9 18 -3 8 -4 29 -3 47 2 33
-2 40 -13 21z"/>
<path d="M8850 10859 c0 -16 31 -38 53 -39 24 0 13 16 -24 35 -20 11 -29 12
-29 4z"/>
<path d="M1604 10636 c-10 -8 -17 -17 -14 -19 3 -3 16 3 30 13 29 22 14 27
-16 6z"/>
<path d="M1761 10634 c0 -11 3 -14 6 -6 3 7 2 16 -1 19 -3 4 -6 -2 -5 -13z"/>
<path d="M1480 10620 c-13 -8 -13 -10 2 -10 9 0 20 5 23 10 8 13 -5 13 -25 0z"/>
<path d="M8730 10570 c-13 -8 -12 -10 3 -10 9 0 17 5 17 10 0 12 -1 12 -20 0z"/>
<path d="M9091 10394 c0 -11 3 -14 6 -6 3 7 2 16 -1 19 -3 4 -6 -2 -5 -13z"/>
<path d="M3508 9839 c-4 -25 -1 -29 19 -29 27 0 147 -58 210 -101 23 -16 45
-29 48 -29 13 0 -90 81 -135 107 -25 14 -66 38 -92 53 l-46 28 -4 -29z"/>
<path d="M9120 9805 c0 -14 4 -25 9 -25 4 0 6 11 3 25 -2 14 -6 25 -8 25 -2 0
-4 -11 -4 -25z"/>
<path d="M8952 9687 c-13 -28 -26 -66 -29 -82 -4 -26 -2 -31 16 -32 19 -2 21
3 21 61 0 34 5 67 11 73 6 6 10 16 8 22 -2 6 -15 -13 -27 -42z"/>
<path d="M1538 9693 c7 -3 16 -2 19 1 4 3 -2 6 -13 5 -11 0 -14 -3 -6 -6z"/>
<path d="M3496 9638 c-3 -18 -8 -60 -11 -93 -3 -33 -8 -74 -10 -92 -4 -31 -4
-31 33 -26 38 5 63 -4 272 -91 46 -20 85 -36 86 -36 1 0 4 9 7 21 8 30 -70
146 -145 214 -58 52 -191 135 -216 135 -6 0 -13 -15 -16 -32z"/>
<path d="M8830 9652 c0 -5 -3 -17 -6 -26 -4 -11 -1 -16 10 -16 10 0 15 7 13
20 -3 21 -17 40 -17 22z"/>
<path d="M8662 9381 c-23 -52 -52 -138 -52 -153 0 -5 7 -8 15 -8 8 0 15 7 15
15 0 8 5 15 10 15 7 0 7 -6 0 -19 -7 -14 -7 -22 0 -26 6 -4 7 -11 4 -17 -4 -7
-2 -8 4 -4 7 4 12 22 12 41 0 19 5 56 11 84 6 27 9 67 7 88 l-3 38 -23 -54z"/>
<path d="M5327 9190 c5 -47 7 -113 5 -146 -2 -53 0 -62 16 -66 17 -5 20 -21
26 -159 4 -85 7 -208 6 -274 -2 -196 -1 -207 12 -203 19 7 37 95 40 198 3 95
-17 304 -32 345 -5 12 -12 79 -15 148 -6 95 -11 127 -21 127 -7 0 -16 16 -19
38 -13 81 -25 76 -18 -8z"/>
<path d="M5465 9219 c16 -83 37 -138 65 -178 25 -34 33 -57 40 -124 6 -45 10
-112 10 -149 0 -66 0 -66 31 -73 17 -4 33 -4 36 -1 17 16 21 121 7 172 -8 30
-14 68 -14 83 0 31 -54 147 -93 198 -17 24 -27 29 -35 21 -11 -11 -16 1 -24
56 -2 11 -9 21 -17 24 -10 3 -12 -3 -6 -29z"/>
<path d="M6103 9175 c-12 -9 -23 -30 -26 -52 -3 -21 -12 -65 -21 -98 -23 -88
-31 -231 -16 -294 9 -38 20 -58 45 -76 17 -14 35 -25 38 -25 4 0 14 14 23 32
14 28 17 65 15 261 -1 211 -7 267 -29 267 -4 0 -17 -7 -29 -15z"/>
<path d="M8590 9186 c0 -2 -7 -21 -16 -42 -15 -35 -15 -37 0 -25 9 7 16 20 16
27 0 8 4 14 8 14 5 0 9 7 9 15 0 8 -4 15 -9 15 -4 0 -8 -2 -8 -4z"/>
<path d="M7292 9148 c2 -5 8 -9 13 -9 5 0 11 4 13 9 1 5 -4 9 -13 9 -9 0 -14
-4 -13 -9z"/>
<path d="M8917 9108 c8 -44 13 -48 13 -10 0 17 -4 34 -10 37 -6 4 -7 -6 -3
-27z"/>
<path d="M6250 9063 c0 -26 1 -26 15 -7 19 25 19 34 0 34 -10 0 -15 -10 -15
-27z"/>
<path d="M7374 9082 c-7 -4 -8 -15 -4 -27 7 -18 9 -18 15 -3 9 23 3 39 -11 30z"/>
<path d="M8863 9025 c0 -22 2 -30 4 -17 2 12 2 30 0 40 -3 9 -5 -1 -4 -23z"/>
<path d="M8897 9016 c-4 -10 -5 -22 -1 -27 3 -5 2 -9 -3 -9 -13 0 -15 -118 -3
-155 6 -18 12 -55 14 -81 5 -66 6 -67 20 -9 6 28 9 70 5 95 -4 29 -3 47 5 52
8 5 8 13 -1 28 -7 11 -13 34 -14 52 0 18 -4 42 -8 52 -7 18 -8 18 -14 2z"/>
<path d="M8630 8981 c0 -5 5 -13 10 -16 6 -3 10 -2 10 4 0 5 -4 13 -10 16 -5
3 -10 2 -10 -4z"/>
<path d="M5332 8950 c0 -14 2 -19 5 -12 2 6 2 18 0 25 -3 6 -5 1 -5 -13z"/>
<path d="M8456 8928 c-18 -26 -21 -48 -6 -48 6 0 10 -5 10 -11 0 -6 -8 -8 -18
-5 -23 8 -53 -49 -41 -79 4 -11 8 -14 8 -7 1 7 6 10 12 6 8 -5 8 -1 0 13 -8
17 -6 22 13 33 14 7 30 9 38 4 10 -6 11 -4 2 7 -10 14 -11 32 -1 82 7 33 3 34
-17 5z"/>
<path d="M8494 8883 c1 -19 5 -28 10 -23 6 6 5 18 -1 32 -10 21 -10 21 -9 -9z"/>
<path d="M8555 8875 c-16 -19 -36 -34 -42 -35 -8 0 -13 -13 -13 -31 0 -23 4
-30 17 -27 9 2 17 12 19 22 1 10 7 22 11 25 15 10 55 81 46 81 -4 0 -21 -16
-38 -35z"/>
<path d="M8627 8833 c-5 -7 -5 -17 -2 -23 3 -5 1 -10 -4 -10 -6 0 -11 -7 -11
-16 0 -14 1 -14 16 0 8 9 14 26 12 38 -2 16 -5 19 -11 11z"/>
<path d="M8422 8761 c-23 -21 -43 -37 -45 -35 -1 2 -3 -5 -3 -14 0 -9 -4 -28
-8 -42 -7 -24 -6 -24 8 -6 9 11 16 26 16 33 0 7 9 13 19 13 10 0 22 8 26 18 7
16 8 15 16 -3 l9 -20 -2 20 c-1 11 2 30 6 43 12 36 4 35 -42 -7z"/>
<path d="M8656 8758 c-11 -39 -19 -261 -12 -312 14 -91 25 -31 27 147 2 172
-1 212 -15 165z"/>
<path d="M8350 8751 c-15 -28 -12 -33 10 -19 21 13 27 38 10 38 -5 0 -14 -9
-20 -19z"/>
<path d="M8551 8756 c-9 -11 -8 -35 4 -102 25 -138 27 -146 47 -179 l20 -30
-6 125 c-8 176 -28 231 -65 186z m11 -28 c-8 -8 -9 -4 -5 13 4 13 8 18 11 10
2 -7 -1 -18 -6 -23z m28 -50 c0 -31 -3 -39 -11 -31 -7 7 -8 24 -4 42 9 43 15
39 15 -11z"/>
<path d="M8617 8753 c-4 -3 -7 -11 -7 -17 0 -6 5 -5 12 2 6 6 9 14 7 17 -3 3
-9 2 -12 -2z"/>
<path d="M6800 8740 c0 -5 5 -10 11 -10 5 0 7 5 4 10 -3 6 -8 10 -11 10 -2 0
-4 -4 -4 -10z"/>
<path d="M6772 8718 c-7 -7 -12 -19 -12 -27 0 -11 5 -8 16 7 18 25 15 39 -4
20z"/>
<path d="M7280 8720 c0 -5 5 -10 10 -10 6 0 10 5 10 10 0 6 -4 10 -10 10 -5 0
-10 -4 -10 -10z"/>
<path d="M8451 8691 c-7 -5 -11 -14 -7 -20 5 -7 1 -9 -8 -5 -25 10 -18 -17 13
-54 26 -30 29 -31 34 -13 3 11 -1 25 -9 32 -8 6 -14 17 -14 23 0 7 4 6 9 -2 7
-11 10 -10 15 3 15 40 0 57 -33 36z"/>
<path d="M8282 8651 c-18 -25 -19 -30 -6 -35 8 -3 17 1 20 9 4 8 12 15 20 15
8 0 14 5 14 10 0 6 -5 10 -11 10 -5 0 -7 5 -4 10 15 24 -13 7 -33 -19z"/>
<path d="M8500 8626 c0 -19 -2 -41 -5 -48 -6 -15 63 -113 72 -104 3 3 0 13 -8
22 -10 13 -11 18 -2 21 7 2 10 10 8 16 -2 7 -6 24 -9 39 -4 16 -12 27 -19 25
-13 -2 -13 6 -1 37 5 14 4 17 -4 12 -7 -4 -12 -2 -12 3 0 6 -4 11 -10 11 -5 0
-10 -15 -10 -34z"/>
<path d="M9151 8594 c0 -11 3 -14 6 -6 3 7 2 16 -1 19 -3 4 -6 -2 -5 -13z"/>
<path d="M8031 8553 c-10 -26 -10 -27 4 -9 8 11 15 23 15 28 0 15 -7 8 -19
-19z"/>
<path d="M6111 8404 c-19 -52 -6 -189 21 -216 11 -11 22 -18 24 -16 2 3 0 29
-6 59 -5 30 -11 87 -13 126 -2 40 -6 75 -8 78 -3 2 -11 -12 -18 -31z"/>
<path d="M4875 8388 c-12 -78 -15 -113 -9 -98 3 8 15 35 25 59 21 45 22 72 2
78 -6 2 -14 -13 -18 -39z"/>
<path d="M7877 8414 c-13 -13 -7 -24 14 -24 11 0 19 5 17 12 -5 14 -22 21 -31
12z"/>
<path d="M7836 8365 c-23 -17 -13 -34 11 -19 19 12 29 34 16 34 -4 0 -17 -7
-27 -15z"/>
<path d="M7763 8333 c9 -2 25 -2 35 0 9 3 1 5 -18 5 -19 0 -27 -2 -17 -5z"/>
<path d="M8921 8324 c0 -11 3 -14 6 -6 3 7 2 16 -1 19 -3 4 -6 -2 -5 -13z"/>
<path d="M7620 8310 c8 -5 22 -10 30 -10 13 0 13 1 0 10 -8 5 -22 10 -30 10
-13 0 -13 -1 0 -10z"/>
<path d="M7720 8294 c0 -8 5 -12 10 -9 6 3 10 10 10 16 0 5 -4 9 -10 9 -5 0
-10 -7 -10 -16z"/>
<path d="M7795 8291 c-3 -5 -1 -12 4 -16 6 -3 7 -13 4 -22 -5 -11 0 -10 16 6
22 22 21 41 -4 41 -8 0 -16 -4 -20 -9z"/>
<path d="M8945 8251 c-3 -5 -1 -12 5 -16 5 -3 10 1 10 9 0 18 -6 21 -15 7z"/>
<path d="M7746 8194 c-20 -19 -39 -54 -30 -54 9 0 64 54 64 62 0 13 -18 9 -34
-8z"/>
<path d="M8940 8194 c0 -8 5 -12 10 -9 6 4 8 11 5 16 -9 14 -15 11 -15 -7z"/>
<path d="M6435 8150 c3 -5 8 -10 11 -10 2 0 4 5 4 10 0 6 -5 10 -11 10 -5 0
-7 -4 -4 -10z"/>
<path d="M7360 8130 c0 -5 5 -10 11 -10 5 0 7 5 4 10 -3 6 -8 10 -11 10 -2 0
-4 -4 -4 -10z"/>
<path d="M4786 8085 c-18 -43 -20 -59 -6 -50 10 6 32 76 25 83 -2 2 -11 -13
-19 -33z"/>
<path d="M7240 7980 c0 -5 7 -10 16 -10 8 0 12 5 9 10 -3 6 -10 10 -16 10 -5
0 -9 -4 -9 -10z"/>
<path d="M8930 7920 c0 -5 5 -10 11 -10 5 0 7 5 4 10 -3 6 -8 10 -11 10 -2 0
-4 -4 -4 -10z"/>
<path d="M6963 7807 c5 -17 42 -20 54 -5 9 10 4 13 -24 15 -22 1 -33 -2 -30
-10z"/>
<path d="M7412 7757 c-6 -6 -13 -24 -17 -39 -4 -15 -13 -32 -21 -39 -8 -6 -14
-19 -13 -28 0 -12 2 -11 9 4 13 30 50 72 50 58 0 -7 5 -13 11 -13 8 0 8 4 0
14 -9 11 -10 20 -1 35 12 23 -1 29 -18 8z"/>
<path d="M6930 7750 c-8 -5 -23 -7 -32 -4 -13 4 -17 -1 -16 -18 3 -55 37 -63
61 -13 17 36 11 50 -13 35z"/>
<path d="M5723 7707 c3 -8 9 -33 13 -54 3 -21 12 -60 19 -88 7 -27 10 -66 8
-85 -5 -38 21 -81 45 -73 6 3 12 0 12 -7 0 -6 4 -9 8 -6 19 12 4 161 -23 236
-15 41 -28 76 -29 77 0 1 -14 5 -30 9 -24 6 -28 4 -23 -9z"/>
<path d="M4642 7650 c0 -14 2 -19 5 -12 2 6 2 18 0 25 -3 6 -5 1 -5 -13z"/>
<path d="M5858 7643 c-23 -6 -23 -26 0 -46 24 -22 45 -7 36 26 -3 15 -9 26
-13 26 -3 -1 -14 -3 -23 -6z"/>
<path d="M6472 7598 c-8 -8 -9 -15 -1 -25 15 -17 34 -17 48 1 10 12 8 17 -8
25 -24 14 -24 14 -39 -1z"/>
<path d="M4046 7557 c-5 -26 -6 -51 -2 -54 12 -13 17 6 14 53 l-3 49 -9 -48z"/>
<path d="M6555 7571 c3 -11 1 -22 -5 -26 -7 -4 -7 -12 0 -26 11 -20 70 -28 70
-9 0 6 3 9 8 8 4 -1 17 2 30 6 20 7 21 10 10 23 -10 13 -10 17 0 20 29 10 -4
23 -59 23 -55 0 -60 -2 -54 -19z"/>
<path d="M7204 7495 c-3 -14 -16 -33 -28 -41 -14 -11 -17 -18 -8 -21 22 -8 13
-33 -12 -33 -30 0 -37 -9 -29 -39 4 -16 10 -20 22 -15 9 4 25 7 36 7 28 1 97
71 89 91 -3 9 -1 16 5 16 6 0 11 5 11 11 0 6 -6 9 -12 7 -14 -5 -38 15 -38 31
0 22 -30 10 -36 -14z"/>
<path d="M4032 7453 c-6 -16 -15 -66 -21 -113 -15 -131 -49 -344 -59 -371 -15
-39 -23 -109 -13 -109 12 0 28 43 42 115 6 33 15 67 19 75 4 8 11 49 14 90 3
41 10 95 15 120 12 57 26 220 19 220 -3 0 -10 -12 -16 -27z"/>
<path d="M3746 7433 c-6 -14 -5 -15 5 -6 7 7 10 15 7 18 -3 3 -9 -2 -12 -12z"/>
<path d="M3716 7388 c-3 -13 -1 -27 4 -32 12 -12 17 -7 25 27 5 20 4 27 -8 27
-8 0 -17 -10 -21 -22z"/>
<path d="M7320 7365 c1 -5 7 -19 15 -29 8 -11 15 -15 15 -9 0 6 3 20 6 30 5
15 4 16 -5 3 -10 -13 -12 -13 -21 0 -5 8 -10 11 -10 5z"/>
<path d="M5771 7304 c0 -11 3 -14 6 -6 3 7 2 16 -1 19 -3 4 -6 -2 -5 -13z"/>
<path d="M6231 7296 c-8 -10 -8 -27 -1 -62 13 -61 17 -67 58 -88 19 -10 31
-20 29 -23 -3 -3 -16 2 -29 11 -53 38 -75 2 -31 -52 17 -21 33 -47 37 -58 7
-24 45 -61 55 -55 3 2 11 -6 16 -18 7 -16 16 -20 33 -16 19 5 23 1 28 -25 4
-16 13 -30 20 -30 8 0 14 -10 14 -25 0 -28 7 -30 33 -11 19 14 17 55 -5 126
-13 42 -75 120 -95 120 -8 0 -23 5 -34 11 -19 10 -19 12 -4 23 15 10 14 17
-11 71 -37 79 -91 128 -113 101z"/>
<path d="M3690 7245 c-1 -5 -4 -22 -6 -37 -3 -16 0 -28 6 -28 17 0 24 29 12
53 -6 12 -11 18 -12 12z"/>
<path d="M7357 7243 c-12 -11 -8 -40 6 -52 11 -8 16 -5 26 15 6 14 9 30 6 35
-7 11 -29 12 -38 2z"/>
<path d="M9071 7224 c0 -11 3 -14 6 -6 3 7 2 16 -1 19 -3 4 -6 -2 -5 -13z"/>
<path d="M9087 7165 c3 -22 11 -51 16 -65 10 -24 11 -25 14 -3 3 12 -5 41 -15
65 l-20 43 5 -40z"/>
<path d="M5772 7140 c0 -19 2 -27 5 -17 2 9 2 25 0 35 -3 9 -5 1 -5 -18z"/>
<path d="M5882 7078 c-1 -37 3 -70 8 -73 6 -3 10 -17 10 -31 0 -15 4 -23 11
-19 12 8 3 96 -11 105 -5 3 -10 23 -13 45 -2 28 -4 19 -5 -27z"/>
<path d="M7405 7123 c-12 -29 -14 -103 -4 -103 6 0 8 3 6 8 -3 4 4 25 14 47
19 38 19 65 0 65 -5 0 -12 -8 -16 -17z"/>
<path d="M6715 7084 l-40 -14 60 6 c33 4 64 10 70 15 14 13 -44 9 -90 -7z"/>
<path d="M6628 7063 c6 -2 18 -2 25 0 6 3 1 5 -13 5 -14 0 -19 -2 -12 -5z"/>
<path d="M9151 6914 c-1 -18 39 -104 49 -104 11 0 1 42 -14 55 -6 6 -17 21
-23 35 -6 14 -12 20 -12 14z"/>
<path d="M9001 6614 c0 -11 3 -14 6 -6 3 7 2 16 -1 19 -3 4 -6 -2 -5 -13z"/>
<path d="M9040 6259 c0 -20 -2 -21 -11 -9 -8 11 -9 6 -5 -20 3 -19 9 -55 12
-79 6 -38 8 -42 15 -22 5 12 7 49 4 83 -5 61 -15 93 -15 47z"/>
<path d="M9080 6245 c0 -8 4 -15 10 -15 5 0 7 7 4 15 -4 8 -8 15 -10 15 -2 0
-4 -7 -4 -15z"/>
<path d="M3955 6202 c-19 -13 -35 -52 -35 -81 0 -26 3 -29 26 -26 33 3 45 22
37 55 -4 14 -6 33 -5 43 1 18 -7 21 -23 9z"/>
<path d="M9106 6185 c4 -8 8 -15 10 -15 2 0 4 7 4 15 0 8 -4 15 -10 15 -5 0
-7 -7 -4 -15z"/>
<path d="M4822 6150 c0 -14 2 -19 5 -12 2 6 2 18 0 25 -3 6 -5 1 -5 -13z"/>
<path d="M3855 5960 c-3 -5 -1 -10 4 -10 6 0 11 5 11 10 0 6 -2 10 -4 10 -3 0
-8 -4 -11 -10z"/>
<path d="M3992 5930 c0 -14 2 -19 5 -12 2 6 2 18 0 25 -3 6 -5 1 -5 -13z"/>
<path d="M5116 5908 c-7 -28 -8 -83 -1 -76 6 5 16 98 11 98 -2 0 -6 -10 -10
-22z"/>
<path d="M4021 5878 c0 -7 4 -22 9 -33 7 -17 9 -15 9 13 1 17 -3 32 -9 32 -5
0 -10 -6 -9 -12z"/>
<path d="M5111 5782 c0 -18 -4 -31 -8 -29 -5 3 -9 -70 -10 -161 -2 -108 0
-160 6 -147 5 11 10 79 10 152 1 72 4 133 9 135 4 2 4 21 1 43 -6 38 -6 39 -8
7z"/>
<path d="M8240 5705 c0 -23 -3 -26 -12 -17 -17 17 -19 16 -68 -28 -24 -22 -50
-40 -57 -40 -19 0 -30 -28 -36 -93 -8 -84 21 -175 66 -202 27 -17 32 -27 35
-64 l3 -43 -34 26 c-19 14 -38 26 -44 26 -5 0 -28 13 -49 28 -34 25 -69 44
-84 46 -3 1 -31 18 -62 38 -37 25 -62 36 -74 31 -14 -5 -16 -3 -11 11 4 10 7
20 7 22 0 2 5 4 10 4 6 0 36 14 67 32 l56 32 -54 17 c-29 10 -56 15 -59 11
-11 -15 -28 -10 -33 8 -3 11 -1 20 4 20 5 0 9 9 9 20 0 21 -15 27 -25 10 -3
-5 -15 -10 -25 -10 -10 0 -22 -10 -25 -22 -4 -11 -18 -31 -32 -44 -16 -15 -27
-38 -30 -66 -7 -51 -52 -113 -88 -122 -23 -6 -25 -10 -21 -44 3 -20 15 -77 27
-126 15 -63 24 -84 31 -75 7 10 7 7 3 -8 -3 -13 -3 -44 1 -70 8 -46 8 -46 15
-18 l7 30 1 -34 c0 -19 7 -42 14 -50 7 -9 24 -59 36 -111 13 -52 27 -97 32
-100 7 -5 12 -75 10 -142 -1 -55 8 -100 33 -152 26 -58 28 -86 6 -86 -5 0 -10
-7 -10 -15 0 -8 4 -15 9 -15 7 0 27 -24 104 -125 4 -5 21 -26 37 -45 16 -19
30 -41 30 -47 0 -7 11 -20 24 -29 14 -8 23 -21 20 -28 -3 -8 2 -16 10 -19 9
-4 16 -14 16 -22 0 -9 5 -13 10 -10 10 6 13 -3 13 -38 0 -12 6 -17 21 -15 17
2 20 -2 18 -19 -2 -13 2 -23 7 -23 6 0 11 -7 11 -15 0 -10 7 -15 18 -13 13 2
17 -4 17 -24 1 -15 9 -33 18 -40 11 -8 19 -32 22 -63 7 -66 23 -106 44 -103
10 2 15 -3 13 -13 -1 -9 6 -19 16 -21 14 -4 20 -17 24 -51 5 -44 44 -114 57
-102 3 4 11 -13 16 -37 8 -32 16 -43 30 -43 11 0 23 -4 27 -10 5 -6 8 -4 9 5
0 8 6 -1 13 -20 7 -19 18 -35 24 -35 7 0 23 -13 36 -28 14 -17 27 -24 31 -18
10 18 25 13 34 -11 9 -24 -3 -40 -24 -32 -7 3 -15 -2 -18 -10 -4 -10 -1 -16 9
-16 8 0 13 -4 10 -9 -3 -4 6 -6 19 -3 16 3 25 11 25 23 0 11 4 19 10 19 16 0
30 69 19 97 -12 32 -12 63 1 63 6 0 10 -9 10 -21 0 -18 4 -16 30 13 31 33 41
60 16 39 -20 -16 -39 19 -30 54 5 19 13 25 35 25 19 0 29 -5 29 -15 0 -8 9
-20 20 -27 11 -7 20 -18 20 -25 0 -21 18 -15 38 15 l20 28 -25 22 c-13 12 -29
22 -33 22 -5 0 -12 10 -15 21 -4 12 -38 53 -77 92 -38 39 -75 86 -83 104 -8
18 -19 33 -24 33 -6 0 -11 6 -11 14 0 8 -7 17 -16 20 -10 4 -14 14 -11 26 3
11 2 18 -2 16 -4 -3 -34 22 -66 56 -41 42 -59 69 -60 87 0 22 -4 26 -28 24
-16 -1 -25 2 -21 8 3 5 -15 31 -40 57 -25 26 -49 55 -52 65 -3 9 -9 17 -14 17
-5 0 -19 23 -31 50 -12 28 -25 50 -30 50 -5 0 -13 9 -19 20 -9 16 -8 19 6 13
14 -5 16 -2 10 23 -4 16 -11 45 -15 64 -5 19 -9 31 -10 26 -2 -19 -34 21 -63
78 -17 34 -39 70 -49 82 -10 11 -21 33 -23 50 -7 44 -11 57 -24 81 -7 12 -12
30 -12 40 0 10 -10 36 -22 58 -11 22 -24 54 -28 70 -5 17 -21 66 -38 110 -16
44 -33 89 -37 100 -4 11 9 -3 29 -32 20 -29 36 -54 36 -57 0 -2 18 -43 40 -90
22 -47 40 -88 40 -92 0 -3 14 -22 31 -41 17 -19 28 -41 25 -49 -3 -8 4 -18 14
-24 11 -6 20 -17 20 -24 0 -12 39 -67 83 -116 17 -18 40 -52 102 -150 27 -41
54 -79 60 -85 7 -5 22 -28 35 -50 13 -22 34 -52 48 -67 13 -14 25 -38 26 -52
0 -15 8 -29 19 -32 9 -3 17 -9 17 -13 0 -5 20 -29 44 -54 34 -34 50 -44 66
-40 16 4 23 0 27 -15 3 -11 12 -23 20 -26 8 -3 11 -11 8 -17 -5 -7 1 -10 16
-8 13 2 29 0 36 -4 12 -7 12 10 1 29 -4 6 -10 26 -13 45 -3 18 -11 37 -17 40
-7 4 -13 15 -14 24 -4 28 -26 75 -35 75 -8 0 -19 28 -18 44 0 5 -5 12 -11 16
-7 4 -13 19 -13 34 -1 14 -5 26 -9 26 -5 0 -8 6 -8 13 0 6 -18 31 -40 55 -22
24 -38 47 -35 52 3 4 -2 10 -10 14 -10 4 -15 20 -15 51 0 31 -6 51 -20 65 -10
10 -28 36 -39 57 -11 21 -31 50 -45 65 -14 15 -26 35 -26 44 0 15 3 15 23 -4
13 -12 27 -19 32 -15 4 5 5 -2 2 -14 -7 -29 5 -37 20 -14 9 14 5 27 -22 67
-46 68 -92 117 -103 110 -5 -3 -14 6 -20 19 -7 14 -16 25 -22 25 -5 0 -10 6
-10 13 0 7 -11 21 -25 31 -14 11 -24 25 -21 33 3 7 1 13 -4 13 -6 0 -10 7 -10
15 0 8 -4 15 -10 15 -5 0 -10 7 -10 15 0 8 -4 15 -10 15 -5 0 -10 6 -10 14 0
7 -7 19 -15 26 -9 7 -22 28 -31 46 -10 20 -27 37 -46 43 -24 8 -29 15 -25 31
3 11 1 18 -3 15 -11 -7 -41 35 -34 47 3 4 0 8 -7 8 -8 0 -9 3 -3 9 16 16 60 0
109 -40 26 -21 51 -39 56 -39 5 0 9 -6 9 -12 0 -7 9 -24 20 -38 11 -14 20 -34
20 -45 0 -11 9 -37 20 -58 11 -20 20 -43 20 -51 0 -7 7 -19 15 -26 13 -11 15
-8 15 19 0 17 5 31 11 31 7 0 10 12 7 30 -4 27 -2 30 16 24 12 -3 26 -12 32
-20 6 -8 16 -14 21 -14 6 0 13 -9 16 -20 3 -11 11 -19 18 -18 7 2 13 -2 14 -9
0 -6 43 -58 97 -115 53 -56 118 -130 144 -163 26 -33 54 -66 62 -74 7 -8 40
-54 73 -102 33 -49 63 -89 68 -89 12 0 94 -132 96 -153 1 -10 6 -22 12 -25 12
-8 46 -72 38 -72 -3 0 2 -12 12 -27 23 -35 64 -153 53 -153 -4 0 -18 12 -29
28 -20 26 -20 26 -21 5 0 -14 -6 -23 -15 -23 -19 0 -19 -14 -2 -32 8 -7 17
-28 20 -47 11 -55 49 -88 39 -33 -2 15 -2 25 1 21 4 -3 9 -30 13 -60 3 -29 10
-59 15 -64 4 -6 9 -33 10 -60 1 -28 8 -59 16 -70 7 -11 13 -30 13 -43 0 -20 3
-22 14 -13 35 29 47 193 22 286 -16 62 -54 152 -112 271 -26 55 -42 98 -38
108 4 11 2 16 -6 14 -6 -2 -32 35 -57 82 -25 47 -62 110 -84 140 -21 30 -48
74 -60 97 -11 23 -36 52 -55 65 -29 20 -34 28 -34 65 0 31 -5 45 -18 52 -10 5
-26 28 -36 50 -11 23 -27 42 -40 45 -12 3 -30 20 -40 38 -11 18 -36 48 -55 66
-24 23 -30 31 -16 27 84 -28 114 -40 138 -57 16 -12 49 -21 78 -23 28 -2 57
-9 64 -15 8 -7 20 -10 27 -8 7 3 -3 13 -22 23 -88 46 -170 84 -215 99 -28 9
-59 20 -70 25 -11 5 -45 18 -75 28 -30 10 -61 24 -68 30 -7 7 -20 13 -28 13
-8 0 -14 8 -15 18 -4 79 -20 122 -46 122 -8 0 -34 59 -48 109 -5 15 -4 21 3
17 6 -4 16 3 23 16 l12 22 18 -23 c19 -23 19 -22 12 70 -3 52 -10 96 -15 97
-4 2 -8 21 -8 43 0 38 26 79 50 79 6 0 10 7 10 16 0 10 -6 14 -14 11 -7 -3
-19 0 -25 6 -8 8 -11 3 -11 -18z m-43 -452 c-3 -10 -5 -4 -5 12 0 17 2 24 5
18 2 -7 2 -21 0 -30z m-247 17 c0 -5 -7 -10 -15 -10 -8 0 -15 5 -15 10 0 6 7
10 15 10 8 0 15 -4 15 -10z m690 -1699 c6 -13 6 -22 1 -26 -9 -5 -31 24 -31
39 0 14 20 4 30 -13z m-226 -170 c3 -5 -1 -11 -9 -15 -15 -6 -29 7 -18 18 9 9
21 8 27 -3z"/>
<path d="M4962 5690 c0 -19 2 -27 5 -17 2 9 2 25 0 35 -3 9 -5 1 -5 -18z"/>
<path d="M8086 5675 c-9 -26 -7 -32 5 -12 6 10 9 21 6 23 -2 3 -7 -2 -11 -11z"/>
<path d="M8020 5618 c0 -7 5 -20 10 -28 8 -12 10 -9 10 13 0 15 -4 27 -10 27
-5 0 -10 -6 -10 -12z"/>
<path d="M7983 5558 c4 -12 1 -14 -15 -10 -14 3 -19 1 -14 -6 10 -17 46 -15
46 2 0 8 -5 18 -12 22 -7 5 -9 2 -5 -8z"/>
<path d="M4921 5524 c0 -11 3 -14 6 -6 3 7 2 16 -1 19 -3 4 -6 -2 -5 -13z"/>
<path d="M4901 5463 c0 -12 2 -14 6 -4 5 11 7 11 15 0 8 -12 9 -12 6 0 -6 22
-28 25 -27 4z"/>
<path d="M7531 5244 c0 -11 3 -14 6 -6 3 7 2 16 -1 19 -3 4 -6 -2 -5 -13z"/>
<path d="M5762 4340 c1 -44 18 -48 18 -6 0 20 -4 36 -9 36 -5 0 -9 -14 -9 -30z"/>
<path d="M8953 4064 c-15 -16 -16 -24 -4 -24 8 0 24 30 19 35 -2 2 -9 -3 -15
-11z"/>
<path d="M6730 3856 c0 -14 5 -28 10 -31 6 -4 10 7 10 24 0 17 -4 31 -10 31
-5 0 -10 -11 -10 -24z"/>
<path d="M8527 3823 c-7 -11 39 -66 51 -62 6 2 -2 19 -18 37 -15 18 -31 29
-33 25z"/>
<path d="M6665 3700 c3 -5 8 -10 11 -10 2 0 4 5 4 10 0 6 -5 10 -11 10 -5 0
-7 -4 -4 -10z"/>
<path d="M6711 3674 c-10 -11 -10 -19 -2 -27 8 -8 6 -16 -6 -29 -13 -14 -13
-20 -3 -33 15 -18 26 -12 45 24 11 23 12 34 2 55 -14 30 -17 31 -36 10z"/>
<path d="M9131 3654 c0 -11 3 -14 6 -6 3 7 2 16 -1 19 -3 4 -6 -2 -5 -13z"/>
<path d="M6681 3474 c0 -11 3 -14 6 -6 3 7 2 16 -1 19 -3 4 -6 -2 -5 -13z"/>
<path d="M8670 3385 c-13 -14 -19 -25 -13 -25 5 0 8 -13 5 -30 -3 -20 0 -30 9
-30 7 0 20 -6 28 -14 14 -13 21 -10 53 25 37 38 36 49 -3 29 -17 -10 -19 -7
-19 30 0 32 -4 40 -18 40 -10 0 -29 -11 -42 -25z"/>
<path d="M8794 3394 c-18 -14 -18 -15 4 -4 12 6 22 13 22 15 0 8 -5 6 -26 -11z"/>
<path d="M2 3130 c0 -69 2 -119 5 -113 3 10 8 10 19 -1 14 -14 23 -14 102 6
27 7 41 15 38 23 -2 7 1 18 7 24 16 16 1 25 -41 24 -20 -1 -56 3 -80 9 -39 10
-42 13 -37 37 3 14 1 46 -4 71 -7 36 -9 21 -9 -80z"/>
<path d="M845 3130 c-3 -5 3 -10 14 -10 12 0 21 5 21 10 0 6 -6 10 -14 10 -8
0 -18 -4 -21 -10z"/>
<path d="M8162 3123 c-20 -39 -22 -76 -7 -165 8 -51 15 -96 15 -100 0 -4 6
-13 13 -20 22 -23 49 -70 57 -97 3 -14 9 -25 13 -23 4 1 6 3 5 5 -5 6 38 47
50 47 10 0 12 14 10 55 -2 30 -6 55 -10 55 -4 0 -4 16 -1 35 4 24 2 35 -6 35
-7 0 -9 5 -6 10 3 6 -1 13 -9 16 -9 3 -14 9 -11 14 2 4 -5 16 -15 28 -11 12
-20 30 -20 40 0 11 -7 25 -15 32 -8 7 -12 17 -8 23 3 5 1 7 -4 4 -6 -4 -13 0
-17 8 -7 20 -23 19 -34 -2z"/>
<path d="M248 3097 l-27 -13 25 -27 c21 -23 33 -28 66 -25 50 4 71 29 47 54
-21 21 -77 26 -111 11z"/>
<path d="M763 3083 c-58 -6 -54 -23 5 -23 53 0 85 13 57 24 -9 3 -17 5 -18 4
-1 -1 -21 -3 -44 -5z"/>
<path d="M8340 3060 c-8 -6 -11 -10 -7 -10 4 0 -4 -12 -18 -26 -14 -14 -24
-29 -21 -32 11 -11 57 22 62 45 8 29 3 35 -16 23z"/>
<path d="M8330 2976 c0 -2 7 -6 15 -10 8 -3 15 -1 15 4 0 6 -7 10 -15 10 -8 0
-15 -2 -15 -4z"/>
<path d="M8352 2922 c-23 -47 -24 -49 -8 -55 15 -6 46 41 46 70 0 23 -24 14
-38 -15z"/>
<path d="M1625 2891 c-10 -34 -118 -60 -253 -62 -39 -1 -72 -5 -72 -11 0 -5
28 -8 63 -8 34 1 117 -1 183 -5 119 -8 122 -7 129 14 8 27 -12 91 -30 91 -8 0
-16 -9 -20 -19z"/>
<path d="M1829 2853 c-17 -20 -2 -43 28 -44 15 0 37 -4 48 -8 12 -5 25 -4 33
2 7 5 34 9 60 9 54 -2 69 5 74 33 3 19 -3 20 -115 21 -85 0 -121 -3 -128 -13z"/>
<path d="M667 2824 c-4 -4 -374 -16 -524 -16 l-143 -1 0 -44 0 -43 63 0 c65 0
334 23 476 39 47 6 124 8 172 4 51 -3 119 -1 165 6 44 7 133 14 199 15 66 2
120 4 120 6 0 1 14 4 30 6 42 6 55 12 55 24 0 17 -154 12 -194 -6 -32 -16 -37
-16 -76 0 -35 14 -71 16 -192 15 -82 -2 -150 -4 -151 -5z"/>
<path d="M1715 2573 c-53 -16 -122 -28 -205 -34 -551 -38 -945 -43 -1007 -11
-30 16 -83 22 -200 23 -108 1 -115 -1 -170 -30 -31 -17 -67 -31 -79 -31 -47 0
-54 -9 -54 -70 l0 -58 101 4 c56 2 109 6 118 8 24 7 109 15 274 26 81 5 151
12 157 15 5 3 42 8 82 10 40 3 120 9 178 15 58 5 128 12 155 14 28 3 122 8
210 11 88 4 176 12 195 18 38 11 238 14 287 3 41 -9 80 25 89 77 6 36 5 37
-22 36 -16 -1 -65 -12 -109 -26z"/>
<path d="M6228 2447 c-12 -29 -10 -73 3 -60 6 6 9 26 7 44 -2 26 -5 30 -10 16z"/>
<path d="M7227 2436 c-4 -10 -5 -21 -2 -24 9 -9 17 6 13 25 -3 17 -4 17 -11
-1z"/>
<path d="M6241 2344 c0 -11 3 -14 6 -6 3 7 2 16 -1 19 -3 4 -6 -2 -5 -13z"/>
<path d="M8096 2234 c-5 -14 -4 -15 9 -4 17 14 19 20 6 20 -5 0 -12 -7 -15
-16z"/>
<path d="M6441 2174 c0 -11 3 -14 6 -6 3 7 2 16 -1 19 -3 4 -6 -2 -5 -13z"/>
<path d="M2345 1854 c-66 -7 -223 -22 -350 -34 -126 -11 -351 -32 -500 -46
-326 -32 -473 -29 -598 10 -43 14 -109 28 -146 32 l-68 6 -20 -40 c-14 -29
-17 -44 -9 -52 6 -6 7 -13 0 -20 -5 -5 -124 -16 -264 -25 -262 -15 -353 -23
-377 -32 -9 -4 -13 -26 -13 -75 l0 -71 48 7 c26 3 90 10 142 16 52 5 131 14
175 19 44 5 83 7 86 5 4 -2 89 3 190 12 101 8 240 19 309 24 172 11 306 28
362 45 25 8 53 12 61 9 8 -3 50 0 93 5 74 10 315 37 549 62 55 6 165 17 245
26 80 9 176 18 213 21 60 4 70 7 79 28 8 17 7 31 -2 54 -15 35 -16 35 -205 14z"/>
<path d="M3253 1483 c-19 -12 -23 -25 -23 -64 0 -50 13 -70 27 -44 5 8 20 16
33 18 31 5 37 34 15 76 -18 35 -21 36 -52 14z"/>
<path d="M8810 1239 c0 -11 4 -18 10 -14 5 3 7 12 3 20 -7 21 -13 19 -13 -6z"/>
<path d="M0 1214 c0 -21 25 -63 33 -54 3 3 -3 21 -13 40 -15 27 -19 30 -20 14z"/>
<path d="M2505 1120 c-3 -5 -1 -10 4 -10 6 0 11 5 11 10 0 6 -2 10 -4 10 -3 0
-8 -4 -11 -10z"/>
<path d="M225 631 c-7 -12 12 -24 25 -16 11 7 4 25 -10 25 -5 0 -11 -4 -15 -9z"/>
</g>
</svg>
