<?xml version="1.0" standalone="no"?>
<!DOCTYPE svg PUBLIC "-//W3C//DTD SVG 20010904//EN"
 "http://www.w3.org/TR/2001/REC-SVG-20010904/DTD/svg10.dtd">
<svg version="1.0" xmlns="http://www.w3.org/2000/svg"
 width="321.000000pt" height="503.000000pt" viewBox="0 0 321.000000 503.000000"
 preserveAspectRatio="xMidYMid meet">

<g transform="translate(0.000000,503.000000) scale(0.100000,-0.100000)"
fill="#000000" stroke="none">
<path d="M3 3893 c2 -626 4 -1142 4 -1148 0 -5 -1 -209 -4 -453 -2 -314 0
-442 7 -437 13 8 149 -15 156 -27 3 -4 -33 -8 -80 -8 l-86 0 0 -405 c0 -337 2
-405 14 -405 7 0 19 -7 27 -16 10 -13 35 -15 148 -13 138 2 151 -1 137 -36 -3
-9 -7 -18 -8 -22 -2 -4 33 -6 77 -5 44 2 94 -1 111 -6 21 -7 42 -6 69 3 32 11
121 11 133 0 10 -9 -21 -45 -38 -45 -31 0 -32 -17 -2 -28 15 -5 35 -13 45 -17
15 -6 17 -1 17 43 0 57 9 63 84 55 48 -6 62 7 29 26 -10 6 -14 11 -10 11 5 0
-1 12 -12 26 -12 15 -21 35 -21 45 0 16 8 19 45 19 35 0 47 -4 51 -18 3 -9 10
-25 15 -34 7 -14 5 -18 -11 -18 -11 0 -20 5 -20 11 0 8 -5 8 -15 -1 -20 -17
-10 -30 24 -30 16 0 34 -7 41 -15 7 -8 25 -15 41 -15 30 0 79 -19 79 -30 0 -8
-144 -24 -219 -25 -26 0 -46 -5 -48 -12 -4 -10 22 -12 104 -10 67 1 115 -2
127 -10 16 -8 25 -8 43 4 12 8 30 13 38 9 17 -6 20 -42 5 -51 -6 -3 -68 -8
-138 -11 -70 -3 -154 -9 -187 -14 -33 -6 -90 -11 -126 -12 -37 -2 -65 -6 -62
-11 6 -10 121 -8 218 4 44 5 134 12 200 15 l120 4 34 -30 34 -29 -29 -12 c-18
-7 -65 -9 -124 -6 -63 3 -108 0 -135 -8 -44 -15 -185 -27 -555 -50 -341 -21
-350 -22 -350 -46 0 -15 5 -19 18 -15 16 5 200 22 502 46 141 11 193 16 365
31 66 5 160 13 208 16 l88 6 -7 -39 c-3 -21 -8 -41 -10 -43 -5 -6 -255 -31
-317 -31 -31 0 -65 -4 -75 -9 -9 -5 -117 -17 -238 -26 -190 -15 -229 -16 -274
-4 -51 13 -53 13 -68 -9 -12 -19 -23 -22 -81 -22 -85 0 -111 -8 -111 -31 0
-11 3 -19 8 -19 117 4 722 69 743 80 9 5 25 6 36 4 11 -3 84 2 163 10 78 9
158 16 177 16 l35 0 -7 -43 c-8 -46 -18 -57 -53 -57 -15 0 -22 -5 -19 -12 2
-7 16 -12 31 -11 25 2 27 -1 24 -30 -3 -27 -8 -33 -32 -35 -23 -3 -28 0 -23
12 4 9 2 16 -3 16 -6 0 -10 -4 -10 -10 0 -5 -5 -10 -10 -10 -6 0 -24 -10 -39
-21 -40 -29 -58 -21 -31 14 12 15 28 27 36 27 12 0 19 13 12 23 -2 2 3 11 9
19 11 12 8 14 -17 10 -20 -3 -27 -8 -23 -18 3 -8 -6 -23 -21 -35 -14 -11 -26
-27 -26 -35 0 -8 -21 -25 -47 -37 -42 -19 -72 -23 -253 -28 -113 -4 -212 -8
-220 -8 -38 -3 -194 0 -185 4 6 2 80 13 165 25 85 12 211 30 280 40 69 10 153
22 188 25 52 6 62 10 62 26 0 17 -7 19 -82 16 -46 -2 -90 -7 -98 -10 -15 -6
-180 -27 -535 -67 -261 -30 -235 -21 -235 -80 0 -28 5 -50 10 -50 6 0 10 -5
10 -11 0 -5 -4 -7 -10 -4 -6 4 -10 -32 -10 -99 l0 -106 1605 0 1605 0 0 435 0
435 -22 10 c-13 5 -75 28 -138 50 -63 23 -120 46 -125 50 -6 5 -30 12 -53 16
l-42 7 0 -49 c1 -27 9 -141 19 -254 10 -113 16 -207 14 -210 -2 -3 -12 5 -21
18 -14 18 -20 20 -30 10 -9 -9 -12 -9 -12 1 0 7 -5 9 -10 6 -6 -4 -10 10 -10
34 0 40 -1 40 -25 29 -14 -6 -25 -16 -25 -22 0 -6 -9 -28 -20 -49 -11 -21 -23
-58 -27 -82 -3 -25 -9 -42 -13 -40 -4 3 -10 -3 -12 -13 -6 -20 -39 -26 -50 -9
-4 6 -3 18 2 28 12 22 -6 88 -33 116 -11 13 -36 29 -55 35 -33 12 -34 14 -28
56 5 37 2 46 -23 72 -27 29 -29 29 -34 10 -7 -27 -27 -25 -28 3 l0 22 -10 -24
c-7 -18 -12 -21 -23 -12 -8 6 -16 24 -19 39 -3 15 -11 47 -17 72 -6 25 -15 68
-20 95 -6 28 -11 59 -14 70 -2 11 -9 67 -16 125 -6 58 -19 150 -27 205 -9 55
-21 134 -27 175 l-12 75 -17 -25 c-10 -14 -25 -49 -33 -79 -9 -30 -29 -76 -45
-103 -21 -35 -27 -54 -20 -66 20 -38 43 -216 48 -368 5 -136 3 -165 -11 -192
-14 -28 -20 -31 -44 -26 -15 4 -38 13 -50 21 -13 8 -26 12 -29 9 -11 -10 29
-91 55 -113 15 -11 23 -25 19 -29 -4 -5 -12 -2 -17 6 -5 8 -12 11 -16 7 -8 -8
33 -47 50 -47 6 -1 0 -7 -14 -15 -25 -14 -25 -14 10 -9 19 3 51 10 70 15 19 5
38 9 43 9 15 0 6 -30 -19 -60 -25 -29 -26 -32 -9 -44 26 -19 9 -25 -82 -32
-43 -3 -81 -8 -84 -10 -14 -8 0 55 20 89 19 31 20 37 7 37 -9 0 -16 5 -16 10
0 6 -6 10 -14 10 -8 0 -16 6 -19 14 -9 22 -116 98 -128 91 -12 -8 -79 41 -79
59 0 15 59 96 70 96 4 0 17 -33 28 -73 11 -39 21 -64 21 -53 1 16 3 17 18 5
17 -15 17 -11 -4 116 -6 36 -7 38 -14 15 -5 -19 -7 -14 -8 23 -1 26 6 64 14
84 18 43 18 40 1 40 -8 0 -12 -6 -9 -14 3 -7 1 -13 -5 -13 -18 0 -21 28 -5 41
10 9 13 23 9 49 -7 46 30 127 57 122 14 -3 17 4 17 43 0 25 -5 56 -12 68 -6
12 -13 29 -14 37 -2 8 -10 42 -18 75 -9 33 -22 115 -30 183 -9 67 -17 126 -20
131 -3 5 -6 31 -7 57 -1 64 -27 252 -38 273 -5 9 -14 40 -21 69 -22 93 -33 62
-26 -70 4 -68 2 -166 -3 -218 -7 -72 -6 -112 5 -165 8 -38 19 -95 25 -125 6
-30 14 -57 18 -60 9 -7 36 -51 44 -72 4 -12 2 -15 -9 -11 -11 4 -11 -3 4 -38
27 -64 35 -114 20 -127 -7 -5 -40 -15 -73 -22 -33 -7 -64 -17 -69 -21 -4 -4 0
-31 10 -61 12 -33 18 -73 16 -106 -5 -89 -25 -57 -46 74 -11 66 -26 125 -34
134 -12 11 -13 34 -9 115 4 59 1 154 -7 233 -14 137 -26 182 -26 97 0 -33 -3
-46 -10 -39 -7 7 -7 41 0 105 10 102 -7 416 -22 401 -9 -9 -44 -195 -77 -412
-11 -69 -23 -187 -27 -262 -4 -76 -11 -135 -15 -132 -5 3 -9 -2 -9 -10 0 -9
-4 -16 -10 -16 -6 0 -10 62 -10 165 0 93 -4 165 -9 165 -5 0 -11 -6 -14 -12
-2 -7 -8 0 -12 15 -5 20 -3 33 11 48 14 16 15 22 6 28 -25 15 -40 129 -31 246
11 154 11 443 0 450 -5 3 -12 -3 -16 -14 -8 -27 -9 -231 -1 -321 5 -54 3 -86
-7 -114 -16 -46 -37 -59 -37 -24 0 29 -15 54 -24 40 -3 -6 -3 -17 0 -26 3 -9
1 -16 -5 -16 -6 0 -11 -8 -11 -17 0 -9 -2 -14 -5 -11 -7 7 23 286 35 329 6 18
10 45 9 59 0 16 -6 7 -16 -27 -9 -29 -19 -53 -24 -53 -4 0 -2 19 5 43 36 114
47 159 42 165 -3 3 -6 0 -6 -7 0 -6 -9 -31 -21 -54 -34 -69 -79 -181 -79 -198
0 -8 -4 -19 -9 -25 -8 -8 -31 -132 -47 -249 -6 -41 -8 -46 -15 -27 -5 12 -10
22 -11 22 -8 0 -4 -66 4 -71 6 -4 7 -26 2 -54 l-7 -48 -14 27 c-21 39 -28 28
-33 -54 l-1 -25 -12 23 c-7 17 -8 38 -1 72 6 27 7 47 3 45 -9 -6 -16 25 -11
47 4 22 33 32 44 16 4 -7 8 -9 8 -4 0 5 -7 18 -16 28 -15 16 -16 26 -5 87 15
93 15 93 -8 79 -11 -7 -19 -14 -19 -17 2 -20 -4 -29 -22 -34 -23 -6 -39 11
-21 23 19 11 22 80 4 80 -8 0 -11 5 -7 12 5 7 2 9 -9 5 -28 -11 -27 23 4 91
34 75 52 142 38 142 -5 0 0 9 10 19 11 11 24 37 30 58 6 21 20 73 32 116 21
73 21 78 5 96 -10 11 -30 43 -45 73 -20 38 -39 59 -70 77 -23 13 -44 22 -46
20 -2 -3 -23 -200 -28 -279 -1 -14 -21 -46 -45 -71 -59 -64 -98 -74 -255 -65
-208 11 -288 34 -340 95 -55 65 -56 99 -21 491 19 211 35 273 83 318 50 47 90
61 185 66 44 3 84 5 87 5 14 2 28 60 39 156 6 55 18 154 25 220 16 130 27 232
30 280 5 59 33 256 37 261 7 6 1 -154 -7 -196 -4 -19 -8 -74 -10 -121 -2 -47
-8 -112 -14 -145 -5 -32 -11 -79 -12 -104 -2 -25 -7 -51 -12 -57 -5 -7 -7 -19
-4 -28 4 -8 3 -17 -2 -19 -4 -3 -9 -36 -10 -73 -1 -37 -4 -94 -5 -126 -3 -51
-1 -58 18 -61 105 -20 142 -31 182 -53 81 -46 115 -128 96 -240 -7 -39 -6 -53
3 -53 6 0 33 -14 61 -31 l49 -31 -34 35 c-22 23 -31 41 -27 52 5 14 15 9 62
-27 30 -24 65 -61 77 -83 l21 -40 7 50 c4 28 19 122 33 210 14 88 26 171 26
185 0 17 -15 41 -45 70 -51 50 -59 89 -24 113 13 10 16 16 8 19 -9 3 -9 9 -1
25 9 16 8 24 -3 33 -8 7 -15 18 -15 25 0 17 24 36 36 27 5 -4 2 0 -7 9 -14 13
-78 124 -192 333 -15 27 -27 57 -27 68 0 10 -6 21 -14 24 -8 3 -17 12 -20 20
-4 10 -1 13 7 9 6 -4 5 -1 -3 7 -8 7 -16 20 -18 28 -2 8 -7 19 -12 25 -5 5
-24 39 -43 75 -54 101 -78 144 -88 154 -5 6 -9 16 -9 24 0 12 3 12 15 2 8 -7
15 -16 15 -20 0 -4 43 -83 96 -176 189 -333 272 -480 305 -543 18 -36 35 -59
37 -53 2 7 28 -7 62 -35 76 -62 95 -104 80 -182 -20 -106 -29 -275 -21 -365 8
-88 9 -90 49 -125 98 -87 118 -98 179 -100 17 -1 38 -7 45 -14 20 -20 66 -26
79 -11 8 9 17 11 29 4 10 -5 21 -5 26 0 6 6 37 5 79 -1 122 -19 135 -18 135 9
0 20 4 23 33 20 25 -2 35 -10 47 -35 12 -25 21 -33 43 -33 15 0 27 -4 27 -10
0 -5 -9 -10 -20 -10 -12 0 -20 -7 -20 -16 0 -11 5 -14 16 -10 15 6 15 4 0 -19
-20 -31 -13 -49 14 -35 30 16 33 12 11 -16 -12 -15 -21 -33 -21 -40 0 -17
-106 -126 -139 -143 -23 -13 -23 -12 -17 15 4 16 15 37 24 47 8 10 23 34 33
55 10 20 18 31 18 24 1 -7 5 -11 10 -7 10 5 15 215 6 215 -3 0 -12 -18 -21
-40 -9 -22 -20 -37 -25 -34 -5 3 -23 -24 -39 -60 -17 -36 -35 -66 -40 -66 -5
0 -1 16 10 35 14 25 15 33 5 29 -8 -3 -17 -14 -20 -25 -4 -10 -11 -19 -16 -19
-5 0 -9 -6 -9 -13 0 -8 -9 -22 -21 -32 -20 -19 -20 -19 -10 9 6 15 7 25 2 22
-12 -8 -21 18 -22 62 0 43 -10 27 -27 -47 -10 -44 3 -118 28 -163 6 -10 6 -18
1 -18 -5 0 -12 -12 -16 -27 -8 -32 -33 -63 -50 -63 -16 0 -25 23 -25 61 0 20
-4 28 -11 23 -7 -4 -9 -23 -5 -54 6 -43 4 -48 -19 -58 -33 -15 -34 -60 -1 -84
23 -17 24 -17 28 7 3 13 2 22 -2 20 -14 -9 -19 24 -5 35 7 6 55 13 107 15 52
2 94 8 96 14 2 6 16 11 30 11 19 0 23 3 14 9 -18 11 29 24 52 15 11 -4 16 -1
16 10 0 9 6 16 13 16 8 0 7 4 -3 10 -10 6 -11 10 -2 10 6 0 12 7 12 14 0 9 24
24 60 37 64 23 91 44 43 34 -21 -5 -16 -1 17 17 25 13 48 27 51 32 4 4 9 2 12
-5 4 -10 6 -10 6 -1 1 6 7 12 14 12 7 0 17 10 22 21 6 12 13 20 17 18 11 -7
75 85 116 167 50 99 55 116 57 184 0 30 7 83 15 118 13 56 12 67 -2 107 -15
38 -15 45 -3 45 19 0 19 8 -1 28 -11 10 -13 17 -5 20 17 6 13 33 -6 48 -10 7
-13 14 -6 14 22 0 44 31 37 54 -5 15 -3 18 5 10 9 -8 20 -63 24 -121 0 -7 3
-11 7 -10 4 1 17 -9 29 -23 14 -16 19 -19 15 -7 -8 22 12 22 25 0 8 -15 11
-15 26 -3 14 11 16 24 10 65 -3 27 -13 61 -22 75 -14 22 -14 23 -1 12 36 -30
67 -88 71 -137 3 -27 2 -41 0 -30 -9 37 -26 43 -21 8 4 -30 -4 -44 -15 -25 -2
4 -2 0 0 -8 18 -64 21 -125 8 -156 -8 -19 -18 -34 -23 -34 -18 0 -31 -79 -33
-207 -2 -73 0 -135 4 -139 4 -4 7 -12 7 -18 0 -6 -5 -4 -10 4 -5 8 -10 10 -10
5 0 -6 9 -18 20 -28 24 -20 26 -37 4 -37 -11 0 -15 -6 -11 -20 3 -11 1 -22 -4
-25 -4 -3 -8 -18 -8 -33 0 -15 -1 -36 -2 -47 -2 -44 5 -94 13 -89 4 3 8 1 8
-4 0 -6 -6 -12 -12 -15 -9 -3 -12 -20 -9 -48 1 -24 4 -64 5 -89 0 -25 4 -47 7
-50 17 -16 36 -87 28 -109 -6 -15 -4 -40 6 -74 21 -72 29 -183 14 -193 -8 -5
-10 -3 -4 7 6 11 5 12 -6 2 -19 -18 -29 -16 -29 6 0 11 -3 22 -7 24 -20 13 -4
-111 21 -163 14 -30 26 -67 26 -81 0 -15 12 -62 26 -105 19 -57 28 -109 32
-188 l5 -109 105 7 c58 3 145 6 194 6 l88 0 0 75 0 75 -90 0 c-82 0 -90 2 -90
19 0 29 38 47 113 55 l67 8 0 1824 0 1824 -1605 0 -1605 0 3 -1137z m105 420
c-2 -10 -13 -19 -26 -21 -24 -4 -29 7 -10 26 18 18 40 15 36 -5z m735 -33 c-3
-11 -9 -20 -15 -20 -5 0 -4 9 2 20 6 11 12 20 14 20 2 0 2 -9 -1 -20z m1794
-819 c10 -20 24 -44 32 -53 16 -21 2 -24 -20 -5 -22 18 -69 84 -64 89 14 14
36 0 52 -31z m-103 -26 c3 -8 1 -15 -4 -15 -6 0 -10 7 -10 15 0 8 2 15 4 15 2
0 6 -7 10 -15z m-2419 -81 c0 -10 -8 -20 -17 -22 -18 -3 -26 27 -11 42 12 11
28 0 28 -20z m2584 -85 c5 -16 8 -29 5 -29 -12 0 -63 67 -64 84 0 18 2 18 24
-3 14 -13 29 -36 35 -52z m-584 -159 c14 5 26 5 34 -3 18 -18 13 -24 -19 -19
-22 3 -30 0 -30 -11 0 -25 27 -45 72 -52 24 -4 48 -15 55 -24 18 -23 16 -78
-2 -85 -8 -3 -15 -16 -15 -30 0 -19 -4 -23 -19 -19 -20 5 -87 -25 -77 -35 12
-12 -75 -31 -99 -22 -32 12 -36 23 -29 70 6 39 7 40 21 20 16 -22 63 -28 63
-7 0 7 -18 24 -40 37 -51 32 -61 73 -34 139 14 32 26 47 42 49 12 2 22 9 23
15 0 7 7 2 15 -10 13 -17 20 -20 39 -13z m347 -194 c7 4 8 2 4 -5 -4 -6 -12
-9 -17 -6 -5 4 -9 1 -9 -6 0 -6 -8 -18 -17 -25 -19 -14 -63 -19 -63 -6 1 17
17 29 40 28 17 -1 28 6 35 22 7 17 11 19 13 7 2 -8 8 -12 14 -9z m-2212 -226
c0 -12 -40 -33 -48 -25 -4 4 2 13 12 21 23 16 36 18 36 4z m2470 -276 c0 -8
-5 -12 -10 -9 -6 4 -8 11 -5 16 9 14 15 11 15 -7z m-2533 -736 c-2 -29 -3 -8
-3 47 0 55 1 79 3 53 2 -26 2 -71 0 -100z m998 -87 c3 -5 1 -12 -5 -16 -5 -3
-10 1 -10 9 0 18 6 21 15 7z m-8 -68 c-3 -10 -5 -4 -5 12 0 17 2 24 5 18 2 -7
2 -21 0 -30z m1000 -290 c-3 -10 -5 -4 -5 12 0 17 2 24 5 18 2 -7 2 -21 0 -30z
m-650 -35 c-3 -8 -6 -5 -6 6 -1 11 2 17 5 13 3 -3 4 -12 1 -19z m651 -34 c-3
-14 -5 -12 -10 9 -3 19 -2 25 4 19 6 -6 8 -18 6 -28z m19 -51 c-3 -10 -5 -4
-5 12 0 17 2 24 5 18 2 -7 2 -21 0 -30z m-1777 -43 c0 -5 -4 -10 -10 -10 -5 0
-10 5 -10 10 0 6 5 10 10 10 6 0 10 -4 10 -10z m219 -16 c10 -9 12 -19 5 -33
-8 -18 -12 -19 -34 -8 -16 8 -26 23 -28 41 -3 25 -1 27 20 21 13 -4 29 -13 37
-21z m-299 -1 c8 -10 15 -25 15 -33 0 -11 12 -15 50 -15 57 0 75 -8 75 -35 0
-20 -19 -30 -60 -30 -21 0 -36 10 -59 39 -37 47 -80 57 -179 40 -85 -14 -99
-15 -140 -5 -27 6 -31 10 -21 22 6 7 15 11 21 8 5 -3 15 0 23 6 9 7 25 9 37 6
40 -12 158 -17 158 -7 0 9 21 18 50 20 9 0 22 -7 30 -16z m384 -68 c4 -11 -2
-15 -21 -15 -21 0 -24 2 -13 15 7 8 16 15 20 15 4 0 10 -7 14 -15z m-79 -4
c29 -7 30 -7 8 -19 -28 -15 -56 -15 -71 0 -27 27 -4 34 63 19z m1165 -112 c0
-16 -4 -29 -10 -29 -5 0 -10 16 -10 36 0 21 4 33 10 29 6 -3 10 -19 10 -36z
m45 -41 c-12 -16 -16 -18 -11 -5 3 10 6 26 6 35 0 12 3 13 11 5 8 -8 7 -17 -6
-35z m-65 -188 c0 -13 -5 -18 -15 -14 -8 4 -15 12 -15 20 0 8 7 14 15 14 8 0
15 -9 15 -20z m674 -22 c-4 -6 -2 -13 2 -17 13 -8 47 -121 40 -128 -3 -4 -13
11 -21 33 -9 21 -22 50 -29 64 -8 14 -14 37 -14 53 0 22 3 25 14 16 8 -6 11
-16 8 -21z m23 10 c-3 -8 -6 -5 -6 6 -1 11 2 17 5 13 3 -3 4 -12 1 -19z m-747
-50 c0 -20 56 -82 93 -103 10 -5 20 -19 22 -30 2 -11 4 -22 4 -24 1 -2 7 2 15
8 9 8 16 8 20 2 4 -5 2 -12 -4 -16 -22 -14 -8 -23 30 -18 36 5 40 3 40 -16 0
-12 -6 -21 -16 -21 -8 0 -12 -5 -9 -10 4 -6 -8 -13 -25 -17 l-32 -6 26 -24
c14 -13 26 -32 25 -41 0 -12 -3 -11 -9 6 -6 13 -25 29 -44 37 -35 15 -56 35
-37 35 6 0 11 11 11 25 0 14 -5 25 -11 25 -7 0 -9 -9 -6 -21 5 -18 2 -20 -16
-14 -30 9 -39 9 -63 1 -14 -4 -30 1 -47 14 -29 23 -87 135 -87 168 0 11 -6 23
-12 25 -7 3 3 6 22 7 19 0 46 7 60 15 35 20 50 18 50 -7z m676 -65 c-11 -11
-19 6 -11 24 8 17 8 17 12 0 3 -10 2 -21 -1 -24z m-896 -27 c0 -7 13 -33 30
-59 16 -26 25 -49 20 -52 -14 -9 -30 4 -30 24 0 9 -8 26 -18 37 -10 11 -22 35
-25 53 -6 29 -5 32 8 21 8 -7 15 -18 15 -24z m100 -101 c-11 -13 -10 -14 4 -9
11 4 16 1 16 -10 0 -14 -4 -15 -20 -6 -20 11 -23 30 -5 42 15 11 19 0 5 -17z
m950 -31 c12 -19 20 -37 17 -40 -5 -5 -47 57 -47 70 0 13 9 4 30 -30z m-558
-6 c-7 -7 -12 -22 -12 -35 0 -14 -6 -23 -15 -23 -21 0 -19 47 3 59 24 14 39
14 24 -1z m-327 -28 c4 -6 10 -8 15 -5 4 2 10 -6 12 -19 l5 -24 -29 21 c-28
21 -36 37 -19 37 6 0 13 -5 16 -10z m-1020 -89 c-3 -5 2 -11 12 -13 15 -3 15
-4 -1 -20 -19 -20 -46 -24 -46 -8 0 6 6 10 13 10 9 0 8 3 -2 9 -16 10 -6 31
15 31 8 0 13 -4 9 -9z m-478 -7 c-3 -3 -12 -4 -19 -1 -8 3 -5 6 6 6 11 1 17
-2 13 -5z m91 -7 c6 0 10 -2 7 -5 -7 -7 23 -32 39 -32 9 0 26 -10 38 -22 19
-19 19 -21 2 -14 -10 5 -28 11 -39 14 -11 2 -26 10 -34 16 -11 8 -13 8 -8 -1
9 -15 -13 -23 -35 -11 -11 5 -15 15 -11 25 6 14 7 14 19 -2 12 -16 13 -16 11
5 -1 18 -6 21 -29 18 -17 -3 -29 1 -33 10 -4 11 2 12 28 6 17 -4 38 -7 45 -7z
m302 3 l35 -1 -30 -16 c-16 -10 -36 -16 -42 -15 -7 2 -13 -2 -13 -8 0 -5 8
-10 18 -11 9 -1 -1 -5 -22 -10 -22 -5 -42 -6 -45 -1 -3 5 -15 12 -26 17 -18 7
-19 8 -2 12 10 3 26 -1 35 -9 15 -12 16 -11 3 5 -7 9 -19 17 -27 17 -7 0 -16
5 -20 11 -5 8 3 10 25 7 17 -2 31 0 31 5 0 5 10 7 23 3 12 -3 38 -6 57 -6z
m-530 -4 c0 -3 -4 -8 -10 -11 -5 -3 -10 -1 -10 4 0 6 5 11 10 11 6 0 10 -2 10
-4z m380 -5 c0 -6 -9 -9 -20 -8 -11 1 -20 5 -20 9 0 4 9 8 20 8 11 0 20 -4 20
-9z m358 -3 c8 -10 4 -13 -14 -14 -13 -1 -22 2 -19 6 3 5 -1 11 -7 13 -7 3 -3
6 8 6 12 1 26 -5 32 -11z m-694 -13 c19 -15 19 -15 -3 -15 -12 0 -19 -4 -16
-10 3 -5 2 -10 -4 -10 -15 0 -22 16 -15 34 7 19 13 20 38 1z m110 0 c11 -8 16
-16 10 -16 -53 -7 -74 -5 -74 7 0 10 13 18 40 23 3 0 14 -6 24 -14z m236 -47
c0 -10 -1 -10 -38 3 -18 6 -30 15 -27 19 6 10 65 -11 65 -22z m-249 -10 c4 -7
9 -7 13 0 3 6 15 8 26 5 30 -8 16 -19 -28 -21 -27 -2 -41 2 -45 12 -3 8 -14
16 -24 19 -10 2 -2 2 17 0 19 -3 38 -9 41 -15z m-131 -14 c0 -2 -9 -4 -20 -4
-11 0 -20 4 -20 9 0 5 9 7 20 4 11 -3 20 -7 20 -9z m25 -14 c3 -5 1 -10 -4
-10 -6 0 -11 5 -11 10 0 6 2 10 4 10 3 0 8 -4 11 -10z"/>
<path d="M2021 3066 c-13 -23 -11 -28 13 -56 25 -30 26 -30 25 -8 0 13 -6 38
-13 56 l-12 34 -13 -26z"/>
<path d="M1344 3531 c7 -11 46 -35 46 -28 0 3 -12 12 -26 22 -15 9 -23 12 -20
6z"/>
<path d="M1390 3451 c0 -5 5 -13 10 -16 6 -3 10 -2 10 4 0 5 -4 13 -10 16 -5
3 -10 2 -10 -4z"/>
<path d="M2615 3143 c-7 -83 -8 -94 -5 -163 2 -51 3 -52 10 -20 4 19 8 27 9
18 1 -14 10 -18 41 -18 33 0 41 4 45 23 4 12 1 35 -4 51 -6 15 -11 51 -11 81
0 52 -1 54 -27 52 -22 -2 -29 3 -31 21 -7 44 -21 21 -27 -45z"/>
<path d="M1050 2920 c35 -24 54 -31 30 -11 -14 11 -29 21 -35 21 -5 0 -3 -5 5
-10z"/>
<path d="M1040 2858 c0 -7 -3 -23 -6 -35 -5 -18 -2 -23 12 -23 11 0 38 -9 62
-20 23 -10 42 -15 42 -9 0 19 -33 59 -65 79 -38 23 -45 25 -45 8z"/>
<path d="M2651 2854 c0 -11 3 -14 6 -6 3 7 2 16 -1 19 -3 4 -6 -2 -5 -13z"/>
<path d="M2568 2770 c-7 -24 -3 -38 8 -28 3 4 4 17 2 30 l-3 23 -7 -25z"/>
<path d="M1814 2715 c-19 -33 -26 -99 -14 -130 18 -48 31 -15 28 71 -2 65 -5
75 -14 59z"/>
<path d="M1630 2712 c0 -4 5 -13 10 -18 6 -6 13 -34 17 -62 3 -29 10 -52 14
-52 18 0 13 73 -7 113 -14 25 -34 37 -34 19z"/>
<path d="M1592 2685 c0 -16 2 -22 5 -12 2 9 2 23 0 30 -3 6 -5 -1 -5 -18z"/>
<path d="M2015 2675 c-8 -14 -22 -36 -30 -50 -9 -14 -11 -25 -5 -25 5 0 10 4
10 10 0 5 14 25 30 43 32 37 36 47 20 47 -5 0 -16 -11 -25 -25z"/>
<path d="M2643 2635 c0 -22 2 -30 4 -17 2 12 2 30 0 40 -3 9 -5 -1 -4 -23z"/>
<path d="M1600 2555 c0 -49 3 -86 6 -83 7 8 7 159 -1 166 -3 3 -5 -34 -5 -83z"/>
<path d="M2162 2620 c7 -10 14 -18 15 -16 6 6 -9 36 -18 36 -5 0 -4 -9 3 -20z"/>
<path d="M2495 2600 c-3 -5 -2 -10 4 -10 5 0 13 5 16 10 3 6 2 10 -4 10 -5 0
-13 -4 -16 -10z"/>
<path d="M2539 2579 c-9 -17 -8 -20 2 -14 8 5 10 4 5 -3 -10 -17 -26 -15 -26
3 0 8 -4 15 -10 15 -16 0 -12 -15 10 -35 11 -10 20 -14 20 -9 0 5 5 2 10 -6 8
-11 10 -4 8 28 -1 23 -3 42 -5 42 -1 0 -7 -10 -14 -21z"/>
<path d="M2573 2555 c0 -27 2 -38 4 -22 2 15 2 37 0 50 -2 12 -4 0 -4 -28z"/>
<path d="M1426 2501 c-10 -15 -36 -104 -32 -108 2 -2 13 22 24 54 19 52 23 79
8 54z"/>
<path d="M1821 2444 c0 -11 3 -14 6 -6 3 7 2 16 -1 19 -3 4 -6 -2 -5 -13z"/>
<path d="M2040 2290 c0 -5 5 -10 10 -10 6 0 10 5 10 10 0 6 -4 10 -10 10 -5 0
-10 -4 -10 -10z"/>
<path d="M1707 2248 c7 -49 10 -55 23 -42 10 10 -8 84 -21 84 -4 0 -5 -19 -2
-42z"/>
<path d="M1740 2266 c0 -2 7 -7 16 -10 8 -3 12 -2 9 4 -6 10 -25 14 -25 6z"/>
<path d="M1957 2253 c-11 -11 -8 -23 6 -23 8 0 14 7 14 15 0 16 -9 19 -20 8z"/>
<path d="M2132 2210 c-6 -11 -12 -22 -12 -25 0 -9 39 19 44 32 8 21 -18 15
-32 -7z"/>
<path d="M1192 2170 c0 -14 2 -19 5 -12 2 6 2 18 0 25 -3 6 -5 1 -5 -13z"/>
<path d="M1847 2158 c-6 -18 20 -67 54 -101 l29 -29 0 26 c0 14 -8 34 -17 44
-10 9 -24 30 -30 45 -13 29 -28 35 -36 15z"/>
<path d="M1182 2090 c0 -14 2 -19 5 -12 2 6 2 18 0 25 -3 6 -5 1 -5 -13z"/>
<path d="M1522 1770 c0 -14 2 -19 5 -12 2 6 2 18 0 25 -3 6 -5 1 -5 -13z"/>
<path d="M2415 1676 c-17 -9 -19 -17 -14 -50 3 -22 14 -45 23 -52 38 -27 -3
-18 -52 12 -40 24 -48 33 -36 38 16 6 15 8 -2 20 -22 17 -41 11 -49 -15 -4
-10 -13 -25 -21 -34 -13 -12 -11 -25 12 -106 14 -51 28 -106 30 -123 2 -17 5
-43 7 -58 2 -14 20 -46 41 -71 20 -24 36 -49 36 -56 0 -6 7 -14 15 -17 8 -3
19 -22 26 -42 17 -51 44 -93 54 -84 5 4 5 2 1 -5 -3 -6 6 -24 21 -40 28 -27
53 -39 53 -23 0 4 11 11 25 14 14 4 25 11 25 16 0 6 -11 10 -25 10 -27 0 -34
15 -10 24 20 7 19 18 -5 44 -11 12 -20 24 -20 28 0 3 -27 38 -60 76 -34 39
-64 83 -67 99 -3 16 -9 26 -14 23 -5 -3 -9 3 -9 13 0 10 -11 41 -25 68 -32 65
-32 93 0 36 14 -24 38 -60 54 -80 15 -20 30 -40 32 -46 10 -26 74 -105 85
-105 7 0 14 -6 17 -12 2 -7 8 -10 12 -5 9 7 -51 136 -89 191 -11 16 -15 26 -8
22 16 -10 15 5 -3 28 -7 10 -19 15 -25 11 -6 -3 -9 -3 -8 2 3 11 -51 95 -71
110 -9 6 -13 14 -9 18 10 11 48 -18 61 -47 7 -18 17 -26 27 -23 17 6 96 -73
145 -144 60 -87 78 -125 76 -166 0 -29 2 -36 9 -25 7 11 10 4 10 -27 0 -23 5
-45 10 -48 18 -11 11 81 -12 136 -12 30 -45 91 -75 137 -29 45 -53 85 -53 88
0 3 -10 15 -22 26 -21 18 -21 19 -3 13 11 -4 29 -10 40 -12 38 -11 0 17 -51
36 -27 10 -54 28 -59 39 -6 11 -16 26 -22 34 -8 9 -9 19 -3 28 12 18 13 61 2
76 -5 7 -13 7 -27 0z"/>
<path d="M1511 1654 c0 -11 3 -14 6 -6 3 7 2 16 -1 19 -3 4 -6 -2 -5 -13z"/>
<path d="M1711 1284 c0 -11 3 -14 6 -6 3 7 2 16 -1 19 -3 4 -6 -2 -5 -13z"/>
<path d="M2651 1184 c0 -11 3 -14 6 -6 3 7 2 16 -1 19 -3 4 -6 -2 -5 -13z"/>
<path d="M1993 1092 c-1 -22 0 -24 9 -8 6 10 6 22 2 26 -5 5 -10 -3 -11 -18z"/>
<path d="M1 918 c-1 -29 5 -33 33 -22 22 9 20 24 -3 24 -11 0 -22 6 -24 13 -3
6 -6 0 -6 -15z"/>
<path d="M70 910 c0 -5 9 -10 20 -10 11 0 20 5 20 10 0 6 -9 10 -20 10 -11 0
-20 -4 -20 -10z"/>
<path d="M2424 878 c4 -22 9 -45 12 -50 10 -16 42 -8 47 13 7 27 -1 49 -19 49
-8 0 -17 7 -20 15 -13 33 -26 14 -20 -27z m56 -18 c0 -5 -2 -10 -4 -10 -3 0
-8 5 -11 10 -3 6 -1 10 4 10 6 0 11 -4 11 -10z"/>
<path d="M480 863 c0 -7 -7 -13 -15 -13 -8 0 -15 -4 -15 -10 0 -12 37 -14 44
-2 2 4 1 14 -5 22 -6 10 -9 11 -9 3z"/>
<path d="M550 840 c0 -11 14 -11 50 0 22 7 21 8 -12 9 -21 1 -38 -3 -38 -9z"/>
<path d="M43 832 c-24 -2 -43 -8 -43 -13 0 -12 263 -1 295 12 19 8 -151 8
-252 1z"/>
<path d="M507 764 c-14 -14 -283 -23 -354 -12 -85 14 -153 -1 -153 -34 0 -22
-12 -22 185 -3 88 9 205 19 259 23 65 4 101 11 104 20 4 12 -29 17 -41 6z"/>
<path d="M960 425 c0 -9 6 -12 15 -9 8 4 12 10 9 15 -8 14 -24 10 -24 -6z"/>
</g>
</svg>
